#N canvas 172 132 1059 662 10;
#N canvas 10 22 1277 752 maths 0;
#X floatatom 100 62 5 0 0 0 - - -;
#X floatatom 143 62 5 0 0 0 - - -;
#X obj 100 96 /;
#X obj 100 323 * 1;
#X obj 176 323 * 2;
#X obj 250 322 * 3;
#X obj 326 321 * 4;
#X obj 403 322 * 5;
#X obj 477 321 * 6;
#X obj 549 321 * 7;
#X obj 100 344 + 0.5;
#X obj 100 366 i;
#X floatatom 100 387 5 0 0 0 - - -;
#X obj 176 344 + 0.5;
#X obj 176 366 i;
#X floatatom 176 387 5 0 0 0 - - -;
#X obj 250 343 + 0.5;
#X obj 250 365 i;
#X floatatom 250 386 5 0 0 0 - - -;
#X obj 326 342 + 0.5;
#X obj 326 364 i;
#X floatatom 326 385 5 0 0 0 - - -;
#X obj 403 342 + 0.5;
#X obj 403 364 i;
#X floatatom 403 385 5 0 0 0 - - -;
#X obj 477 341 + 0.5;
#X obj 477 363 i;
#X floatatom 477 384 5 0 0 0 - - -;
#X obj 549 341 + 0.5;
#X obj 549 363 i;
#X floatatom 549 384 5 0 0 0 - - -;
#X obj 15 192 t b;
#X floatatom 48 192 5 0 0 0 - - -;
#X obj 15 212 spigot;
#X obj 726 15 t b;
#X msg 726 36 0;
#X obj 116 33 t b;
#X obj 621 342 + 0.5;
#X obj 621 364 i;
#X floatatom 621 385 5 0 0 0 - - -;
#X obj 697 343 + 0.5;
#X obj 697 365 i;
#X floatatom 697 386 5 0 0 0 - - -;
#X obj 773 343 + 0.5;
#X obj 773 365 i;
#X floatatom 773 386 5 0 0 0 - - -;
#X obj 847 342 + 0.5;
#X obj 847 364 i;
#X floatatom 847 385 5 0 0 0 - - -;
#X obj 923 342 + 0.5;
#X obj 923 364 i;
#X floatatom 923 385 5 0 0 0 - - -;
#X obj 1000 341 + 0.5;
#X obj 1000 363 i;
#X floatatom 1000 384 5 0 0 0 - - -;
#X obj 1074 341 + 0.5;
#X obj 1074 363 i;
#X floatatom 1074 384 5 0 0 0 - - -;
#X obj 1153 340 + 0.5;
#X obj 1153 362 i;
#X floatatom 1153 383 5 0 0 0 - - -;
#X obj 621 321 * 8;
#X obj 697 322 * 9;
#X obj 773 322 * 10;
#X obj 847 321 * 11;
#X obj 923 322 * 12;
#X obj 1000 321 * 13;
#X obj 1074 321 * 14;
#X obj 1153 320 * 15;
#X obj 100 440 sel 1 2 3 4 5 6 7 8 9 10 11 12 13 14 15;
#X floatatom 133 220 5 0 0 0 - - -;
#X floatatom 133 282 5 0 0 0 - - -;
#X obj 100 302 spigot;
#X floatatom 209 220 5 0 0 0 - - -;
#X floatatom 209 282 5 0 0 0 - - -;
#X obj 176 302 spigot;
#X floatatom 283 219 5 0 0 0 - - -;
#X floatatom 283 281 5 0 0 0 - - -;
#X obj 250 301 spigot;
#X floatatom 359 218 5 0 0 0 - - -;
#X floatatom 359 280 5 0 0 0 - - -;
#X obj 326 300 spigot;
#X floatatom 436 218 5 0 0 0 - - -;
#X floatatom 436 280 5 0 0 0 - - -;
#X obj 403 300 spigot;
#X floatatom 510 218 5 0 0 0 - - -;
#X floatatom 510 280 5 0 0 0 - - -;
#X obj 477 300 spigot;
#X floatatom 582 219 5 0 0 0 - - -;
#X floatatom 582 281 5 0 0 0 - - -;
#X obj 549 301 spigot;
#X floatatom 654 219 5 0 0 0 - - -;
#X floatatom 654 281 5 0 0 0 - - -;
#X obj 621 301 spigot;
#X floatatom 730 218 5 0 0 0 - - -;
#X floatatom 730 280 5 0 0 0 - - -;
#X obj 697 300 spigot;
#X floatatom 806 218 5 0 0 0 - - -;
#X floatatom 806 280 5 0 0 0 - - -;
#X obj 773 300 spigot;
#X floatatom 880 217 5 0 0 0 - - -;
#X floatatom 880 279 5 0 0 0 - - -;
#X obj 847 299 spigot;
#X floatatom 956 216 5 0 0 0 - - -;
#X floatatom 956 278 5 0 0 0 - - -;
#X obj 923 298 spigot;
#X floatatom 1033 216 5 0 0 0 - - -;
#X floatatom 1033 278 5 0 0 0 - - -;
#X obj 1000 298 spigot;
#X floatatom 1107 216 5 0 0 0 - - -;
#X floatatom 1107 278 5 0 0 0 - - -;
#X obj 1074 298 spigot;
#X floatatom 1186 217 5 0 0 0 - - -;
#X floatatom 1186 279 5 0 0 0 - - -;
#X obj 1153 299 spigot;
#X msg 133 260 0;
#X msg 172 260 1;
#X msg 209 260 0;
#X msg 248 260 1;
#X msg 283 259 0;
#X msg 322 259 1;
#X msg 359 258 0;
#X msg 398 258 1;
#X msg 436 258 0;
#X msg 475 258 1;
#X msg 510 258 0;
#X msg 549 258 1;
#X msg 582 259 0;
#X msg 621 259 1;
#X msg 654 259 0;
#X msg 693 258 1;
#X msg 730 258 0;
#X msg 769 258 1;
#X msg 806 258 0;
#X msg 851 258 1;
#X msg 880 257 0;
#X msg 925 257 1;
#X msg 956 256 0;
#X msg 1001 256 1;
#X msg 1033 256 0;
#X msg 1078 256 1;
#X msg 1107 256 0;
#X msg 1152 256 1;
#X msg 1186 257 0;
#X msg 1231 257 1;
#X obj 133 240 moses 2;
#X obj 209 240 moses 3;
#X obj 283 239 moses 4;
#X obj 359 238 moses 5;
#X obj 436 238 moses 6;
#X obj 510 238 moses 7;
#X obj 582 239 moses 8;
#X obj 654 239 moses 9;
#X obj 730 238 moses 10;
#X obj 806 238 moses 11;
#X obj 880 237 moses 12;
#X obj 956 236 moses 13;
#X obj 1032 236 moses 14;
#X obj 1107 236 moses 15;
#X obj 1186 237 moses 16;
#X msg 100 465 1;
#X obj 100 532 +;
#X floatatom 115 510 5 0 0 0 - - -;
#X floatatom 100 577 5 0 0 0 - - -;
#X obj 100 556 mod 16;
#X msg 114 1063 1;
#X obj 114 1043 del 5;
#X msg 129 1128 1;
#X obj 129 1108 del 5;
#X msg 144 1195 1;
#X obj 144 1175 del 5;
#X msg 159 1063 1;
#X obj 159 1043 del 5;
#X msg 174 1129 1;
#X obj 174 1109 del 5;
#X msg 190 1196 1;
#X obj 190 1176 del 5;
#X msg 205 1064 1;
#X obj 205 1044 del 5;
#X msg 220 1130 1;
#X obj 220 1110 del 5;
#X msg 235 1197 1;
#X obj 235 1177 del 5;
#X msg 250 1065 1;
#X obj 250 1045 del 5;
#X msg 266 1131 1;
#X obj 266 1111 del 5;
#X msg 281 1198 1;
#X obj 281 1178 del 5;
#X msg 296 1066 1;
#X obj 296 1046 del 5;
#X msg 311 1132 1;
#X obj 311 1112 del 5;
#X msg 326 1199 1;
#X obj 326 1179 del 5;
#X obj 99 1017 sel 0 1 2 3 4 5 6 7 8 9 10 11 12 13 14 15;
#X obj 113 667 +;
#X floatatom 128 645 5 0 0 0 - - -;
#X floatatom 113 710 5 0 0 0 - - -;
#X obj 113 689 mod 16;
#X obj 129 800 +;
#X floatatom 144 778 5 0 0 0 - - -;
#X floatatom 129 843 5 0 0 0 - - -;
#X obj 129 822 mod 16;
#X obj 144 933 +;
#X floatatom 159 911 5 0 0 0 - - -;
#X floatatom 144 976 5 0 0 0 - - -;
#X obj 144 955 mod 16;
#X obj 161 532 +;
#X floatatom 176 510 5 0 0 0 - - -;
#X floatatom 161 577 5 0 0 0 - - -;
#X obj 162 556 mod 16;
#X obj 176 667 +;
#X floatatom 191 645 5 0 0 0 - - -;
#X floatatom 176 710 5 0 0 0 - - -;
#X obj 176 689 mod 16;
#X obj 191 800 +;
#X floatatom 206 778 5 0 0 0 - - -;
#X floatatom 191 843 5 0 0 0 - - -;
#X obj 191 822 mod 16;
#X obj 206 933 +;
#X floatatom 221 911 5 0 0 0 - - -;
#X floatatom 206 976 5 0 0 0 - - -;
#X obj 206 955 mod 16;
#X obj 223 532 +;
#X floatatom 238 510 5 0 0 0 - - -;
#X floatatom 223 577 5 0 0 0 - - -;
#X obj 223 556 mod 16;
#X obj 236 667 +;
#X floatatom 251 645 5 0 0 0 - - -;
#X floatatom 236 710 5 0 0 0 - - -;
#X obj 236 689 mod 16;
#X obj 252 800 +;
#X floatatom 267 778 5 0 0 0 - - -;
#X floatatom 252 843 5 0 0 0 - - -;
#X obj 252 822 mod 16;
#X obj 267 933 +;
#X floatatom 282 911 5 0 0 0 - - -;
#X floatatom 267 976 5 0 0 0 - - -;
#X obj 267 955 mod 16;
#X obj 284 532 +;
#X floatatom 299 510 5 0 0 0 - - -;
#X floatatom 284 577 5 0 0 0 - - -;
#X obj 284 556 mod 16;
#X obj 299 667 +;
#X floatatom 314 645 5 0 0 0 - - -;
#X floatatom 299 710 5 0 0 0 - - -;
#X obj 299 689 mod 16;
#X obj 314 800 +;
#X floatatom 329 778 5 0 0 0 - - -;
#X floatatom 314 843 5 0 0 0 - - -;
#X obj 314 822 mod 16;
#X msg 114 599 2;
#X msg 129 734 3;
#X msg 144 865 4;
#X msg 161 465 5;
#X msg 177 599 6;
#X msg 191 734 7;
#X msg 206 865 8;
#X msg 223 465 9;
#X msg 237 599 10;
#X msg 252 734 11;
#X msg 267 865 12;
#X msg 284 465 13;
#X msg 300 599 14;
#X msg 314 734 15;
#X msg 71 1064 1;
#X obj 71 1043 del 5;
#X obj 17 533 +;
#X floatatom 32 511 5 0 0 0 - - -;
#X floatatom 17 576 5 0 0 0 - - -;
#X obj 17 555 mod 16;
#X msg 17 466 0;
#X obj 60 32 r \$1-q;
#X obj 143 35 r \$1-p;
#X obj 116 10 r \$1-startpos;
#X obj 133 199 r \$1-p;
#X obj 209 199 r \$1-p;
#X obj 283 198 r \$1-p;
#X obj 359 197 r \$1-p;
#X obj 436 197 r \$1-p;
#X obj 510 197 r \$1-p;
#X obj 582 198 r \$1-p;
#X obj 656 198 r \$1-p;
#X obj 730 197 r \$1-p;
#X obj 806 197 r \$1-p;
#X obj 880 196 r \$1-p;
#X obj 956 195 r \$1-p;
#X obj 1033 195 r \$1-p;
#X obj 1107 195 r \$1-p;
#X obj 1186 196 r \$1-p;
#X obj 32 488 r \$1-startpos;
#X obj 107 487 r \$1-startpos;
#X obj 299 487 r \$1-startpos;
#X obj 238 487 r \$1-startpos;
#X obj 176 487 r \$1-startpos;
#X obj 50 533 r \$1-q;
#X obj 132 535 r \$1-q;
#X obj 193 535 r \$1-q;
#X obj 256 535 r \$1-q;
#X obj 317 534 r \$1-q;
#X obj 315 621 r \$1-startpos;
#X obj 252 621 r \$1-startpos;
#X obj 192 621 r \$1-startpos;
#X obj 129 621 r \$1-startpos;
#X obj 146 668 r \$1-q;
#X obj 207 668 r \$1-q;
#X obj 270 668 r \$1-q;
#X obj 331 667 r \$1-q;
#X obj 329 756 r \$1-startpos;
#X obj 267 756 r \$1-startpos;
#X obj 206 756 r \$1-startpos;
#X obj 144 756 r \$1-startpos;
#X obj 161 801 r \$1-q;
#X obj 222 801 r \$1-q;
#X obj 285 801 r \$1-q;
#X obj 345 800 r \$1-q;
#X obj 282 887 r \$1-startpos;
#X obj 221 887 r \$1-startpos;
#X obj 159 887 r \$1-startpos;
#X obj 176 934 r \$1-q;
#X obj 237 934 r \$1-q;
#X obj 300 934 r \$1-q;
#X obj 71 1086 s \$1-b0;
#X obj 114 1084 s \$1-b1;
#X obj 296 1087 s \$1-b13;
#X obj 250 1086 s \$1-b10;
#X obj 205 1085 s \$1-b7;
#X obj 159 1084 s \$1-b4;
#X obj 311 1153 s \$1-b14;
#X obj 266 1152 s \$1-b11;
#X obj 220 1151 s \$1-b8;
#X obj 174 1150 s \$1-b5;
#X obj 129 1149 s \$1-b2;
#X obj 326 1220 s \$1-b15;
#X obj 281 1219 s \$1-b12;
#X obj 235 1218 s \$1-b9;
#X obj 190 1217 s \$1-b6;
#X obj 144 1216 s \$1-b3;
#X obj 726 57 s \$1-b0;
#X obj 774 56 s \$1-b1;
#X obj 826 56 s \$1-b2;
#X obj 887 59 s \$1-b3;
#X obj 887 82 s \$1-b7;
#X obj 826 79 s \$1-b6;
#X obj 774 79 s \$1-b5;
#X obj 726 80 s \$1-b4;
#X obj 726 103 s \$1-b8;
#X obj 775 102 s \$1-b9;
#X obj 826 102 s \$1-b10;
#X obj 887 105 s \$1-b11;
#X obj 899 127 s \$1-b15;
#X obj 834 124 s \$1-b14;
#X obj 777 124 s \$1-b13;
#X obj 726 125 s \$1-b12;
#X connect 0 0 2 0;
#X connect 1 0 2 1;
#X connect 1 0 36 0;
#X connect 2 0 32 0;
#X connect 2 0 34 0;
#X connect 2 0 72 0;
#X connect 2 0 75 0;
#X connect 2 0 78 0;
#X connect 2 0 81 0;
#X connect 2 0 84 0;
#X connect 2 0 87 0;
#X connect 2 0 90 0;
#X connect 2 0 93 0;
#X connect 2 0 96 0;
#X connect 2 0 99 0;
#X connect 2 0 102 0;
#X connect 2 0 105 0;
#X connect 2 0 108 0;
#X connect 2 0 111 0;
#X connect 2 0 114 0;
#X connect 3 0 10 0;
#X connect 4 0 13 0;
#X connect 5 0 16 0;
#X connect 6 0 19 0;
#X connect 7 0 22 0;
#X connect 8 0 25 0;
#X connect 9 0 28 0;
#X connect 10 0 11 0;
#X connect 11 0 12 0;
#X connect 12 0 69 0;
#X connect 13 0 14 0;
#X connect 14 0 15 0;
#X connect 15 0 69 0;
#X connect 16 0 17 0;
#X connect 17 0 18 0;
#X connect 18 0 69 0;
#X connect 19 0 20 0;
#X connect 20 0 21 0;
#X connect 21 0 69 0;
#X connect 22 0 23 0;
#X connect 23 0 24 0;
#X connect 24 0 69 0;
#X connect 25 0 26 0;
#X connect 26 0 27 0;
#X connect 27 0 69 0;
#X connect 28 0 29 0;
#X connect 29 0 30 0;
#X connect 30 0 69 0;
#X connect 31 0 33 0;
#X connect 32 0 33 1;
#X connect 32 0 31 0;
#X connect 33 0 272 0;
#X connect 34 0 35 0;
#X connect 35 0 339 0;
#X connect 35 0 340 0;
#X connect 35 0 341 0;
#X connect 35 0 342 0;
#X connect 35 0 343 0;
#X connect 35 0 344 0;
#X connect 35 0 345 0;
#X connect 35 0 346 0;
#X connect 35 0 347 0;
#X connect 35 0 348 0;
#X connect 35 0 349 0;
#X connect 35 0 350 0;
#X connect 35 0 351 0;
#X connect 35 0 352 0;
#X connect 35 0 353 0;
#X connect 35 0 354 0;
#X connect 36 0 0 0;
#X connect 37 0 38 0;
#X connect 38 0 39 0;
#X connect 39 0 69 0;
#X connect 40 0 41 0;
#X connect 41 0 42 0;
#X connect 42 0 69 0;
#X connect 43 0 44 0;
#X connect 44 0 45 0;
#X connect 45 0 69 0;
#X connect 46 0 47 0;
#X connect 47 0 48 0;
#X connect 48 0 69 0;
#X connect 49 0 50 0;
#X connect 50 0 51 0;
#X connect 51 0 69 0;
#X connect 52 0 53 0;
#X connect 53 0 54 0;
#X connect 54 0 69 0;
#X connect 55 0 56 0;
#X connect 56 0 57 0;
#X connect 57 0 69 0;
#X connect 58 0 59 0;
#X connect 59 0 60 0;
#X connect 60 0 69 0;
#X connect 61 0 37 0;
#X connect 62 0 40 0;
#X connect 63 0 43 0;
#X connect 64 0 46 0;
#X connect 65 0 49 0;
#X connect 66 0 52 0;
#X connect 67 0 55 0;
#X connect 68 0 58 0;
#X connect 69 0 160 0;
#X connect 69 1 252 0;
#X connect 69 2 253 0;
#X connect 69 3 254 0;
#X connect 69 4 255 0;
#X connect 69 5 256 0;
#X connect 69 6 257 0;
#X connect 69 7 258 0;
#X connect 69 8 259 0;
#X connect 69 9 260 0;
#X connect 69 10 261 0;
#X connect 69 11 262 0;
#X connect 69 12 263 0;
#X connect 69 13 264 0;
#X connect 69 14 265 0;
#X connect 70 0 145 0;
#X connect 71 0 72 1;
#X connect 72 0 3 0;
#X connect 73 0 146 0;
#X connect 74 0 75 1;
#X connect 75 0 4 0;
#X connect 76 0 147 0;
#X connect 77 0 78 1;
#X connect 78 0 5 0;
#X connect 79 0 148 0;
#X connect 80 0 81 1;
#X connect 81 0 6 0;
#X connect 82 0 149 0;
#X connect 83 0 84 1;
#X connect 84 0 7 0;
#X connect 85 0 150 0;
#X connect 86 0 87 1;
#X connect 87 0 8 0;
#X connect 88 0 151 0;
#X connect 89 0 90 1;
#X connect 90 0 9 0;
#X connect 91 0 152 0;
#X connect 92 0 93 1;
#X connect 93 0 61 0;
#X connect 94 0 153 0;
#X connect 95 0 96 1;
#X connect 96 0 62 0;
#X connect 97 0 154 0;
#X connect 98 0 99 1;
#X connect 99 0 63 0;
#X connect 100 0 155 0;
#X connect 101 0 102 1;
#X connect 102 0 64 0;
#X connect 103 0 156 0;
#X connect 104 0 105 1;
#X connect 105 0 65 0;
#X connect 106 0 157 0;
#X connect 107 0 108 1;
#X connect 108 0 66 0;
#X connect 109 0 158 0;
#X connect 110 0 111 1;
#X connect 111 0 67 0;
#X connect 112 0 159 0;
#X connect 113 0 114 1;
#X connect 114 0 68 0;
#X connect 115 0 71 0;
#X connect 116 0 71 0;
#X connect 117 0 74 0;
#X connect 118 0 74 0;
#X connect 119 0 77 0;
#X connect 120 0 77 0;
#X connect 121 0 80 0;
#X connect 122 0 80 0;
#X connect 123 0 83 0;
#X connect 124 0 83 0;
#X connect 125 0 86 0;
#X connect 126 0 86 0;
#X connect 127 0 89 0;
#X connect 128 0 89 0;
#X connect 129 0 92 0;
#X connect 130 0 92 0;
#X connect 131 0 95 0;
#X connect 132 0 95 0;
#X connect 133 0 98 0;
#X connect 134 0 98 0;
#X connect 135 0 101 0;
#X connect 136 0 101 0;
#X connect 137 0 104 0;
#X connect 138 0 104 0;
#X connect 139 0 107 0;
#X connect 140 0 107 0;
#X connect 141 0 110 0;
#X connect 142 0 110 0;
#X connect 143 0 113 0;
#X connect 144 0 113 0;
#X connect 145 0 115 0;
#X connect 145 1 116 0;
#X connect 146 0 117 0;
#X connect 146 1 118 0;
#X connect 147 0 119 0;
#X connect 147 1 120 0;
#X connect 148 0 121 0;
#X connect 148 1 122 0;
#X connect 149 0 123 0;
#X connect 149 1 124 0;
#X connect 150 0 125 0;
#X connect 150 1 126 0;
#X connect 151 0 127 0;
#X connect 151 1 128 0;
#X connect 152 0 129 0;
#X connect 152 1 130 0;
#X connect 153 0 131 0;
#X connect 153 1 132 0;
#X connect 154 0 133 0;
#X connect 154 1 134 0;
#X connect 155 0 135 0;
#X connect 155 1 136 0;
#X connect 156 0 137 0;
#X connect 156 1 138 0;
#X connect 157 0 139 0;
#X connect 157 1 140 0;
#X connect 158 0 141 0;
#X connect 158 1 142 0;
#X connect 159 0 143 0;
#X connect 159 1 144 0;
#X connect 160 0 161 0;
#X connect 161 0 164 0;
#X connect 162 0 161 1;
#X connect 163 0 195 0;
#X connect 164 0 163 0;
#X connect 165 0 324 0;
#X connect 166 0 165 0;
#X connect 167 0 333 0;
#X connect 168 0 167 0;
#X connect 169 0 338 0;
#X connect 170 0 169 0;
#X connect 171 0 328 0;
#X connect 172 0 171 0;
#X connect 173 0 332 0;
#X connect 174 0 173 0;
#X connect 175 0 337 0;
#X connect 176 0 175 0;
#X connect 177 0 327 0;
#X connect 178 0 177 0;
#X connect 179 0 331 0;
#X connect 180 0 179 0;
#X connect 181 0 336 0;
#X connect 182 0 181 0;
#X connect 183 0 326 0;
#X connect 184 0 183 0;
#X connect 185 0 330 0;
#X connect 186 0 185 0;
#X connect 187 0 335 0;
#X connect 188 0 187 0;
#X connect 189 0 325 0;
#X connect 190 0 189 0;
#X connect 191 0 329 0;
#X connect 192 0 191 0;
#X connect 193 0 334 0;
#X connect 194 0 193 0;
#X connect 195 0 267 0;
#X connect 195 1 166 0;
#X connect 195 2 168 0;
#X connect 195 3 170 0;
#X connect 195 4 172 0;
#X connect 195 5 174 0;
#X connect 195 6 176 0;
#X connect 195 7 178 0;
#X connect 195 8 180 0;
#X connect 195 9 182 0;
#X connect 195 10 184 0;
#X connect 195 11 186 0;
#X connect 195 12 188 0;
#X connect 195 13 190 0;
#X connect 195 14 192 0;
#X connect 195 15 194 0;
#X connect 196 0 199 0;
#X connect 197 0 196 1;
#X connect 198 0 195 0;
#X connect 199 0 198 0;
#X connect 200 0 203 0;
#X connect 201 0 200 1;
#X connect 202 0 195 0;
#X connect 203 0 202 0;
#X connect 204 0 207 0;
#X connect 205 0 204 1;
#X connect 206 0 195 0;
#X connect 207 0 206 0;
#X connect 208 0 211 0;
#X connect 209 0 208 1;
#X connect 210 0 195 0;
#X connect 211 0 210 0;
#X connect 212 0 215 0;
#X connect 213 0 212 1;
#X connect 214 0 195 0;
#X connect 215 0 214 0;
#X connect 216 0 219 0;
#X connect 217 0 216 1;
#X connect 218 0 195 0;
#X connect 219 0 218 0;
#X connect 220 0 223 0;
#X connect 221 0 220 1;
#X connect 222 0 195 0;
#X connect 223 0 222 0;
#X connect 224 0 227 0;
#X connect 225 0 224 1;
#X connect 226 0 195 0;
#X connect 227 0 226 0;
#X connect 228 0 231 0;
#X connect 229 0 228 1;
#X connect 230 0 195 0;
#X connect 231 0 230 0;
#X connect 232 0 235 0;
#X connect 233 0 232 1;
#X connect 234 0 195 0;
#X connect 235 0 234 0;
#X connect 236 0 239 0;
#X connect 237 0 236 1;
#X connect 238 0 195 0;
#X connect 239 0 238 0;
#X connect 240 0 243 0;
#X connect 241 0 240 1;
#X connect 242 0 195 0;
#X connect 243 0 242 0;
#X connect 244 0 247 0;
#X connect 245 0 244 1;
#X connect 246 0 195 0;
#X connect 247 0 246 0;
#X connect 248 0 251 0;
#X connect 249 0 248 1;
#X connect 250 0 195 0;
#X connect 251 0 250 0;
#X connect 252 0 196 0;
#X connect 253 0 200 0;
#X connect 254 0 204 0;
#X connect 255 0 208 0;
#X connect 256 0 212 0;
#X connect 257 0 216 0;
#X connect 258 0 220 0;
#X connect 259 0 224 0;
#X connect 260 0 228 0;
#X connect 261 0 232 0;
#X connect 262 0 236 0;
#X connect 263 0 240 0;
#X connect 264 0 244 0;
#X connect 265 0 248 0;
#X connect 266 0 323 0;
#X connect 267 0 266 0;
#X connect 268 0 271 0;
#X connect 269 0 268 1;
#X connect 270 0 195 0;
#X connect 271 0 270 0;
#X connect 272 0 268 0;
#X connect 273 0 0 0;
#X connect 274 0 1 0;
#X connect 275 0 36 0;
#X connect 276 0 70 0;
#X connect 277 0 73 0;
#X connect 278 0 76 0;
#X connect 279 0 79 0;
#X connect 280 0 82 0;
#X connect 281 0 85 0;
#X connect 282 0 88 0;
#X connect 283 0 91 0;
#X connect 284 0 94 0;
#X connect 285 0 97 0;
#X connect 286 0 100 0;
#X connect 287 0 103 0;
#X connect 288 0 106 0;
#X connect 289 0 109 0;
#X connect 290 0 112 0;
#X connect 291 0 269 0;
#X connect 292 0 162 0;
#X connect 293 0 241 0;
#X connect 294 0 225 0;
#X connect 295 0 209 0;
#X connect 296 0 271 1;
#X connect 297 0 164 1;
#X connect 298 0 211 1;
#X connect 299 0 227 1;
#X connect 300 0 243 1;
#X connect 301 0 245 0;
#X connect 302 0 229 0;
#X connect 303 0 213 0;
#X connect 304 0 197 0;
#X connect 305 0 199 1;
#X connect 306 0 215 1;
#X connect 307 0 231 1;
#X connect 308 0 247 1;
#X connect 309 0 249 0;
#X connect 310 0 233 0;
#X connect 311 0 217 0;
#X connect 312 0 201 0;
#X connect 313 0 203 1;
#X connect 314 0 219 1;
#X connect 315 0 235 1;
#X connect 316 0 251 1;
#X connect 317 0 237 0;
#X connect 318 0 221 0;
#X connect 319 0 205 0;
#X connect 320 0 207 1;
#X connect 321 0 223 1;
#X connect 322 0 239 1;
#X restore 356 102 pd maths;
#N canvas 37 32 1213 680 sequencer 0;
#X obj 450 144 spigot;
#X floatatom 483 123 5 0 0 0 - - -;
#X obj 308 396 loadbang;
#X obj 172 542 noteout;
#X msg 327 447 127;
#X msg 347 468 10;
#X obj 537 144 spigot;
#X floatatom 570 123 5 0 0 0 - - -;
#X obj 623 144 spigot;
#X floatatom 656 123 5 0 0 0 - - -;
#X obj 710 144 spigot;
#X floatatom 743 123 5 0 0 0 - - -;
#X obj 796 144 spigot;
#X floatatom 829 123 5 0 0 0 - - -;
#X obj 883 144 spigot;
#X floatatom 916 123 5 0 0 0 - - -;
#X obj 969 144 spigot;
#X floatatom 1002 123 5 0 0 0 - - -;
#X obj 1056 144 spigot;
#X floatatom 1089 123 5 0 0 0 - - -;
#X obj 450 262 spigot;
#X floatatom 483 241 5 0 0 0 - - -;
#X obj 537 262 spigot;
#X floatatom 570 241 5 0 0 0 - - -;
#X obj 623 262 spigot;
#X floatatom 656 241 5 0 0 0 - - -;
#X obj 710 262 spigot;
#X floatatom 743 241 5 0 0 0 - - -;
#X obj 796 262 spigot;
#X floatatom 829 241 5 0 0 0 - - -;
#X obj 883 262 spigot;
#X floatatom 916 241 5 0 0 0 - - -;
#X obj 969 262 spigot;
#X floatatom 1002 241 5 0 0 0 - - -;
#X obj 1056 262 spigot;
#X floatatom 1089 241 5 0 0 0 - - -;
#X obj 450 393 spigot;
#X floatatom 483 372 5 0 0 0 - - -;
#X obj 537 393 spigot;
#X floatatom 570 372 5 0 0 0 - - -;
#X obj 623 393 spigot;
#X floatatom 656 372 5 0 0 0 - - -;
#X obj 710 393 spigot;
#X floatatom 743 372 5 0 0 0 - - -;
#X obj 796 393 spigot;
#X floatatom 829 372 5 0 0 0 - - -;
#X obj 883 393 spigot;
#X floatatom 916 372 5 0 0 0 - - -;
#X obj 969 393 spigot;
#X floatatom 1002 372 5 0 0 0 - - -;
#X obj 1056 393 spigot;
#X floatatom 1089 372 5 0 0 0 - - -;
#X obj 450 537 spigot;
#X floatatom 483 516 5 0 0 0 - - -;
#X obj 537 537 spigot;
#X floatatom 570 516 5 0 0 0 - - -;
#X obj 623 537 spigot;
#X floatatom 656 516 5 0 0 0 - - -;
#X obj 710 537 spigot;
#X floatatom 743 516 5 0 0 0 - - -;
#X obj 796 537 spigot;
#X floatatom 829 516 5 0 0 0 - - -;
#X obj 883 537 spigot;
#X floatatom 916 516 5 0 0 0 - - -;
#X obj 969 537 spigot;
#X floatatom 1002 516 5 0 0 0 - - -;
#X obj 1056 537 spigot;
#X floatatom 1089 516 5 0 0 0 - - -;
#X obj 483 351 - 1;
#X obj 570 351 - 1;
#X obj 656 350 - 1;
#X obj 743 350 - 1;
#X obj 829 351 - 1;
#X obj 916 351 - 1;
#X obj 1002 350 - 1;
#X obj 1089 350 - 1;
#X obj 483 495 - 1;
#X obj 570 495 - 1;
#X obj 656 494 - 1;
#X obj 743 494 - 1;
#X obj 829 495 - 1;
#X obj 916 495 - 1;
#X obj 1002 494 - 1;
#X obj 1089 494 - 1;
#X obj 79 399 spigot;
#X obj 210 419 spigot;
#X floatatom 112 377 5 0 0 0 - - -;
#X floatatom 243 398 5 0 0 0 - - -;
#X obj 243 376 - 1;
#X obj 448 330 r ob;
#X obj 537 330 r ob;
#X obj 621 330 r ob;
#X obj 710 330 r ob;
#X obj 795 330 r ob;
#X obj 884 330 r ob;
#X obj 968 330 r ob;
#X obj 1057 330 r ob;
#X obj 451 474 r ob;
#X obj 540 474 r ob;
#X obj 624 474 r ob;
#X obj 713 474 r ob;
#X obj 798 474 r ob;
#X obj 887 474 r ob;
#X obj 971 474 r ob;
#X obj 1060 474 r ob;
#X obj 210 442 \$1;
#X msg 237 442 127;
#X msg 268 442 10;
#X obj 79 420 \$1;
#X msg 106 420 127;
#X msg 137 420 10;
#X obj 308 423 \$1;
#X obj 483 100 r \$1-b0out;
#X obj 570 100 r \$1-b1out;
#X obj 656 100 r \$1-b2out;
#X obj 743 100 r \$1-b3out;
#X obj 829 100 r \$1-b4out;
#X obj 916 100 r \$1-b5out;
#X obj 1002 100 r \$1-b6out;
#X obj 1089 100 r \$1-b7out;
#X obj 450 168 s \$1-midi;
#X obj 537 168 s \$1-midi;
#X obj 623 168 s \$1-midi;
#X obj 710 168 s \$1-midi;
#X obj 796 168 s \$1-midi;
#X obj 883 167 s \$1-midi;
#X obj 969 168 s \$1-midi;
#X obj 1056 168 s \$1-midi;
#X obj 483 218 r \$1-b8out;
#X obj 570 218 r \$1-b9out;
#X obj 656 218 r \$1-b10out;
#X obj 743 218 r \$1-b11out;
#X obj 829 217 r \$1-b12out;
#X obj 916 218 r \$1-b13out;
#X obj 1002 218 r \$1-b14out;
#X obj 1089 218 r \$1-b15out;
#X obj 450 286 s \$1-midi;
#X obj 537 286 s \$1-midi;
#X obj 623 286 s \$1-midi;
#X obj 710 286 s \$1-midi;
#X obj 796 286 s \$1-midi;
#X obj 883 286 s \$1-midi;
#X obj 969 286 s \$1-midi;
#X obj 1056 286 s \$1-midi;
#X obj 483 330 r \$1-b0out;
#X obj 570 330 r \$1-b1out;
#X obj 656 330 r \$1-b2out;
#X obj 743 330 r \$1-b3out;
#X obj 829 330 r \$1-b4out;
#X obj 916 330 r \$1-b5out;
#X obj 1002 330 r \$1-b6out;
#X obj 1089 330 r \$1-b7out;
#X obj 450 417 s \$1-midioffbeat;
#X obj 537 417 s \$1-midioffbeat;
#X obj 623 418 s \$1-midioffbeat;
#X obj 710 418 s \$1-midioffbeat;
#X obj 796 417 s \$1-midioffbeat;
#X obj 883 417 s \$1-midioffbeat;
#X obj 969 417 s \$1-midioffbeat;
#X obj 1056 417 s \$1-midioffbeat;
#X obj 483 474 r \$1-b8out;
#X obj 570 474 r \$1-b9out;
#X obj 656 474 r \$1-b10out;
#X obj 743 474 r \$1-b11out;
#X obj 829 474 r \$1-b12out;
#X obj 916 474 r \$1-b13out;
#X obj 1003 475 r \$1-b14out;
#X obj 1089 474 r \$1-b15out;
#X obj 450 560 s \$1-midioffbeat;
#X obj 538 560 s \$1-midioffbeat;
#X obj 623 560 s \$1-midioffbeat;
#X obj 710 560 s \$1-midioffbeat;
#X obj 796 560 s \$1-midioffbeat;
#X obj 883 560 s \$1-midioffbeat;
#X obj 969 561 s \$1-midioffbeat;
#X obj 1056 560 s \$1-midioffbeat;
#X obj 79 336 r \$1-midi;
#X obj 210 333 r \$1-midioffbeat;
#X obj 112 357 r \$1-onoffbeat;
#X obj 243 354 r \$1-onoffbeat;
#X obj 166 116 r sequence;
#X floatatom 166 202 5 0 0 0 - - -;
#X floatatom 199 160 5 0 0 0 - - -;
#X obj 166 180 mod 16;
#X obj 166 224 sel 0 1 2 3 4 5 6 7 8 9 10 11 12 13 14 15;
#X obj 199 139 r \$1-q;
#X obj 166 247 s \$1-s0;
#X obj 393 249 s \$1-s15;
#X obj 348 248 s \$1-s12;
#X obj 302 247 s \$1-s9;
#X obj 257 247 s \$1-s6;
#X obj 211 247 s \$1-s3;
#X obj 363 270 s \$1-s13;
#X obj 317 269 s \$1-s10;
#X obj 272 269 s \$1-s7;
#X obj 226 269 s \$1-s4;
#X obj 181 269 s \$1-s1;
#X obj 378 292 s \$1-s14;
#X obj 333 291 s \$1-s11;
#X obj 287 291 s \$1-s8;
#X obj 241 291 s \$1-s5;
#X obj 196 290 s \$1-s2;
#X obj 450 122 r \$1-s0;
#X obj 537 122 r \$1-s1;
#X obj 623 122 r \$1-s2;
#X obj 710 122 r \$1-s3;
#X obj 796 122 r \$1-s4;
#X obj 883 122 r \$1-s5;
#X obj 969 122 r \$1-s6;
#X obj 1056 122 r \$1-s7;
#X obj 450 240 r \$1-s8;
#X obj 537 240 r \$1-s9;
#X obj 623 240 r \$1-s10;
#X obj 710 240 r \$1-s11;
#X obj 796 240 r \$1-s12;
#X obj 883 240 r \$1-s13;
#X obj 969 240 r \$1-s14;
#X obj 1056 240 r \$1-s15;
#X obj 450 371 r \$1-s0;
#X obj 537 371 r \$1-s1;
#X obj 623 371 r \$1-s2;
#X obj 710 371 r \$1-s3;
#X obj 796 371 r \$1-s4;
#X obj 883 371 r \$1-s5;
#X obj 969 371 r \$1-s6;
#X obj 1056 371 r \$1-s7;
#X obj 449 515 r \$1-s8;
#X obj 537 516 r \$1-s9;
#X obj 623 515 r \$1-s10;
#X obj 710 515 r \$1-s11;
#X obj 796 515 r \$1-s12;
#X obj 883 515 r \$1-s13;
#X obj 969 515 r \$1-s14;
#X obj 1056 515 r \$1-s15;
#X connect 0 0 120 0;
#X connect 1 0 0 1;
#X connect 2 0 4 0;
#X connect 2 0 5 0;
#X connect 2 0 111 0;
#X connect 4 0 3 1;
#X connect 5 0 3 2;
#X connect 6 0 121 0;
#X connect 7 0 6 1;
#X connect 8 0 122 0;
#X connect 9 0 8 1;
#X connect 10 0 123 0;
#X connect 11 0 10 1;
#X connect 12 0 124 0;
#X connect 13 0 12 1;
#X connect 14 0 125 0;
#X connect 15 0 14 1;
#X connect 16 0 126 0;
#X connect 17 0 16 1;
#X connect 18 0 127 0;
#X connect 19 0 18 1;
#X connect 20 0 136 0;
#X connect 21 0 20 1;
#X connect 22 0 137 0;
#X connect 23 0 22 1;
#X connect 24 0 138 0;
#X connect 25 0 24 1;
#X connect 26 0 139 0;
#X connect 27 0 26 1;
#X connect 28 0 140 0;
#X connect 29 0 28 1;
#X connect 30 0 141 0;
#X connect 31 0 30 1;
#X connect 32 0 142 0;
#X connect 33 0 32 1;
#X connect 34 0 143 0;
#X connect 35 0 34 1;
#X connect 36 0 152 0;
#X connect 37 0 36 1;
#X connect 38 0 153 0;
#X connect 39 0 38 1;
#X connect 40 0 154 0;
#X connect 41 0 40 1;
#X connect 42 0 155 0;
#X connect 43 0 42 1;
#X connect 44 0 156 0;
#X connect 45 0 44 1;
#X connect 46 0 157 0;
#X connect 47 0 46 1;
#X connect 48 0 158 0;
#X connect 49 0 48 1;
#X connect 50 0 159 0;
#X connect 51 0 50 1;
#X connect 52 0 168 0;
#X connect 53 0 52 1;
#X connect 54 0 169 0;
#X connect 55 0 54 1;
#X connect 56 0 170 0;
#X connect 57 0 56 1;
#X connect 58 0 171 0;
#X connect 59 0 58 1;
#X connect 60 0 172 0;
#X connect 61 0 60 1;
#X connect 62 0 173 0;
#X connect 63 0 62 1;
#X connect 64 0 174 0;
#X connect 65 0 64 1;
#X connect 66 0 175 0;
#X connect 67 0 66 1;
#X connect 68 0 37 0;
#X connect 69 0 39 0;
#X connect 70 0 41 0;
#X connect 71 0 43 0;
#X connect 72 0 45 0;
#X connect 73 0 47 0;
#X connect 74 0 49 0;
#X connect 75 0 51 0;
#X connect 76 0 53 0;
#X connect 77 0 55 0;
#X connect 78 0 57 0;
#X connect 79 0 59 0;
#X connect 80 0 61 0;
#X connect 81 0 63 0;
#X connect 82 0 65 0;
#X connect 83 0 67 0;
#X connect 84 0 108 0;
#X connect 84 0 109 0;
#X connect 84 0 110 0;
#X connect 85 0 105 0;
#X connect 85 0 106 0;
#X connect 85 0 107 0;
#X connect 86 0 84 1;
#X connect 87 0 85 1;
#X connect 88 0 87 0;
#X connect 89 0 68 0;
#X connect 90 0 69 0;
#X connect 91 0 70 0;
#X connect 92 0 71 0;
#X connect 93 0 72 0;
#X connect 94 0 73 0;
#X connect 95 0 74 0;
#X connect 96 0 75 0;
#X connect 97 0 76 0;
#X connect 98 0 77 0;
#X connect 99 0 78 0;
#X connect 100 0 79 0;
#X connect 101 0 80 0;
#X connect 102 0 81 0;
#X connect 103 0 82 0;
#X connect 104 0 83 0;
#X connect 105 0 3 0;
#X connect 106 0 3 1;
#X connect 107 0 3 2;
#X connect 108 0 3 0;
#X connect 109 0 3 1;
#X connect 110 0 3 2;
#X connect 111 0 3 0;
#X connect 112 0 1 0;
#X connect 113 0 7 0;
#X connect 114 0 9 0;
#X connect 115 0 11 0;
#X connect 116 0 13 0;
#X connect 117 0 15 0;
#X connect 118 0 17 0;
#X connect 119 0 19 0;
#X connect 128 0 21 0;
#X connect 129 0 23 0;
#X connect 130 0 25 0;
#X connect 131 0 27 0;
#X connect 132 0 29 0;
#X connect 133 0 31 0;
#X connect 134 0 33 0;
#X connect 135 0 35 0;
#X connect 144 0 68 0;
#X connect 145 0 69 0;
#X connect 146 0 70 0;
#X connect 147 0 71 0;
#X connect 148 0 72 0;
#X connect 149 0 73 0;
#X connect 150 0 74 0;
#X connect 151 0 75 0;
#X connect 160 0 76 0;
#X connect 161 0 77 0;
#X connect 162 0 78 0;
#X connect 163 0 79 0;
#X connect 164 0 80 0;
#X connect 165 0 81 0;
#X connect 166 0 82 0;
#X connect 167 0 83 0;
#X connect 176 0 84 0;
#X connect 177 0 85 0;
#X connect 178 0 86 0;
#X connect 179 0 88 0;
#X connect 180 0 183 0;
#X connect 181 0 184 0;
#X connect 182 0 183 1;
#X connect 183 0 181 0;
#X connect 184 0 186 0;
#X connect 184 1 196 0;
#X connect 184 2 201 0;
#X connect 184 3 191 0;
#X connect 184 4 195 0;
#X connect 184 5 200 0;
#X connect 184 6 190 0;
#X connect 184 7 194 0;
#X connect 184 8 199 0;
#X connect 184 9 189 0;
#X connect 184 10 193 0;
#X connect 184 11 198 0;
#X connect 184 12 188 0;
#X connect 184 13 192 0;
#X connect 184 14 197 0;
#X connect 184 15 187 0;
#X connect 185 0 182 0;
#X connect 202 0 0 0;
#X connect 203 0 6 0;
#X connect 204 0 8 0;
#X connect 205 0 10 0;
#X connect 206 0 12 0;
#X connect 207 0 14 0;
#X connect 208 0 16 0;
#X connect 209 0 18 0;
#X connect 210 0 20 0;
#X connect 211 0 22 0;
#X connect 212 0 24 0;
#X connect 213 0 26 0;
#X connect 214 0 28 0;
#X connect 215 0 30 0;
#X connect 216 0 32 0;
#X connect 217 0 34 0;
#X connect 218 0 36 0;
#X connect 219 0 38 0;
#X connect 220 0 40 0;
#X connect 221 0 42 0;
#X connect 222 0 44 0;
#X connect 223 0 46 0;
#X connect 224 0 48 0;
#X connect 225 0 50 0;
#X connect 226 0 52 0;
#X connect 227 0 54 0;
#X connect 228 0 56 0;
#X connect 229 0 58 0;
#X connect 230 0 60 0;
#X connect 231 0 62 0;
#X connect 232 0 64 0;
#X connect 233 0 66 0;
#X restore 357 130 pd sequencer;
#N canvas 44 22 1221 749 gui 1;
#X msg 22 78 18;
#X msg 58 78 0;
#X obj 58 56 del 200;
#X msg 130 78 18;
#X msg 166 78 0;
#X obj 166 56 del 200;
#X msg 236 78 18;
#X msg 272 78 0;
#X obj 272 56 del 200;
#X msg 344 78 18;
#X msg 380 78 0;
#X obj 380 56 del 200;
#X msg 485 78 0;
#X obj 485 56 del 200;
#X msg 557 78 18;
#X msg 593 78 0;
#X obj 593 56 del 200;
#X msg 663 78 18;
#X msg 699 78 0;
#X obj 699 56 del 200;
#X msg 771 78 18;
#X msg 807 78 0;
#X obj 807 56 del 200;
#X msg 449 78 18;
#X msg 23 270 18;
#X msg 59 270 0;
#X obj 59 248 del 200;
#X msg 131 270 18;
#X msg 167 270 0;
#X obj 167 248 del 200;
#X msg 237 270 18;
#X msg 273 270 0;
#X obj 273 248 del 200;
#X msg 345 270 18;
#X msg 381 270 0;
#X obj 381 248 del 200;
#X msg 486 270 0;
#X obj 486 248 del 200;
#X msg 558 270 18;
#X msg 594 270 0;
#X obj 594 248 del 200;
#X msg 664 270 18;
#X msg 700 270 0;
#X obj 700 248 del 200;
#X msg 772 270 18;
#X msg 808 270 0;
#X obj 808 248 del 200;
#X msg 450 265 18;
#X floatatom 20 427 5 0 0 0 - - -;
#X obj 20 501 del 10;
#X obj 20 601 del 10;
#X obj 21 702 del 10;
#X obj 20 447 sel 1 2 3 4 5 6 7 8 9 10 11 12 13 14 15;
#X obj 21 805 del 10;
#X obj 21 901 del 10;
#X obj 123 496 del 10;
#X obj 125 601 del 10;
#X obj 124 700 del 10;
#X obj 124 801 del 10;
#X obj 124 901 del 10;
#X obj 225 495 del 10;
#X msg 270 520 21;
#X obj 225 600 del 10;
#X obj 225 700 del 10;
#X obj 224 799 del 10;
#X obj 224 900 del 10;
#X obj 424 487 t b;
#X msg 469 512 0;
#X obj 942 38 loadbang;
#X msg 942 59 16;
#X msg 942 105 1;
#X obj 22 133 \$1;
#X obj 22 154 pack f f;
#X obj 22 112 t b;
#X msg 22 175 \; \$1-b0 color \$2;
#X msg 130 175 \; \$1-b1 color \$2;
#X msg 236 175 \; \$1-b2 color \$2;
#X msg 345 175 \; \$1-b3 color \$2;
#X msg 449 175 \; \$1-b4 color \$2;
#X msg 557 176 \; \$1-b5 color \$2;
#X msg 663 175 \; \$1-b6 color \$2;
#X msg 771 175 \; \$1-b7 color \$2;
#X msg 22 367 \; \$1-b8 color \$2;
#X msg 130 367 \; \$1-b9 color \$2;
#X msg 236 367 \; \$1-b10 color \$2;
#X msg 344 367 \; \$1-b11 color \$2;
#X msg 449 367 \; \$1-b12 color \$2;
#X msg 557 368 \; \$1-b13 color \$2;
#X msg 663 367 \; \$1-b14 color \$2;
#X msg 771 367 \; \$1-b15 color \$2;
#X obj 130 132 \$1;
#X obj 130 153 pack f f;
#X obj 130 111 t b;
#X obj 236 131 \$1;
#X obj 236 152 pack f f;
#X obj 236 110 t b;
#X obj 344 130 \$1;
#X obj 344 151 pack f f;
#X obj 344 109 t b;
#X obj 449 130 \$1;
#X obj 449 151 pack f f;
#X obj 449 109 t b;
#X obj 557 129 \$1;
#X obj 557 150 pack f f;
#X obj 557 108 t b;
#X obj 663 128 \$1;
#X obj 663 149 pack f f;
#X obj 663 107 t b;
#X obj 771 127 \$1;
#X obj 771 148 pack f f;
#X obj 771 106 t b;
#X obj 23 321 \$1;
#X obj 23 342 pack f f;
#X obj 23 300 t b;
#X obj 131 320 \$1;
#X obj 131 341 pack f f;
#X obj 131 299 t b;
#X obj 237 319 \$1;
#X obj 237 340 pack f f;
#X obj 237 298 t b;
#X obj 345 318 \$1;
#X obj 345 339 pack f f;
#X obj 345 297 t b;
#X obj 450 318 \$1;
#X obj 450 339 pack f f;
#X obj 450 297 t b;
#X obj 558 317 \$1;
#X obj 558 338 pack f f;
#X obj 558 296 t b;
#X obj 664 316 \$1;
#X obj 664 337 pack f f;
#X obj 664 295 t b;
#X obj 772 315 \$1;
#X obj 772 336 pack f f;
#X obj 772 294 t b;
#X obj 424 512 \$1;
#X obj 424 533 pack f f;
#X msg 424 579 \; \$1-b1 color \$2;
#X msg 526 579 \; \$1-b2 color \$2;
#X msg 631 579 \; \$1-b3 color \$2;
#X msg 737 579 \; \$1-b4 color \$2;
#X msg 423 620 \; \$1-b5 color \$2;
#X msg 525 621 \; \$1-b6 color \$2;
#X msg 631 622 \; \$1-b7 color \$2;
#X msg 736 622 \; \$1-b8 color \$2;
#X msg 424 664 \; \$1-b9 color \$2;
#X msg 525 663 \; \$1-b10 color \$2;
#X msg 631 663 \; \$1-b11 color \$2;
#X msg 736 663 \; \$1-b12 color \$2;
#X msg 426 706 \; \$1-b13 color \$2;
#X msg 534 707 \; \$1-b14 color \$2;
#X msg 645 706 \; \$1-b15 color \$2;
#X obj 225 519 \$1;
#X obj 225 540 pack f f;
#X msg 270 625 21;
#X obj 225 624 \$1;
#X obj 225 645 pack f f;
#X msg 270 723 21;
#X obj 225 722 \$1;
#X obj 225 743 pack f f;
#X msg 269 822 21;
#X obj 224 821 \$1;
#X obj 224 842 pack f f;
#X msg 269 923 21;
#X obj 224 922 \$1;
#X obj 224 943 pack f f;
#X msg 225 563 \; \$1-b11 color \$2;
#X msg 225 666 \; \$1-b12 color \$2;
#X msg 225 764 \; \$1-b13 color \$2;
#X msg 224 864 \; \$1-b14 color \$2;
#X msg 224 967 \; \$1-b15 color \$2;
#X msg 168 520 21;
#X obj 123 519 \$1;
#X obj 123 540 pack f f;
#X msg 123 563 \; \$1-b6 color \$2;
#X msg 170 624 21;
#X obj 125 623 \$1;
#X obj 125 644 pack f f;
#X msg 125 666 \; \$1-b7 color \$2;
#X msg 169 723 21;
#X obj 124 722 \$1;
#X obj 124 743 pack f f;
#X msg 124 765 \; \$1-b8 color \$2;
#X msg 169 823 21;
#X obj 124 822 \$1;
#X obj 124 843 pack f f;
#X msg 169 925 21;
#X obj 124 924 \$1;
#X obj 124 945 pack f f;
#X msg 124 865 \; \$1-b9 color \$2;
#X msg 123 967 \; \$1-b10 color \$2;
#X msg 65 522 21;
#X obj 20 521 \$1;
#X obj 20 542 pack f f;
#X msg 20 563 \; \$1-b1 color \$2;
#X msg 65 624 21;
#X obj 20 623 \$1;
#X obj 20 644 pack f f;
#X msg 66 723 21;
#X obj 21 722 \$1;
#X obj 21 743 pack f f;
#X msg 21 666 \; \$1-b2 color \$2;
#X msg 21 765 \; \$1-b3 color \$2;
#X msg 66 826 21;
#X obj 21 825 \$1;
#X obj 21 846 pack f f;
#X msg 66 924 21;
#X obj 21 923 \$1;
#X obj 21 944 pack f f;
#X msg 21 866 \; \$1-b4 color \$2;
#X msg 21 966 \; \$1-b5 color \$2;
#X obj 942 80 s \$1-setq;
#X obj 942 127 s \$1-setonoffbeat;
#X obj 21 405 r \$1-q;
#X obj 424 466 r \$1-q;
#X obj 885 220 loadbang;
#X obj 885 243 \$1;
#X obj 885 265 sel 36 38 40 46;
#X msg 885 288 \; 36-label label Out_1;
#X msg 906 325 \; 38-label label Out_2;
#X msg 928 362 \; 40-label label Gate_1;
#X msg 950 399 \; 46-label label Gate_2;
#X obj 22 25 r \$1-s0;
#X obj 130 25 r \$1-s1;
#X obj 236 25 r \$1-s2;
#X obj 344 25 r \$1-s3;
#X obj 449 25 r \$1-s4;
#X obj 557 25 r \$1-s5;
#X obj 663 25 r \$1-s6;
#X obj 771 25 r \$1-s7;
#X obj 23 217 r \$1-s8;
#X obj 131 217 r \$1-s9;
#X obj 237 217 r \$1-s10;
#X obj 345 217 r \$1-s11;
#X obj 450 217 r \$1-s12;
#X obj 558 217 r \$1-s13;
#X obj 664 217 r \$1-s14;
#X obj 772 217 r \$1-s15;
#X connect 0 0 72 1;
#X connect 1 0 72 1;
#X connect 2 0 1 0;
#X connect 2 0 73 0;
#X connect 3 0 91 1;
#X connect 4 0 91 1;
#X connect 5 0 4 0;
#X connect 5 0 92 0;
#X connect 6 0 94 1;
#X connect 7 0 94 1;
#X connect 8 0 7 0;
#X connect 8 0 95 0;
#X connect 9 0 97 1;
#X connect 10 0 97 1;
#X connect 11 0 10 0;
#X connect 11 0 98 0;
#X connect 12 0 100 1;
#X connect 13 0 12 0;
#X connect 13 0 101 0;
#X connect 14 0 103 1;
#X connect 15 0 103 1;
#X connect 16 0 15 0;
#X connect 16 0 104 0;
#X connect 17 0 106 1;
#X connect 18 0 106 1;
#X connect 19 0 18 0;
#X connect 19 0 107 0;
#X connect 20 0 109 1;
#X connect 21 0 109 1;
#X connect 22 0 21 0;
#X connect 22 0 110 0;
#X connect 23 0 100 1;
#X connect 24 0 112 1;
#X connect 25 0 112 1;
#X connect 26 0 25 0;
#X connect 26 0 113 0;
#X connect 27 0 115 1;
#X connect 28 0 115 1;
#X connect 29 0 28 0;
#X connect 29 0 116 0;
#X connect 30 0 118 1;
#X connect 31 0 118 1;
#X connect 32 0 31 0;
#X connect 32 0 119 0;
#X connect 33 0 121 1;
#X connect 34 0 121 1;
#X connect 35 0 34 0;
#X connect 35 0 122 0;
#X connect 36 0 124 1;
#X connect 37 0 36 0;
#X connect 37 0 125 0;
#X connect 38 0 127 1;
#X connect 39 0 127 1;
#X connect 40 0 39 0;
#X connect 40 0 128 0;
#X connect 41 0 130 1;
#X connect 42 0 130 1;
#X connect 43 0 42 0;
#X connect 43 0 131 0;
#X connect 44 0 133 1;
#X connect 45 0 133 1;
#X connect 46 0 45 0;
#X connect 46 0 134 0;
#X connect 47 0 124 1;
#X connect 48 0 52 0;
#X connect 49 0 192 0;
#X connect 49 0 191 0;
#X connect 50 0 196 0;
#X connect 50 0 195 0;
#X connect 51 0 199 0;
#X connect 51 0 198 0;
#X connect 52 0 49 0;
#X connect 52 0 50 0;
#X connect 52 0 51 0;
#X connect 52 0 53 0;
#X connect 52 0 54 0;
#X connect 52 0 55 0;
#X connect 52 0 56 0;
#X connect 52 0 57 0;
#X connect 52 0 58 0;
#X connect 52 0 59 0;
#X connect 52 0 60 0;
#X connect 52 0 62 0;
#X connect 52 0 64 0;
#X connect 52 0 63 0;
#X connect 52 0 65 0;
#X connect 52 1 50 0;
#X connect 52 1 51 0;
#X connect 52 1 53 0;
#X connect 52 1 54 0;
#X connect 52 1 55 0;
#X connect 52 1 56 0;
#X connect 52 1 57 0;
#X connect 52 1 58 0;
#X connect 52 1 59 0;
#X connect 52 1 60 0;
#X connect 52 1 62 0;
#X connect 52 1 63 0;
#X connect 52 1 64 0;
#X connect 52 1 65 0;
#X connect 52 2 51 0;
#X connect 52 2 53 0;
#X connect 52 2 54 0;
#X connect 52 2 55 0;
#X connect 52 2 56 0;
#X connect 52 2 57 0;
#X connect 52 2 58 0;
#X connect 52 2 59 0;
#X connect 52 2 60 0;
#X connect 52 2 62 0;
#X connect 52 2 63 0;
#X connect 52 2 64 0;
#X connect 52 2 65 0;
#X connect 52 3 53 0;
#X connect 52 3 54 0;
#X connect 52 3 55 0;
#X connect 52 3 56 0;
#X connect 52 3 57 0;
#X connect 52 3 58 0;
#X connect 52 3 59 0;
#X connect 52 3 60 0;
#X connect 52 3 62 0;
#X connect 52 3 63 0;
#X connect 52 3 64 0;
#X connect 52 3 65 0;
#X connect 52 4 54 0;
#X connect 52 4 55 0;
#X connect 52 4 56 0;
#X connect 52 4 57 0;
#X connect 52 4 58 0;
#X connect 52 4 59 0;
#X connect 52 4 60 0;
#X connect 52 4 62 0;
#X connect 52 4 63 0;
#X connect 52 4 64 0;
#X connect 52 4 65 0;
#X connect 52 5 55 0;
#X connect 52 5 56 0;
#X connect 52 5 57 0;
#X connect 52 5 58 0;
#X connect 52 5 59 0;
#X connect 52 5 60 0;
#X connect 52 5 62 0;
#X connect 52 5 63 0;
#X connect 52 5 64 0;
#X connect 52 5 65 0;
#X connect 52 6 56 0;
#X connect 52 6 57 0;
#X connect 52 6 58 0;
#X connect 52 6 59 0;
#X connect 52 6 60 0;
#X connect 52 6 62 0;
#X connect 52 6 63 0;
#X connect 52 6 64 0;
#X connect 52 6 65 0;
#X connect 52 7 57 0;
#X connect 52 7 58 0;
#X connect 52 7 59 0;
#X connect 52 7 60 0;
#X connect 52 7 62 0;
#X connect 52 7 63 0;
#X connect 52 7 64 0;
#X connect 52 7 65 0;
#X connect 52 8 58 0;
#X connect 52 8 59 0;
#X connect 52 8 60 0;
#X connect 52 8 62 0;
#X connect 52 8 63 0;
#X connect 52 8 64 0;
#X connect 52 8 65 0;
#X connect 52 9 59 0;
#X connect 52 9 60 0;
#X connect 52 9 62 0;
#X connect 52 9 63 0;
#X connect 52 9 64 0;
#X connect 52 9 65 0;
#X connect 52 10 60 0;
#X connect 52 10 62 0;
#X connect 52 10 63 0;
#X connect 52 10 64 0;
#X connect 52 10 65 0;
#X connect 52 11 62 0;
#X connect 52 11 63 0;
#X connect 52 11 64 0;
#X connect 52 11 65 0;
#X connect 52 12 63 0;
#X connect 52 12 64 0;
#X connect 52 12 65 0;
#X connect 52 13 64 0;
#X connect 52 13 65 0;
#X connect 52 14 65 0;
#X connect 53 0 204 0;
#X connect 53 0 203 0;
#X connect 54 0 207 0;
#X connect 54 0 206 0;
#X connect 55 0 172 0;
#X connect 55 0 171 0;
#X connect 56 0 176 0;
#X connect 56 0 175 0;
#X connect 57 0 180 0;
#X connect 57 0 179 0;
#X connect 58 0 184 0;
#X connect 58 0 183 0;
#X connect 59 0 187 0;
#X connect 59 0 186 0;
#X connect 60 0 152 0;
#X connect 60 0 61 0;
#X connect 61 0 153 1;
#X connect 62 0 155 0;
#X connect 62 0 154 0;
#X connect 63 0 158 0;
#X connect 63 0 157 0;
#X connect 64 0 161 0;
#X connect 64 0 160 0;
#X connect 65 0 164 0;
#X connect 65 0 163 0;
#X connect 66 0 67 0;
#X connect 66 0 135 0;
#X connect 67 0 136 1;
#X connect 68 0 69 0;
#X connect 68 0 70 0;
#X connect 69 0 211 0;
#X connect 70 0 212 0;
#X connect 71 0 72 0;
#X connect 72 0 74 0;
#X connect 73 0 71 0;
#X connect 90 0 91 0;
#X connect 91 0 75 0;
#X connect 92 0 90 0;
#X connect 93 0 94 0;
#X connect 94 0 76 0;
#X connect 95 0 93 0;
#X connect 96 0 97 0;
#X connect 97 0 77 0;
#X connect 98 0 96 0;
#X connect 99 0 100 0;
#X connect 100 0 78 0;
#X connect 101 0 99 0;
#X connect 102 0 103 0;
#X connect 103 0 79 0;
#X connect 104 0 102 0;
#X connect 105 0 106 0;
#X connect 106 0 80 0;
#X connect 107 0 105 0;
#X connect 108 0 109 0;
#X connect 109 0 81 0;
#X connect 110 0 108 0;
#X connect 111 0 112 0;
#X connect 112 0 82 0;
#X connect 113 0 111 0;
#X connect 114 0 115 0;
#X connect 115 0 83 0;
#X connect 116 0 114 0;
#X connect 117 0 118 0;
#X connect 118 0 84 0;
#X connect 119 0 117 0;
#X connect 120 0 121 0;
#X connect 121 0 85 0;
#X connect 122 0 120 0;
#X connect 123 0 124 0;
#X connect 124 0 86 0;
#X connect 125 0 123 0;
#X connect 126 0 127 0;
#X connect 127 0 87 0;
#X connect 128 0 126 0;
#X connect 129 0 130 0;
#X connect 130 0 88 0;
#X connect 131 0 129 0;
#X connect 132 0 133 0;
#X connect 133 0 89 0;
#X connect 134 0 132 0;
#X connect 135 0 136 0;
#X connect 136 0 137 0;
#X connect 136 0 138 0;
#X connect 136 0 139 0;
#X connect 136 0 140 0;
#X connect 136 0 141 0;
#X connect 136 0 142 0;
#X connect 136 0 143 0;
#X connect 136 0 144 0;
#X connect 136 0 145 0;
#X connect 136 0 146 0;
#X connect 136 0 147 0;
#X connect 136 0 148 0;
#X connect 136 0 149 0;
#X connect 136 0 150 0;
#X connect 136 0 151 0;
#X connect 152 0 153 0;
#X connect 153 0 166 0;
#X connect 154 0 156 1;
#X connect 155 0 156 0;
#X connect 156 0 167 0;
#X connect 157 0 159 1;
#X connect 158 0 159 0;
#X connect 159 0 168 0;
#X connect 160 0 162 1;
#X connect 161 0 162 0;
#X connect 162 0 169 0;
#X connect 163 0 165 1;
#X connect 164 0 165 0;
#X connect 165 0 170 0;
#X connect 171 0 173 1;
#X connect 172 0 173 0;
#X connect 173 0 174 0;
#X connect 175 0 177 1;
#X connect 176 0 177 0;
#X connect 177 0 178 0;
#X connect 179 0 181 1;
#X connect 180 0 181 0;
#X connect 181 0 182 0;
#X connect 183 0 185 1;
#X connect 184 0 185 0;
#X connect 185 0 189 0;
#X connect 186 0 188 1;
#X connect 187 0 188 0;
#X connect 188 0 190 0;
#X connect 191 0 193 1;
#X connect 192 0 193 0;
#X connect 193 0 194 0;
#X connect 195 0 197 1;
#X connect 196 0 197 0;
#X connect 197 0 201 0;
#X connect 198 0 200 1;
#X connect 199 0 200 0;
#X connect 200 0 202 0;
#X connect 203 0 205 1;
#X connect 204 0 205 0;
#X connect 205 0 209 0;
#X connect 206 0 208 1;
#X connect 207 0 208 0;
#X connect 208 0 210 0;
#X connect 213 0 48 0;
#X connect 214 0 66 0;
#X connect 215 0 216 0;
#X connect 216 0 217 0;
#X connect 217 0 218 0;
#X connect 217 1 219 0;
#X connect 217 2 220 0;
#X connect 217 3 221 0;
#X connect 222 0 0 0;
#X connect 222 0 2 0;
#X connect 222 0 73 0;
#X connect 223 0 3 0;
#X connect 223 0 5 0;
#X connect 223 0 92 0;
#X connect 224 0 6 0;
#X connect 224 0 8 0;
#X connect 224 0 95 0;
#X connect 225 0 9 0;
#X connect 225 0 11 0;
#X connect 225 0 98 0;
#X connect 226 0 13 0;
#X connect 226 0 23 0;
#X connect 226 0 101 0;
#X connect 227 0 14 0;
#X connect 227 0 16 0;
#X connect 227 0 104 0;
#X connect 228 0 17 0;
#X connect 228 0 19 0;
#X connect 228 0 107 0;
#X connect 229 0 20 0;
#X connect 229 0 22 0;
#X connect 229 0 110 0;
#X connect 230 0 24 0;
#X connect 230 0 26 0;
#X connect 230 0 113 0;
#X connect 231 0 27 0;
#X connect 231 0 29 0;
#X connect 231 0 116 0;
#X connect 232 0 30 0;
#X connect 232 0 32 0;
#X connect 232 0 119 0;
#X connect 233 0 33 0;
#X connect 233 0 35 0;
#X connect 233 0 122 0;
#X connect 234 0 37 0;
#X connect 234 0 47 0;
#X connect 234 0 125 0;
#X connect 235 0 38 0;
#X connect 235 0 40 0;
#X connect 235 0 128 0;
#X connect 236 0 41 0;
#X connect 236 0 43 0;
#X connect 236 0 131 0;
#X connect 237 0 44 0;
#X connect 237 0 46 0;
#X connect 237 0 134 0;
#X restore 355 161 pd gui;
#X obj 101 101 cnv 15 240 240 empty \$1-label Out_1 5 10 0 14 -146617
-66577 0;
#X floatatom 227 193 3 1 16 0 Steps: #1-setq #1-q;
#X floatatom 227 213 3 0 16 0 Beats: #1-setp #1-p;
#X obj 210 313 tgl 20 0 \$1-b8out \$1-b8 empty 17 7 0 10 -262144 -1
-262144 0 1;
#X obj 281 283 tgl 20 0 \$1-b6out \$1-b6 empty 17 7 0 10 -262144 -1
-262144 0 1;
#X obj 139 283 tgl 20 0 \$1-b10out \$1-b10 empty 17 7 0 10 -262144
-1 -262144 0 1;
#X obj 139 141 tgl 20 0 \$1-b14out \$1-b14 empty 17 7 0 10 -262144
-1 -262144 0 1;
#X obj 311 212 tgl 20 0 \$1-b4out \$1-b4 empty 17 7 0 10 -262144 -1
-262144 0 1;
#X obj 210 111 tgl 20 0 \$1-b0out \$1-b0 empty 17 7 0 10 -262144 -1
-262144 0 1;
#X obj 109 212 tgl 20 0 \$1-b12out \$1-b12 empty 17 7 0 10 -262144
-1 -262144 0 1;
#X obj 281 141 tgl 20 0 \$1-b2out \$1-b2 empty 17 7 0 10 -262144 -1
-262144 0 1;
#X obj 246 121 tgl 20 0 \$1-b1out \$1-b1 empty 17 7 0 10 -262144 -1
-262144 0 1;
#X obj 301 176 tgl 20 0 \$1-b3out \$1-b3 empty 17 7 0 10 -262144 -1
-262144 0 1;
#X obj 301 248 tgl 20 0 \$1-b5out \$1-b5 empty 17 7 0 10 -262144 -1
-262144 0 1;
#X obj 246 303 tgl 20 0 \$1-b7out \$1-b7 empty 17 7 0 10 -262144 -1
-262144 0 1;
#X obj 174 303 tgl 20 0 \$1-b9out \$1-b9 empty 17 7 0 10 -262144 -1
-262144 0 1;
#X obj 119 248 tgl 20 0 \$1-b11out \$1-b11 empty 17 7 0 10 -262144
-1 -262144 0 1;
#X obj 119 176 tgl 20 0 \$1-b13out \$1-b13 empty 17 7 0 10 -262144
-1 -262144 0 1;
#X obj 174 121 tgl 20 0 \$1-b15out \$1-b15 empty 17 7 0 10 -262144
-1 -262144 0 1;
#X obj 324 324 tgl 15 0 \$1-onoffbeat \$1-setonoffbeat On/Off_Beat:
-76 8 0 10 -262144 -1 -1 1 1;
#X floatatom 227 233 3 0 0 0 Rotate: #1-setstartpos #1-startpos;
#X coords 0 -1 1 1 242 242 1 100 100;
