#N canvas 484 655 631 691 10;
#N canvas 10 22 1373 1333 maths 0;
#X floatatom 100 62 5 0 0 0 - - -;
#X floatatom 143 62 5 0 0 0 - - -;
#X obj 100 96 /;
#X obj 100 323 * 1;
#X obj 176 323 * 2;
#X obj 250 322 * 3;
#X obj 326 321 * 4;
#X obj 403 322 * 5;
#X obj 477 321 * 6;
#X obj 549 321 * 7;
#X obj 100 344 + 0.5;
#X obj 100 366 i;
#X floatatom 100 387 5 0 0 0 - - -;
#X obj 176 344 + 0.5;
#X obj 176 366 i;
#X floatatom 176 387 5 0 0 0 - - -;
#X obj 250 343 + 0.5;
#X obj 250 365 i;
#X floatatom 250 386 5 0 0 0 - - -;
#X obj 326 342 + 0.5;
#X obj 326 364 i;
#X floatatom 326 385 5 0 0 0 - - -;
#X obj 403 342 + 0.5;
#X obj 403 364 i;
#X floatatom 403 385 5 0 0 0 - - -;
#X obj 477 341 + 0.5;
#X obj 477 363 i;
#X floatatom 477 384 5 0 0 0 - - -;
#X obj 549 341 + 0.5;
#X obj 549 363 i;
#X floatatom 549 384 5 0 0 0 - - -;
#X obj 15 192 t b;
#X floatatom 48 192 5 0 0 0 - - -;
#X obj 15 212 spigot;
#X obj 726 15 t b;
#X msg 726 36 0;
#X obj 116 33 t b;
#X obj 621 342 + 0.5;
#X obj 621 364 i;
#X floatatom 621 385 5 0 0 0 - - -;
#X obj 697 343 + 0.5;
#X obj 697 365 i;
#X floatatom 697 386 5 0 0 0 - - -;
#X obj 773 343 + 0.5;
#X obj 773 365 i;
#X floatatom 773 386 5 0 0 0 - - -;
#X obj 847 342 + 0.5;
#X obj 847 364 i;
#X floatatom 847 385 5 0 0 0 - - -;
#X obj 923 342 + 0.5;
#X obj 923 364 i;
#X floatatom 923 385 5 0 0 0 - - -;
#X obj 1000 341 + 0.5;
#X obj 1000 363 i;
#X floatatom 1000 384 5 0 0 0 - - -;
#X obj 1074 341 + 0.5;
#X obj 1074 363 i;
#X floatatom 1074 384 5 0 0 0 - - -;
#X obj 1153 340 + 0.5;
#X obj 1153 362 i;
#X floatatom 1153 383 5 0 0 0 - - -;
#X obj 621 321 * 8;
#X obj 697 322 * 9;
#X obj 773 322 * 10;
#X obj 847 321 * 11;
#X obj 923 322 * 12;
#X obj 1000 321 * 13;
#X obj 1074 321 * 14;
#X obj 1153 320 * 15;
#X obj 100 440 sel 1 2 3 4 5 6 7 8 9 10 11 12 13 14 15;
#X floatatom 133 220 5 0 0 0 - - -;
#X floatatom 133 282 5 0 0 0 - - -;
#X obj 100 302 spigot;
#X floatatom 209 220 5 0 0 0 - - -;
#X floatatom 209 282 5 0 0 0 - - -;
#X obj 176 302 spigot;
#X floatatom 283 219 5 0 0 0 - - -;
#X floatatom 283 281 5 0 0 0 - - -;
#X obj 250 301 spigot;
#X floatatom 359 218 5 0 0 0 - - -;
#X floatatom 359 280 5 0 0 0 - - -;
#X obj 326 300 spigot;
#X floatatom 436 218 5 0 0 0 - - -;
#X floatatom 436 280 5 0 0 0 - - -;
#X obj 403 300 spigot;
#X floatatom 510 218 5 0 0 0 - - -;
#X floatatom 510 280 5 0 0 0 - - -;
#X obj 477 300 spigot;
#X floatatom 582 219 5 0 0 0 - - -;
#X floatatom 582 281 5 0 0 0 - - -;
#X obj 549 301 spigot;
#X floatatom 654 219 5 0 0 0 - - -;
#X floatatom 654 281 5 0 0 0 - - -;
#X obj 621 301 spigot;
#X floatatom 730 218 5 0 0 0 - - -;
#X floatatom 730 280 5 0 0 0 - - -;
#X obj 697 300 spigot;
#X floatatom 806 218 5 0 0 0 - - -;
#X floatatom 806 280 5 0 0 0 - - -;
#X obj 773 300 spigot;
#X floatatom 880 217 5 0 0 0 - - -;
#X floatatom 880 279 5 0 0 0 - - -;
#X obj 847 299 spigot;
#X floatatom 956 216 5 0 0 0 - - -;
#X floatatom 956 278 5 0 0 0 - - -;
#X obj 923 298 spigot;
#X floatatom 1033 216 5 0 0 0 - - -;
#X floatatom 1033 278 5 0 0 0 - - -;
#X obj 1000 298 spigot;
#X floatatom 1107 216 5 0 0 0 - - -;
#X floatatom 1107 278 5 0 0 0 - - -;
#X obj 1074 298 spigot;
#X floatatom 1186 217 5 0 0 0 - - -;
#X floatatom 1186 279 5 0 0 0 - - -;
#X obj 1153 299 spigot;
#X msg 133 260 0;
#X msg 172 260 1;
#X msg 209 260 0;
#X msg 248 260 1;
#X msg 283 259 0;
#X msg 322 259 1;
#X msg 359 258 0;
#X msg 398 258 1;
#X msg 436 258 0;
#X msg 475 258 1;
#X msg 510 258 0;
#X msg 549 258 1;
#X msg 582 259 0;
#X msg 621 259 1;
#X msg 654 259 0;
#X msg 693 258 1;
#X msg 730 258 0;
#X msg 769 258 1;
#X msg 806 258 0;
#X msg 851 258 1;
#X msg 880 257 0;
#X msg 925 257 1;
#X msg 956 256 0;
#X msg 1001 256 1;
#X msg 1033 256 0;
#X msg 1078 256 1;
#X msg 1107 256 0;
#X msg 1152 256 1;
#X msg 1186 257 0;
#X msg 1231 257 1;
#X obj 133 240 moses 2;
#X obj 209 240 moses 3;
#X obj 283 239 moses 4;
#X obj 359 238 moses 5;
#X obj 436 238 moses 6;
#X obj 510 238 moses 7;
#X obj 582 239 moses 8;
#X obj 654 239 moses 9;
#X obj 730 238 moses 10;
#X obj 806 238 moses 11;
#X obj 880 237 moses 12;
#X obj 956 236 moses 13;
#X obj 1032 236 moses 14;
#X obj 1107 236 moses 15;
#X obj 1186 237 moses 16;
#X msg 100 465 1;
#X obj 100 532 +;
#X floatatom 115 510 5 0 0 0 - - -;
#X floatatom 100 577 5 0 0 0 - - -;
#X obj 100 556 mod 16;
#X msg 114 1063 1;
#X obj 114 1043 del 5;
#X msg 129 1128 1;
#X obj 129 1108 del 5;
#X msg 144 1195 1;
#X obj 144 1175 del 5;
#X msg 159 1063 1;
#X obj 159 1043 del 5;
#X msg 174 1129 1;
#X obj 174 1109 del 5;
#X msg 190 1196 1;
#X obj 190 1176 del 5;
#X msg 205 1064 1;
#X obj 205 1044 del 5;
#X msg 220 1130 1;
#X obj 220 1110 del 5;
#X msg 235 1197 1;
#X obj 235 1177 del 5;
#X msg 250 1065 1;
#X obj 250 1045 del 5;
#X msg 266 1131 1;
#X obj 266 1111 del 5;
#X msg 281 1198 1;
#X obj 281 1178 del 5;
#X msg 296 1066 1;
#X obj 296 1046 del 5;
#X msg 311 1132 1;
#X obj 311 1112 del 5;
#X msg 326 1199 1;
#X obj 326 1179 del 5;
#X obj 99 1017 sel 0 1 2 3 4 5 6 7 8 9 10 11 12 13 14 15;
#X obj 113 667 +;
#X floatatom 128 645 5 0 0 0 - - -;
#X floatatom 113 710 5 0 0 0 - - -;
#X obj 113 689 mod 16;
#X obj 129 800 +;
#X floatatom 144 778 5 0 0 0 - - -;
#X floatatom 129 843 5 0 0 0 - - -;
#X obj 129 822 mod 16;
#X obj 144 933 +;
#X floatatom 159 911 5 0 0 0 - - -;
#X floatatom 144 976 5 0 0 0 - - -;
#X obj 144 955 mod 16;
#X obj 161 532 +;
#X floatatom 176 510 5 0 0 0 - - -;
#X floatatom 161 577 5 0 0 0 - - -;
#X obj 162 556 mod 16;
#X obj 176 667 +;
#X floatatom 191 645 5 0 0 0 - - -;
#X floatatom 176 710 5 0 0 0 - - -;
#X obj 176 689 mod 16;
#X obj 191 800 +;
#X floatatom 206 778 5 0 0 0 - - -;
#X floatatom 191 843 5 0 0 0 - - -;
#X obj 191 822 mod 16;
#X obj 206 933 +;
#X floatatom 221 911 5 0 0 0 - - -;
#X floatatom 206 976 5 0 0 0 - - -;
#X obj 206 955 mod 16;
#X obj 223 532 +;
#X floatatom 238 510 5 0 0 0 - - -;
#X floatatom 223 577 5 0 0 0 - - -;
#X obj 223 556 mod 16;
#X obj 236 667 +;
#X floatatom 251 645 5 0 0 0 - - -;
#X floatatom 236 710 5 0 0 0 - - -;
#X obj 236 689 mod 16;
#X obj 252 800 +;
#X floatatom 267 778 5 0 0 0 - - -;
#X floatatom 252 843 5 0 0 0 - - -;
#X obj 252 822 mod 16;
#X obj 267 933 +;
#X floatatom 282 911 5 0 0 0 - - -;
#X floatatom 267 976 5 0 0 0 - - -;
#X obj 267 955 mod 16;
#X obj 284 532 +;
#X floatatom 299 510 5 0 0 0 - - -;
#X floatatom 284 577 5 0 0 0 - - -;
#X obj 284 556 mod 16;
#X obj 299 667 +;
#X floatatom 314 645 5 0 0 0 - - -;
#X floatatom 299 710 5 0 0 0 - - -;
#X obj 299 689 mod 16;
#X obj 314 800 +;
#X floatatom 329 778 5 0 0 0 - - -;
#X floatatom 314 843 5 0 0 0 - - -;
#X obj 314 822 mod 16;
#X msg 114 599 2;
#X msg 129 734 3;
#X msg 144 865 4;
#X msg 161 465 5;
#X msg 177 599 6;
#X msg 191 734 7;
#X msg 206 865 8;
#X msg 223 465 9;
#X msg 237 599 10;
#X msg 252 734 11;
#X msg 267 865 12;
#X msg 284 465 13;
#X msg 300 599 14;
#X msg 314 734 15;
#X msg 71 1064 1;
#X obj 71 1043 del 5;
#X obj 17 533 +;
#X floatatom 32 511 5 0 0 0 - - -;
#X floatatom 17 576 5 0 0 0 - - -;
#X obj 17 555 mod 16;
#X msg 17 466 0;
#X obj 60 32 r \$1-q;
#X obj 143 35 r \$1-p;
#X obj 116 10 r \$1-startpos;
#X obj 133 199 r \$1-p;
#X obj 209 199 r \$1-p;
#X obj 283 198 r \$1-p;
#X obj 359 197 r \$1-p;
#X obj 436 197 r \$1-p;
#X obj 510 197 r \$1-p;
#X obj 582 198 r \$1-p;
#X obj 656 198 r \$1-p;
#X obj 730 197 r \$1-p;
#X obj 806 197 r \$1-p;
#X obj 880 196 r \$1-p;
#X obj 956 195 r \$1-p;
#X obj 1033 195 r \$1-p;
#X obj 1107 195 r \$1-p;
#X obj 1186 196 r \$1-p;
#X obj 32 488 r \$1-startpos;
#X obj 107 487 r \$1-startpos;
#X obj 299 487 r \$1-startpos;
#X obj 238 487 r \$1-startpos;
#X obj 176 487 r \$1-startpos;
#X obj 50 533 r \$1-q;
#X obj 132 535 r \$1-q;
#X obj 193 535 r \$1-q;
#X obj 256 535 r \$1-q;
#X obj 317 534 r \$1-q;
#X obj 315 621 r \$1-startpos;
#X obj 252 621 r \$1-startpos;
#X obj 192 621 r \$1-startpos;
#X obj 129 621 r \$1-startpos;
#X obj 146 668 r \$1-q;
#X obj 207 668 r \$1-q;
#X obj 270 668 r \$1-q;
#X obj 331 667 r \$1-q;
#X obj 329 756 r \$1-startpos;
#X obj 267 756 r \$1-startpos;
#X obj 206 756 r \$1-startpos;
#X obj 144 756 r \$1-startpos;
#X obj 161 801 r \$1-q;
#X obj 222 801 r \$1-q;
#X obj 285 801 r \$1-q;
#X obj 345 800 r \$1-q;
#X obj 282 887 r \$1-startpos;
#X obj 221 887 r \$1-startpos;
#X obj 159 887 r \$1-startpos;
#X obj 176 934 r \$1-q;
#X obj 237 934 r \$1-q;
#X obj 300 934 r \$1-q;
#X obj 71 1086 s \$1-b0;
#X obj 114 1084 s \$1-b1;
#X obj 296 1087 s \$1-b13;
#X obj 250 1086 s \$1-b10;
#X obj 205 1085 s \$1-b7;
#X obj 159 1084 s \$1-b4;
#X obj 311 1153 s \$1-b14;
#X obj 266 1152 s \$1-b11;
#X obj 220 1151 s \$1-b8;
#X obj 174 1150 s \$1-b5;
#X obj 129 1149 s \$1-b2;
#X obj 326 1220 s \$1-b15;
#X obj 281 1219 s \$1-b12;
#X obj 235 1218 s \$1-b9;
#X obj 190 1217 s \$1-b6;
#X obj 144 1216 s \$1-b3;
#X obj 726 57 s \$1-b0;
#X obj 774 56 s \$1-b1;
#X obj 826 56 s \$1-b2;
#X obj 887 59 s \$1-b3;
#X obj 887 82 s \$1-b7;
#X obj 826 79 s \$1-b6;
#X obj 774 79 s \$1-b5;
#X obj 726 80 s \$1-b4;
#X obj 726 103 s \$1-b8;
#X obj 775 102 s \$1-b9;
#X obj 826 102 s \$1-b10;
#X obj 887 105 s \$1-b11;
#X obj 899 127 s \$1-b15;
#X obj 834 124 s \$1-b14;
#X obj 777 124 s \$1-b13;
#X obj 726 125 s \$1-b12;
#X connect 0 0 2 0;
#X connect 1 0 2 1;
#X connect 1 0 36 0;
#X connect 2 0 32 0;
#X connect 2 0 34 0;
#X connect 2 0 72 0;
#X connect 2 0 75 0;
#X connect 2 0 78 0;
#X connect 2 0 81 0;
#X connect 2 0 84 0;
#X connect 2 0 87 0;
#X connect 2 0 90 0;
#X connect 2 0 93 0;
#X connect 2 0 96 0;
#X connect 2 0 99 0;
#X connect 2 0 102 0;
#X connect 2 0 105 0;
#X connect 2 0 108 0;
#X connect 2 0 111 0;
#X connect 2 0 114 0;
#X connect 3 0 10 0;
#X connect 4 0 13 0;
#X connect 5 0 16 0;
#X connect 6 0 19 0;
#X connect 7 0 22 0;
#X connect 8 0 25 0;
#X connect 9 0 28 0;
#X connect 10 0 11 0;
#X connect 11 0 12 0;
#X connect 12 0 69 0;
#X connect 13 0 14 0;
#X connect 14 0 15 0;
#X connect 15 0 69 0;
#X connect 16 0 17 0;
#X connect 17 0 18 0;
#X connect 18 0 69 0;
#X connect 19 0 20 0;
#X connect 20 0 21 0;
#X connect 21 0 69 0;
#X connect 22 0 23 0;
#X connect 23 0 24 0;
#X connect 24 0 69 0;
#X connect 25 0 26 0;
#X connect 26 0 27 0;
#X connect 27 0 69 0;
#X connect 28 0 29 0;
#X connect 29 0 30 0;
#X connect 30 0 69 0;
#X connect 31 0 33 0;
#X connect 32 0 33 1;
#X connect 32 0 31 0;
#X connect 33 0 272 0;
#X connect 34 0 35 0;
#X connect 35 0 339 0;
#X connect 35 0 340 0;
#X connect 35 0 341 0;
#X connect 35 0 342 0;
#X connect 35 0 343 0;
#X connect 35 0 344 0;
#X connect 35 0 345 0;
#X connect 35 0 346 0;
#X connect 35 0 347 0;
#X connect 35 0 348 0;
#X connect 35 0 349 0;
#X connect 35 0 350 0;
#X connect 35 0 351 0;
#X connect 35 0 352 0;
#X connect 35 0 353 0;
#X connect 35 0 354 0;
#X connect 36 0 0 0;
#X connect 37 0 38 0;
#X connect 38 0 39 0;
#X connect 39 0 69 0;
#X connect 40 0 41 0;
#X connect 41 0 42 0;
#X connect 42 0 69 0;
#X connect 43 0 44 0;
#X connect 44 0 45 0;
#X connect 45 0 69 0;
#X connect 46 0 47 0;
#X connect 47 0 48 0;
#X connect 48 0 69 0;
#X connect 49 0 50 0;
#X connect 50 0 51 0;
#X connect 51 0 69 0;
#X connect 52 0 53 0;
#X connect 53 0 54 0;
#X connect 54 0 69 0;
#X connect 55 0 56 0;
#X connect 56 0 57 0;
#X connect 57 0 69 0;
#X connect 58 0 59 0;
#X connect 59 0 60 0;
#X connect 60 0 69 0;
#X connect 61 0 37 0;
#X connect 62 0 40 0;
#X connect 63 0 43 0;
#X connect 64 0 46 0;
#X connect 65 0 49 0;
#X connect 66 0 52 0;
#X connect 67 0 55 0;
#X connect 68 0 58 0;
#X connect 69 0 160 0;
#X connect 69 1 252 0;
#X connect 69 2 253 0;
#X connect 69 3 254 0;
#X connect 69 4 255 0;
#X connect 69 5 256 0;
#X connect 69 6 257 0;
#X connect 69 7 258 0;
#X connect 69 8 259 0;
#X connect 69 9 260 0;
#X connect 69 10 261 0;
#X connect 69 11 262 0;
#X connect 69 12 263 0;
#X connect 69 13 264 0;
#X connect 69 14 265 0;
#X connect 70 0 145 0;
#X connect 71 0 72 1;
#X connect 72 0 3 0;
#X connect 73 0 146 0;
#X connect 74 0 75 1;
#X connect 75 0 4 0;
#X connect 76 0 147 0;
#X connect 77 0 78 1;
#X connect 78 0 5 0;
#X connect 79 0 148 0;
#X connect 80 0 81 1;
#X connect 81 0 6 0;
#X connect 82 0 149 0;
#X connect 83 0 84 1;
#X connect 84 0 7 0;
#X connect 85 0 150 0;
#X connect 86 0 87 1;
#X connect 87 0 8 0;
#X connect 88 0 151 0;
#X connect 89 0 90 1;
#X connect 90 0 9 0;
#X connect 91 0 152 0;
#X connect 92 0 93 1;
#X connect 93 0 61 0;
#X connect 94 0 153 0;
#X connect 95 0 96 1;
#X connect 96 0 62 0;
#X connect 97 0 154 0;
#X connect 98 0 99 1;
#X connect 99 0 63 0;
#X connect 100 0 155 0;
#X connect 101 0 102 1;
#X connect 102 0 64 0;
#X connect 103 0 156 0;
#X connect 104 0 105 1;
#X connect 105 0 65 0;
#X connect 106 0 157 0;
#X connect 107 0 108 1;
#X connect 108 0 66 0;
#X connect 109 0 158 0;
#X connect 110 0 111 1;
#X connect 111 0 67 0;
#X connect 112 0 159 0;
#X connect 113 0 114 1;
#X connect 114 0 68 0;
#X connect 115 0 71 0;
#X connect 116 0 71 0;
#X connect 117 0 74 0;
#X connect 118 0 74 0;
#X connect 119 0 77 0;
#X connect 120 0 77 0;
#X connect 121 0 80 0;
#X connect 122 0 80 0;
#X connect 123 0 83 0;
#X connect 124 0 83 0;
#X connect 125 0 86 0;
#X connect 126 0 86 0;
#X connect 127 0 89 0;
#X connect 128 0 89 0;
#X connect 129 0 92 0;
#X connect 130 0 92 0;
#X connect 131 0 95 0;
#X connect 132 0 95 0;
#X connect 133 0 98 0;
#X connect 134 0 98 0;
#X connect 135 0 101 0;
#X connect 136 0 101 0;
#X connect 137 0 104 0;
#X connect 138 0 104 0;
#X connect 139 0 107 0;
#X connect 140 0 107 0;
#X connect 141 0 110 0;
#X connect 142 0 110 0;
#X connect 143 0 113 0;
#X connect 144 0 113 0;
#X connect 145 0 115 0;
#X connect 145 1 116 0;
#X connect 146 0 117 0;
#X connect 146 1 118 0;
#X connect 147 0 119 0;
#X connect 147 1 120 0;
#X connect 148 0 121 0;
#X connect 148 1 122 0;
#X connect 149 0 123 0;
#X connect 149 1 124 0;
#X connect 150 0 125 0;
#X connect 150 1 126 0;
#X connect 151 0 127 0;
#X connect 151 1 128 0;
#X connect 152 0 129 0;
#X connect 152 1 130 0;
#X connect 153 0 131 0;
#X connect 153 1 132 0;
#X connect 154 0 133 0;
#X connect 154 1 134 0;
#X connect 155 0 135 0;
#X connect 155 1 136 0;
#X connect 156 0 137 0;
#X connect 156 1 138 0;
#X connect 157 0 139 0;
#X connect 157 1 140 0;
#X connect 158 0 141 0;
#X connect 158 1 142 0;
#X connect 159 0 143 0;
#X connect 159 1 144 0;
#X connect 160 0 161 0;
#X connect 161 0 164 0;
#X connect 162 0 161 1;
#X connect 163 0 195 0;
#X connect 164 0 163 0;
#X connect 165 0 324 0;
#X connect 166 0 165 0;
#X connect 167 0 333 0;
#X connect 168 0 167 0;
#X connect 169 0 338 0;
#X connect 170 0 169 0;
#X connect 171 0 328 0;
#X connect 172 0 171 0;
#X connect 173 0 332 0;
#X connect 174 0 173 0;
#X connect 175 0 337 0;
#X connect 176 0 175 0;
#X connect 177 0 327 0;
#X connect 178 0 177 0;
#X connect 179 0 331 0;
#X connect 180 0 179 0;
#X connect 181 0 336 0;
#X connect 182 0 181 0;
#X connect 183 0 326 0;
#X connect 184 0 183 0;
#X connect 185 0 330 0;
#X connect 186 0 185 0;
#X connect 187 0 335 0;
#X connect 188 0 187 0;
#X connect 189 0 325 0;
#X connect 190 0 189 0;
#X connect 191 0 329 0;
#X connect 192 0 191 0;
#X connect 193 0 334 0;
#X connect 194 0 193 0;
#X connect 195 0 267 0;
#X connect 195 1 166 0;
#X connect 195 2 168 0;
#X connect 195 3 170 0;
#X connect 195 4 172 0;
#X connect 195 5 174 0;
#X connect 195 6 176 0;
#X connect 195 7 178 0;
#X connect 195 8 180 0;
#X connect 195 9 182 0;
#X connect 195 10 184 0;
#X connect 195 11 186 0;
#X connect 195 12 188 0;
#X connect 195 13 190 0;
#X connect 195 14 192 0;
#X connect 195 15 194 0;
#X connect 196 0 199 0;
#X connect 197 0 196 1;
#X connect 198 0 195 0;
#X connect 199 0 198 0;
#X connect 200 0 203 0;
#X connect 201 0 200 1;
#X connect 202 0 195 0;
#X connect 203 0 202 0;
#X connect 204 0 207 0;
#X connect 205 0 204 1;
#X connect 206 0 195 0;
#X connect 207 0 206 0;
#X connect 208 0 211 0;
#X connect 209 0 208 1;
#X connect 210 0 195 0;
#X connect 211 0 210 0;
#X connect 212 0 215 0;
#X connect 213 0 212 1;
#X connect 214 0 195 0;
#X connect 215 0 214 0;
#X connect 216 0 219 0;
#X connect 217 0 216 1;
#X connect 218 0 195 0;
#X connect 219 0 218 0;
#X connect 220 0 223 0;
#X connect 221 0 220 1;
#X connect 222 0 195 0;
#X connect 223 0 222 0;
#X connect 224 0 227 0;
#X connect 225 0 224 1;
#X connect 226 0 195 0;
#X connect 227 0 226 0;
#X connect 228 0 231 0;
#X connect 229 0 228 1;
#X connect 230 0 195 0;
#X connect 231 0 230 0;
#X connect 232 0 235 0;
#X connect 233 0 232 1;
#X connect 234 0 195 0;
#X connect 235 0 234 0;
#X connect 236 0 239 0;
#X connect 237 0 236 1;
#X connect 238 0 195 0;
#X connect 239 0 238 0;
#X connect 240 0 243 0;
#X connect 241 0 240 1;
#X connect 242 0 195 0;
#X connect 243 0 242 0;
#X connect 244 0 247 0;
#X connect 245 0 244 1;
#X connect 246 0 195 0;
#X connect 247 0 246 0;
#X connect 248 0 251 0;
#X connect 249 0 248 1;
#X connect 250 0 195 0;
#X connect 251 0 250 0;
#X connect 252 0 196 0;
#X connect 253 0 200 0;
#X connect 254 0 204 0;
#X connect 255 0 208 0;
#X connect 256 0 212 0;
#X connect 257 0 216 0;
#X connect 258 0 220 0;
#X connect 259 0 224 0;
#X connect 260 0 228 0;
#X connect 261 0 232 0;
#X connect 262 0 236 0;
#X connect 263 0 240 0;
#X connect 264 0 244 0;
#X connect 265 0 248 0;
#X connect 266 0 323 0;
#X connect 267 0 266 0;
#X connect 268 0 271 0;
#X connect 269 0 268 1;
#X connect 270 0 195 0;
#X connect 271 0 270 0;
#X connect 272 0 268 0;
#X connect 273 0 0 0;
#X connect 274 0 1 0;
#X connect 275 0 36 0;
#X connect 276 0 70 0;
#X connect 277 0 73 0;
#X connect 278 0 76 0;
#X connect 279 0 79 0;
#X connect 280 0 82 0;
#X connect 281 0 85 0;
#X connect 282 0 88 0;
#X connect 283 0 91 0;
#X connect 284 0 94 0;
#X connect 285 0 97 0;
#X connect 286 0 100 0;
#X connect 287 0 103 0;
#X connect 288 0 106 0;
#X connect 289 0 109 0;
#X connect 290 0 112 0;
#X connect 291 0 269 0;
#X connect 292 0 162 0;
#X connect 293 0 241 0;
#X connect 294 0 225 0;
#X connect 295 0 209 0;
#X connect 296 0 271 1;
#X connect 297 0 164 1;
#X connect 298 0 211 1;
#X connect 299 0 227 1;
#X connect 300 0 243 1;
#X connect 301 0 245 0;
#X connect 302 0 229 0;
#X connect 303 0 213 0;
#X connect 304 0 197 0;
#X connect 305 0 199 1;
#X connect 306 0 215 1;
#X connect 307 0 231 1;
#X connect 308 0 247 1;
#X connect 309 0 249 0;
#X connect 310 0 233 0;
#X connect 311 0 217 0;
#X connect 312 0 201 0;
#X connect 313 0 203 1;
#X connect 314 0 219 1;
#X connect 315 0 235 1;
#X connect 316 0 251 1;
#X connect 317 0 237 0;
#X connect 318 0 221 0;
#X connect 319 0 205 0;
#X connect 320 0 207 1;
#X connect 321 0 223 1;
#X connect 322 0 239 1;
#X restore 356 102 pd maths;
#N canvas 783 83 1628 1229 sequencer 0;
#X obj 632 145 spigot;
#X floatatom 665 124 5 0 0 0 - - -;
#X obj 948 903 loadbang;
#X obj 812 1049 noteout;
#X msg 967 954 127;
#X msg 987 975 10;
#X obj 719 145 spigot;
#X floatatom 752 124 5 0 0 0 - - -;
#X obj 805 145 spigot;
#X floatatom 838 124 5 0 0 0 - - -;
#X obj 892 145 spigot;
#X floatatom 925 124 5 0 0 0 - - -;
#X obj 978 145 spigot;
#X floatatom 1011 124 5 0 0 0 - - -;
#X obj 1065 145 spigot;
#X floatatom 1098 124 5 0 0 0 - - -;
#X obj 1151 145 spigot;
#X floatatom 1184 124 5 0 0 0 - - -;
#X obj 1238 145 spigot;
#X floatatom 1271 124 5 0 0 0 - - -;
#X obj 630 271 spigot;
#X floatatom 663 250 5 0 0 0 - - -;
#X obj 717 271 spigot;
#X floatatom 750 250 5 0 0 0 - - -;
#X obj 803 271 spigot;
#X floatatom 836 250 5 0 0 0 - - -;
#X obj 890 271 spigot;
#X floatatom 923 250 5 0 0 0 - - -;
#X obj 976 271 spigot;
#X floatatom 1009 250 5 0 0 0 - - -;
#X obj 1063 271 spigot;
#X floatatom 1096 250 5 0 0 0 - - -;
#X obj 1149 271 spigot;
#X floatatom 1182 250 5 0 0 0 - - -;
#X obj 1236 271 spigot;
#X floatatom 1269 250 5 0 0 0 - - -;
#X obj 632 448 spigot;
#X floatatom 665 427 5 0 0 0 - - -;
#X obj 719 448 spigot;
#X floatatom 752 427 5 0 0 0 - - -;
#X obj 805 448 spigot;
#X floatatom 838 427 5 0 0 0 - - -;
#X obj 892 448 spigot;
#X floatatom 925 427 5 0 0 0 - - -;
#X obj 978 448 spigot;
#X floatatom 1011 427 5 0 0 0 - - -;
#X obj 1065 448 spigot;
#X floatatom 1098 427 5 0 0 0 - - -;
#X obj 1151 448 spigot;
#X floatatom 1184 427 5 0 0 0 - - -;
#X obj 1238 448 spigot;
#X floatatom 1271 427 5 0 0 0 - - -;
#X obj 632 592 spigot;
#X floatatom 665 571 5 0 0 0 - - -;
#X obj 719 592 spigot;
#X floatatom 752 571 5 0 0 0 - - -;
#X obj 805 592 spigot;
#X floatatom 838 571 5 0 0 0 - - -;
#X obj 892 592 spigot;
#X floatatom 925 571 5 0 0 0 - - -;
#X obj 978 592 spigot;
#X floatatom 1011 571 5 0 0 0 - - -;
#X obj 1065 592 spigot;
#X floatatom 1098 571 5 0 0 0 - - -;
#X obj 1151 592 spigot;
#X floatatom 1184 571 5 0 0 0 - - -;
#X obj 1238 592 spigot;
#X floatatom 1271 571 5 0 0 0 - - -;
#X obj 665 406 - 1;
#X obj 752 406 - 1;
#X obj 838 405 - 1;
#X obj 925 405 - 1;
#X obj 1011 406 - 1;
#X obj 1098 406 - 1;
#X obj 1184 405 - 1;
#X obj 1271 405 - 1;
#X obj 665 550 - 1;
#X obj 752 550 - 1;
#X obj 838 549 - 1;
#X obj 925 549 - 1;
#X obj 1011 550 - 1;
#X obj 1098 550 - 1;
#X obj 1184 549 - 1;
#X obj 1271 549 - 1;
#X obj 719 906 spigot;
#X obj 850 926 spigot;
#X floatatom 752 884 5 0 0 0 - - -;
#X floatatom 883 905 5 0 0 0 - - -;
#X obj 883 883 - 1;
#X obj 630 385 r ob;
#X obj 719 385 r ob;
#X obj 803 385 r ob;
#X obj 892 385 r ob;
#X obj 977 385 r ob;
#X obj 1066 385 r ob;
#X obj 1150 385 r ob;
#X obj 1239 385 r ob;
#X obj 633 529 r ob;
#X obj 722 529 r ob;
#X obj 806 529 r ob;
#X obj 895 529 r ob;
#X obj 980 529 r ob;
#X obj 1069 529 r ob;
#X obj 1153 529 r ob;
#X obj 1242 529 r ob;
#X obj 850 949 \$1;
#X msg 877 949 127;
#X msg 908 949 10;
#X obj 719 927 \$1;
#X msg 746 927 127;
#X msg 777 927 10;
#X obj 948 930 \$1;
#X obj 665 101 r \$1-b0out;
#X obj 752 101 r \$1-b1out;
#X obj 838 101 r \$1-b2out;
#X obj 925 101 r \$1-b3out;
#X obj 1011 101 r \$1-b4out;
#X obj 1098 101 r \$1-b5out;
#X obj 1184 101 r \$1-b6out;
#X obj 1271 101 r \$1-b7out;
#X obj 632 169 s \$1-midi;
#X obj 719 169 s \$1-midi;
#X obj 805 169 s \$1-midi;
#X obj 892 169 s \$1-midi;
#X obj 978 169 s \$1-midi;
#X obj 1065 168 s \$1-midi;
#X obj 1151 169 s \$1-midi;
#X obj 1238 169 s \$1-midi;
#X obj 663 227 r \$1-b8out;
#X obj 750 227 r \$1-b9out;
#X obj 836 227 r \$1-b10out;
#X obj 923 227 r \$1-b11out;
#X obj 1009 226 r \$1-b12out;
#X obj 1096 227 r \$1-b13out;
#X obj 1182 227 r \$1-b14out;
#X obj 1269 227 r \$1-b15out;
#X obj 630 295 s \$1-midi;
#X obj 717 295 s \$1-midi;
#X obj 803 295 s \$1-midi;
#X obj 890 295 s \$1-midi;
#X obj 976 295 s \$1-midi;
#X obj 1063 295 s \$1-midi;
#X obj 1149 295 s \$1-midi;
#X obj 1236 295 s \$1-midi;
#X obj 665 385 r \$1-b0out;
#X obj 752 385 r \$1-b1out;
#X obj 838 385 r \$1-b2out;
#X obj 925 385 r \$1-b3out;
#X obj 1011 385 r \$1-b4out;
#X obj 1098 385 r \$1-b5out;
#X obj 1184 385 r \$1-b6out;
#X obj 1271 385 r \$1-b7out;
#X obj 632 472 s \$1-midioffbeat;
#X obj 719 472 s \$1-midioffbeat;
#X obj 805 473 s \$1-midioffbeat;
#X obj 892 473 s \$1-midioffbeat;
#X obj 978 472 s \$1-midioffbeat;
#X obj 1065 472 s \$1-midioffbeat;
#X obj 1151 472 s \$1-midioffbeat;
#X obj 1238 472 s \$1-midioffbeat;
#X obj 665 529 r \$1-b8out;
#X obj 752 529 r \$1-b9out;
#X obj 838 529 r \$1-b10out;
#X obj 925 529 r \$1-b11out;
#X obj 1011 529 r \$1-b12out;
#X obj 1098 529 r \$1-b13out;
#X obj 1185 530 r \$1-b14out;
#X obj 1271 529 r \$1-b15out;
#X obj 632 615 s \$1-midioffbeat;
#X obj 720 615 s \$1-midioffbeat;
#X obj 805 615 s \$1-midioffbeat;
#X obj 892 615 s \$1-midioffbeat;
#X obj 978 615 s \$1-midioffbeat;
#X obj 1065 615 s \$1-midioffbeat;
#X obj 1151 616 s \$1-midioffbeat;
#X obj 1238 615 s \$1-midioffbeat;
#X obj 719 843 r \$1-midi;
#X obj 850 840 r \$1-midioffbeat;
#X obj 752 864 r \$1-onoffbeat;
#X obj 883 861 r \$1-onoffbeat;
#X floatatom 128 420 5 0 0 0 - - -;
#X floatatom 161 378 5 0 0 0 - - -;
#X obj 128 618 sel 0 1 2 3 4 5 6 7 8 9 10 11 12 13 14 15;
#X obj 161 357 r \$1-q;
#X obj 128 641 s \$1-s0;
#X obj 355 643 s \$1-s15;
#X obj 310 642 s \$1-s12;
#X obj 264 641 s \$1-s9;
#X obj 219 641 s \$1-s6;
#X obj 173 641 s \$1-s3;
#X obj 325 664 s \$1-s13;
#X obj 279 663 s \$1-s10;
#X obj 234 663 s \$1-s7;
#X obj 188 663 s \$1-s4;
#X obj 143 663 s \$1-s1;
#X obj 340 686 s \$1-s14;
#X obj 295 685 s \$1-s11;
#X obj 249 685 s \$1-s8;
#X obj 203 685 s \$1-s5;
#X obj 158 684 s \$1-s2;
#X obj 632 123 r \$1-s0;
#X obj 719 123 r \$1-s1;
#X obj 805 123 r \$1-s2;
#X obj 892 123 r \$1-s3;
#X obj 978 123 r \$1-s4;
#X obj 1065 123 r \$1-s5;
#X obj 1151 123 r \$1-s6;
#X obj 1238 123 r \$1-s7;
#X obj 630 249 r \$1-s8;
#X obj 717 249 r \$1-s9;
#X obj 803 249 r \$1-s10;
#X obj 890 249 r \$1-s11;
#X obj 976 249 r \$1-s12;
#X obj 1063 249 r \$1-s13;
#X obj 1149 249 r \$1-s14;
#X obj 1236 249 r \$1-s15;
#X obj 632 426 r \$1-s0;
#X obj 719 426 r \$1-s1;
#X obj 805 426 r \$1-s2;
#X obj 892 426 r \$1-s3;
#X obj 978 426 r \$1-s4;
#X obj 1065 426 r \$1-s5;
#X obj 1151 426 r \$1-s6;
#X obj 1238 426 r \$1-s7;
#X obj 631 570 r \$1-s8;
#X obj 719 571 r \$1-s9;
#X obj 805 570 r \$1-s10;
#X obj 892 570 r \$1-s11;
#X obj 978 570 r \$1-s12;
#X obj 1065 570 r \$1-s13;
#X obj 1151 570 r \$1-s14;
#X obj 1238 570 r \$1-s15;
#X obj 128 93 / 1;
#X floatatom 143 71 5 0 0 0 - - -;
#X obj 143 51 r \$1-clkdiv;
#X floatatom 161 126 5 0 0 0 - - -;
#X obj 128 398 mod 16;
#X obj 161 246 sel 1;
#X msg 161 268 1;
#X msg 188 289 0;
#X obj 128 335 spigot;
#X floatatom 161 314 5 0 0 0 - - -;
#X floatatom 161 223 5 0 0 0 - - -;
#X obj 161 198 expr ($f1 + 1) / ($f2 + 1);
#X obj 314 176 i;
#X obj 175 161 t b;
#X obj 51 619 s \$1-beatno;
#X obj 1121 1010 readsf~ 2;
#X obj 1154 736 openpanel;
#X msg 1121 986 open \$1;
#X obj 1154 717 bng 15 250 50 0 empty empty empty 17 7 0 10 -262144
-1 -1;
#X msg 1178 986 start;
#X obj 1121 964 symbol;
#X obj 1178 964 del 5;
#X obj 1154 697 r \$1-open;
#X obj 1121 1073 throw~ todacL;
#X obj 1121 673 r \$1-sfplay;
#X obj 1214 1074 throw~ todacR;
#X obj 1214 1052 *~;
#X obj 1229 1015 vline~;
#X msg 1229 991 \$1 20;
#X obj 1229 970 r \$1-sfvol;
#X obj 1121 1051 *~;
#X obj 1121 921 spigot;
#X msg 1154 782 1;
#X floatatom 1154 897 5 0 0 0 - - -;
#X obj 1154 759 t b;
#X obj 692 984 s \$1-sfplay;
#X obj 692 963 t b;
#X obj 820 985 s \$1-sfplay;
#X obj 820 964 t b;
#X obj 128 509 f;
#X obj 128 531 + 1;
#N canvas 730 673 1274 629 clkmult 0;
#X obj 93 20 r tempo;
#X floatatom 93 42 5 0 0 0 - - -;
#X obj 78 167 del;
#X floatatom 93 145 5 0 0 0 - - -;
#X obj 226 21 r tempo;
#X floatatom 226 43 5 0 0 0 - - -;
#X obj 211 169 del;
#X floatatom 226 147 5 0 0 0 - - -;
#X obj 226 124 / 3;
#X obj 93 122 / 2;
#X obj 378 22 r tempo;
#X floatatom 378 44 5 0 0 0 - - -;
#X obj 363 169 del;
#X floatatom 378 147 5 0 0 0 - - -;
#X obj 536 19 r tempo;
#X floatatom 536 41 5 0 0 0 - - -;
#X obj 521 167 del;
#X floatatom 536 145 5 0 0 0 - - -;
#X obj 378 124 / 4;
#X obj 536 122 / 5;
#X obj 692 16 r tempo;
#X floatatom 692 38 5 0 0 0 - - -;
#X obj 677 163 del;
#X floatatom 692 141 5 0 0 0 - - -;
#X obj 863 15 r tempo;
#X floatatom 863 37 5 0 0 0 - - -;
#X obj 848 163 del;
#X floatatom 863 141 5 0 0 0 - - -;
#X obj 1041 15 r tempo;
#X floatatom 1041 37 5 0 0 0 - - -;
#X obj 1026 162 del;
#X floatatom 1041 140 5 0 0 0 - - -;
#X obj 692 118 / 6;
#X obj 863 118 / 7;
#X obj 1041 117 / 8;
#X floatatom 108 101 5 0 0 0 - - -;
#X obj 109 79 r \$1-clkmult;
#X floatatom 241 103 5 0 0 0 - - -;
#X obj 242 81 r \$1-clkmult;
#X floatatom 393 102 5 0 0 0 - - -;
#X obj 394 80 r \$1-clkmult;
#X floatatom 551 100 5 0 0 0 - - -;
#X obj 552 78 r \$1-clkmult;
#X floatatom 707 95 5 0 0 0 - - -;
#X obj 708 73 r \$1-clkmult;
#X floatatom 881 96 5 0 0 0 - - -;
#X obj 882 74 r \$1-clkmult;
#X floatatom 1057 96 5 0 0 0 - - -;
#X obj 1057 72 r \$1-clkmult;
#X obj 521 468 outlet;
#X obj 20 22 inlet;
#X obj 20 45 t b;
#X obj 1027 332 spigot;
#X floatatom 1060 245 2 0 0 0 - - -;
#X floatatom 1099 247 2 0 0 0 - - -;
#X obj 1060 265 t b;
#X obj 1099 267 t b;
#X msg 1060 286 0;
#X msg 1099 289 1;
#X floatatom 1060 310 5 0 0 0 - - -;
#X obj 1060 201 r \$1-clkmult;
#X obj 1060 223 moses 8;
#X obj 848 329 spigot;
#X floatatom 881 242 2 0 0 0 - - -;
#X floatatom 920 244 2 0 0 0 - - -;
#X obj 881 262 t b;
#X obj 920 264 t b;
#X msg 881 283 0;
#X msg 920 286 1;
#X floatatom 881 307 5 0 0 0 - - -;
#X obj 881 198 r \$1-clkmult;
#X obj 677 328 spigot;
#X floatatom 710 241 2 0 0 0 - - -;
#X floatatom 749 243 2 0 0 0 - - -;
#X obj 710 261 t b;
#X obj 749 263 t b;
#X msg 710 282 0;
#X msg 749 285 1;
#X floatatom 710 306 5 0 0 0 - - -;
#X obj 710 197 r \$1-clkmult;
#X obj 521 327 spigot;
#X floatatom 554 240 2 0 0 0 - - -;
#X floatatom 593 242 2 0 0 0 - - -;
#X obj 554 260 t b;
#X obj 593 262 t b;
#X msg 554 281 0;
#X msg 593 284 1;
#X floatatom 554 305 5 0 0 0 - - -;
#X obj 554 196 r \$1-clkmult;
#X obj 363 324 spigot;
#X floatatom 396 237 2 0 0 0 - - -;
#X floatatom 435 239 2 0 0 0 - - -;
#X obj 396 257 t b;
#X obj 435 259 t b;
#X msg 396 278 0;
#X msg 435 281 1;
#X floatatom 396 302 5 0 0 0 - - -;
#X obj 396 193 r \$1-clkmult;
#X obj 211 323 spigot;
#X floatatom 244 236 2 0 0 0 - - -;
#X floatatom 283 238 2 0 0 0 - - -;
#X obj 244 256 t b;
#X obj 283 258 t b;
#X msg 244 277 0;
#X msg 283 280 1;
#X floatatom 244 301 5 0 0 0 - - -;
#X obj 244 192 r \$1-clkmult;
#X obj 78 322 spigot;
#X floatatom 111 235 2 0 0 0 - - -;
#X floatatom 150 237 2 0 0 0 - - -;
#X obj 111 255 t b;
#X obj 150 257 t b;
#X msg 111 276 0;
#X msg 150 279 1;
#X floatatom 111 300 5 0 0 0 - - -;
#X obj 111 191 r \$1-clkmult;
#X obj 881 220 moses 7;
#X obj 710 219 moses 6;
#X obj 554 218 moses 5;
#X obj 396 215 moses 4;
#X obj 244 214 moses 3;
#X obj 111 213 moses 2;
#X obj 148 101 t b;
#X obj 279 102 t b;
#X obj 429 101 t b;
#X obj 588 99 t b;
#X obj 742 94 t b;
#X obj 919 94 t b;
#X obj 1097 96 t b;
#X connect 0 0 1 0;
#X connect 1 0 9 0;
#X connect 2 0 6 0;
#X connect 2 0 107 0;
#X connect 3 0 2 1;
#X connect 4 0 5 0;
#X connect 5 0 8 0;
#X connect 6 0 12 0;
#X connect 6 0 98 0;
#X connect 7 0 6 1;
#X connect 8 0 7 0;
#X connect 9 0 3 0;
#X connect 10 0 11 0;
#X connect 11 0 18 0;
#X connect 12 0 16 0;
#X connect 12 0 89 0;
#X connect 13 0 12 1;
#X connect 14 0 15 0;
#X connect 15 0 19 0;
#X connect 16 0 22 0;
#X connect 16 0 80 0;
#X connect 17 0 16 1;
#X connect 18 0 13 0;
#X connect 19 0 17 0;
#X connect 20 0 21 0;
#X connect 21 0 32 0;
#X connect 22 0 26 0;
#X connect 22 0 71 0;
#X connect 23 0 22 1;
#X connect 24 0 25 0;
#X connect 25 0 33 0;
#X connect 26 0 30 0;
#X connect 26 0 62 0;
#X connect 27 0 26 1;
#X connect 28 0 29 0;
#X connect 29 0 34 0;
#X connect 30 0 52 0;
#X connect 31 0 30 1;
#X connect 32 0 23 0;
#X connect 33 0 27 0;
#X connect 34 0 31 0;
#X connect 35 0 9 1;
#X connect 35 0 122 0;
#X connect 36 0 35 0;
#X connect 37 0 8 1;
#X connect 37 0 123 0;
#X connect 38 0 37 0;
#X connect 39 0 18 1;
#X connect 39 0 124 0;
#X connect 40 0 39 0;
#X connect 41 0 19 1;
#X connect 41 0 125 0;
#X connect 42 0 41 0;
#X connect 43 0 32 1;
#X connect 43 0 126 0;
#X connect 44 0 43 0;
#X connect 45 0 33 1;
#X connect 45 0 127 0;
#X connect 46 0 45 0;
#X connect 47 0 34 1;
#X connect 47 0 128 0;
#X connect 48 0 47 0;
#X connect 50 0 51 0;
#X connect 51 0 2 0;
#X connect 52 0 49 0;
#X connect 53 0 55 0;
#X connect 54 0 56 0;
#X connect 55 0 57 0;
#X connect 56 0 58 0;
#X connect 57 0 59 0;
#X connect 58 0 59 0;
#X connect 59 0 52 1;
#X connect 60 0 61 0;
#X connect 61 0 53 0;
#X connect 61 1 54 0;
#X connect 62 0 49 0;
#X connect 63 0 65 0;
#X connect 64 0 66 0;
#X connect 65 0 67 0;
#X connect 66 0 68 0;
#X connect 67 0 69 0;
#X connect 68 0 69 0;
#X connect 69 0 62 1;
#X connect 70 0 116 0;
#X connect 71 0 49 0;
#X connect 72 0 74 0;
#X connect 73 0 75 0;
#X connect 74 0 76 0;
#X connect 75 0 77 0;
#X connect 76 0 78 0;
#X connect 77 0 78 0;
#X connect 78 0 71 1;
#X connect 79 0 117 0;
#X connect 80 0 49 0;
#X connect 81 0 83 0;
#X connect 82 0 84 0;
#X connect 83 0 85 0;
#X connect 84 0 86 0;
#X connect 85 0 87 0;
#X connect 86 0 87 0;
#X connect 87 0 80 1;
#X connect 88 0 118 0;
#X connect 89 0 49 0;
#X connect 90 0 92 0;
#X connect 91 0 93 0;
#X connect 92 0 94 0;
#X connect 93 0 95 0;
#X connect 94 0 96 0;
#X connect 95 0 96 0;
#X connect 96 0 89 1;
#X connect 97 0 119 0;
#X connect 98 0 49 0;
#X connect 99 0 101 0;
#X connect 100 0 102 0;
#X connect 101 0 103 0;
#X connect 102 0 104 0;
#X connect 103 0 105 0;
#X connect 104 0 105 0;
#X connect 105 0 98 1;
#X connect 106 0 120 0;
#X connect 107 0 49 0;
#X connect 108 0 110 0;
#X connect 109 0 111 0;
#X connect 110 0 112 0;
#X connect 111 0 113 0;
#X connect 112 0 114 0;
#X connect 113 0 114 0;
#X connect 114 0 107 1;
#X connect 115 0 121 0;
#X connect 116 0 63 0;
#X connect 116 1 64 0;
#X connect 117 0 72 0;
#X connect 117 1 73 0;
#X connect 118 0 81 0;
#X connect 118 1 82 0;
#X connect 119 0 90 0;
#X connect 119 1 91 0;
#X connect 120 0 99 0;
#X connect 120 1 100 0;
#X connect 121 0 108 0;
#X connect 121 1 109 0;
#X connect 122 0 1 0;
#X connect 123 0 5 0;
#X connect 124 0 11 0;
#X connect 125 0 15 0;
#X connect 126 0 21 0;
#X connect 127 0 25 0;
#X connect 128 0 29 0;
#X restore 158 481 pd clkmult;
#X floatatom 128 552 5 0 0 0 - - -;
#X obj 128 28 r seq;
#X obj 128 574 mod 16;
#X floatatom 128 597 5 0 0 0 - - -;
#X obj 128 482 * 1;
#X floatatom 143 461 5 0 0 0 - - -;
#X obj 143 441 r \$1-clkmult;
#X floatatom 164 552 5 0 0 0 - - -;
#X obj 164 531 r \$1-q;
#X obj 1169 921 r \$1-banksoundfile;
#X obj 1154 850 f;
#X obj 1185 798 r \$1-banksonoff;
#X obj 1185 820 sel 0;
#X obj 1154 873 r \$1-sfloaded;
#X obj 1182 849 symbol;
#X obj 680 1156 s sendosc;
#X msg 680 1128 send /1/\$1 1;
#X obj 680 1079 spigot;
#X obj 680 1104 \$1;
#X floatatom 713 1057 5 0 0 0 - - -;
#X obj 713 1034 r connectosc;
#X connect 0 0 120 0;
#X connect 1 0 0 1;
#X connect 2 0 4 0;
#X connect 2 0 5 0;
#X connect 2 0 111 0;
#X connect 4 0 3 1;
#X connect 5 0 3 2;
#X connect 6 0 121 0;
#X connect 7 0 6 1;
#X connect 8 0 122 0;
#X connect 9 0 8 1;
#X connect 10 0 123 0;
#X connect 11 0 10 1;
#X connect 12 0 124 0;
#X connect 13 0 12 1;
#X connect 14 0 125 0;
#X connect 15 0 14 1;
#X connect 16 0 126 0;
#X connect 17 0 16 1;
#X connect 18 0 127 0;
#X connect 19 0 18 1;
#X connect 20 0 136 0;
#X connect 21 0 20 1;
#X connect 22 0 137 0;
#X connect 23 0 22 1;
#X connect 24 0 138 0;
#X connect 25 0 24 1;
#X connect 26 0 139 0;
#X connect 27 0 26 1;
#X connect 28 0 140 0;
#X connect 29 0 28 1;
#X connect 30 0 141 0;
#X connect 31 0 30 1;
#X connect 32 0 142 0;
#X connect 33 0 32 1;
#X connect 34 0 143 0;
#X connect 35 0 34 1;
#X connect 36 0 152 0;
#X connect 37 0 36 1;
#X connect 38 0 153 0;
#X connect 39 0 38 1;
#X connect 40 0 154 0;
#X connect 41 0 40 1;
#X connect 42 0 155 0;
#X connect 43 0 42 1;
#X connect 44 0 156 0;
#X connect 45 0 44 1;
#X connect 46 0 157 0;
#X connect 47 0 46 1;
#X connect 48 0 158 0;
#X connect 49 0 48 1;
#X connect 50 0 159 0;
#X connect 51 0 50 1;
#X connect 52 0 168 0;
#X connect 53 0 52 1;
#X connect 54 0 169 0;
#X connect 55 0 54 1;
#X connect 56 0 170 0;
#X connect 57 0 56 1;
#X connect 58 0 171 0;
#X connect 59 0 58 1;
#X connect 60 0 172 0;
#X connect 61 0 60 1;
#X connect 62 0 173 0;
#X connect 63 0 62 1;
#X connect 64 0 174 0;
#X connect 65 0 64 1;
#X connect 66 0 175 0;
#X connect 67 0 66 1;
#X connect 68 0 37 0;
#X connect 69 0 39 0;
#X connect 70 0 41 0;
#X connect 71 0 43 0;
#X connect 72 0 45 0;
#X connect 73 0 47 0;
#X connect 74 0 49 0;
#X connect 75 0 51 0;
#X connect 76 0 53 0;
#X connect 77 0 55 0;
#X connect 78 0 57 0;
#X connect 79 0 59 0;
#X connect 80 0 61 0;
#X connect 81 0 63 0;
#X connect 82 0 65 0;
#X connect 83 0 67 0;
#X connect 84 0 108 0;
#X connect 84 0 109 0;
#X connect 84 0 110 0;
#X connect 84 0 268 0;
#X connect 84 0 291 0;
#X connect 85 0 105 0;
#X connect 85 0 106 0;
#X connect 85 0 107 0;
#X connect 85 0 270 0;
#X connect 85 0 291 0;
#X connect 86 0 84 1;
#X connect 87 0 85 1;
#X connect 88 0 87 0;
#X connect 89 0 68 0;
#X connect 90 0 69 0;
#X connect 91 0 70 0;
#X connect 92 0 71 0;
#X connect 93 0 72 0;
#X connect 94 0 73 0;
#X connect 95 0 74 0;
#X connect 96 0 75 0;
#X connect 97 0 76 0;
#X connect 98 0 77 0;
#X connect 99 0 78 0;
#X connect 100 0 79 0;
#X connect 101 0 80 0;
#X connect 102 0 81 0;
#X connect 103 0 82 0;
#X connect 104 0 83 0;
#X connect 105 0 3 0;
#X connect 106 0 3 1;
#X connect 107 0 3 2;
#X connect 108 0 3 0;
#X connect 109 0 3 1;
#X connect 110 0 3 2;
#X connect 111 0 3 0;
#X connect 112 0 1 0;
#X connect 113 0 7 0;
#X connect 114 0 9 0;
#X connect 115 0 11 0;
#X connect 116 0 13 0;
#X connect 117 0 15 0;
#X connect 118 0 17 0;
#X connect 119 0 19 0;
#X connect 128 0 21 0;
#X connect 129 0 23 0;
#X connect 130 0 25 0;
#X connect 131 0 27 0;
#X connect 132 0 29 0;
#X connect 133 0 31 0;
#X connect 134 0 33 0;
#X connect 135 0 35 0;
#X connect 144 0 68 0;
#X connect 145 0 69 0;
#X connect 146 0 70 0;
#X connect 147 0 71 0;
#X connect 148 0 72 0;
#X connect 149 0 73 0;
#X connect 150 0 74 0;
#X connect 151 0 75 0;
#X connect 160 0 76 0;
#X connect 161 0 77 0;
#X connect 162 0 78 0;
#X connect 163 0 79 0;
#X connect 164 0 80 0;
#X connect 165 0 81 0;
#X connect 166 0 82 0;
#X connect 167 0 83 0;
#X connect 176 0 84 0;
#X connect 177 0 85 0;
#X connect 178 0 86 0;
#X connect 179 0 88 0;
#X connect 180 0 273 0;
#X connect 180 0 278 0;
#X connect 181 0 236 1;
#X connect 182 0 184 0;
#X connect 182 1 194 0;
#X connect 182 2 199 0;
#X connect 182 3 189 0;
#X connect 182 4 193 0;
#X connect 182 5 198 0;
#X connect 182 6 188 0;
#X connect 182 7 192 0;
#X connect 182 8 197 0;
#X connect 182 9 187 0;
#X connect 182 10 191 0;
#X connect 182 11 196 0;
#X connect 182 12 186 0;
#X connect 182 13 190 0;
#X connect 182 14 195 0;
#X connect 182 15 185 0;
#X connect 183 0 181 0;
#X connect 200 0 0 0;
#X connect 201 0 6 0;
#X connect 202 0 8 0;
#X connect 203 0 10 0;
#X connect 204 0 12 0;
#X connect 205 0 14 0;
#X connect 206 0 16 0;
#X connect 207 0 18 0;
#X connect 208 0 20 0;
#X connect 209 0 22 0;
#X connect 210 0 24 0;
#X connect 211 0 26 0;
#X connect 212 0 28 0;
#X connect 213 0 30 0;
#X connect 214 0 32 0;
#X connect 215 0 34 0;
#X connect 216 0 36 0;
#X connect 217 0 38 0;
#X connect 218 0 40 0;
#X connect 219 0 42 0;
#X connect 220 0 44 0;
#X connect 221 0 46 0;
#X connect 222 0 48 0;
#X connect 223 0 50 0;
#X connect 224 0 52 0;
#X connect 225 0 54 0;
#X connect 226 0 56 0;
#X connect 227 0 58 0;
#X connect 228 0 60 0;
#X connect 229 0 62 0;
#X connect 230 0 64 0;
#X connect 231 0 66 0;
#X connect 232 0 235 0;
#X connect 232 0 240 0;
#X connect 233 0 232 1;
#X connect 234 0 233 0;
#X connect 235 0 243 0;
#X connect 235 0 244 0;
#X connect 235 0 244 1;
#X connect 235 0 245 0;
#X connect 236 0 180 0;
#X connect 237 0 238 0;
#X connect 237 1 239 0;
#X connect 238 0 241 0;
#X connect 239 0 241 0;
#X connect 240 0 236 0;
#X connect 241 0 240 1;
#X connect 242 0 237 0;
#X connect 243 0 242 0;
#X connect 244 0 243 1;
#X connect 245 0 243 0;
#X connect 247 0 262 0;
#X connect 247 1 258 0;
#X connect 248 0 252 1;
#X connect 248 0 266 0;
#X connect 248 0 288 1;
#X connect 249 0 247 0;
#X connect 250 0 248 0;
#X connect 251 0 247 0;
#X connect 252 0 249 0;
#X connect 253 0 251 0;
#X connect 254 0 250 0;
#X connect 256 0 263 0;
#X connect 258 0 257 0;
#X connect 259 0 258 1;
#X connect 259 0 262 1;
#X connect 260 0 259 0;
#X connect 261 0 260 0;
#X connect 262 0 255 0;
#X connect 263 0 252 0;
#X connect 263 0 253 0;
#X connect 264 0 265 0;
#X connect 264 0 284 1;
#X connect 265 0 263 1;
#X connect 266 0 264 0;
#X connect 268 0 267 0;
#X connect 270 0 269 0;
#X connect 271 0 272 0;
#X connect 272 0 271 1;
#X connect 272 0 274 0;
#X connect 273 0 271 0;
#X connect 274 0 276 0;
#X connect 275 0 232 0;
#X connect 276 0 277 0;
#X connect 277 0 182 0;
#X connect 277 0 246 0;
#X connect 278 0 271 1;
#X connect 278 0 274 0;
#X connect 279 0 278 1;
#X connect 280 0 279 0;
#X connect 281 0 276 1;
#X connect 282 0 281 0;
#X connect 283 0 252 1;
#X connect 284 0 265 0;
#X connect 285 0 286 0;
#X connect 286 0 284 0;
#X connect 286 0 288 0;
#X connect 287 0 265 0;
#X connect 288 0 252 1;
#X connect 290 0 289 0;
#X connect 291 0 292 0;
#X connect 292 0 290 0;
#X connect 293 0 291 1;
#X connect 294 0 293 0;
#X restore 357 130 pd sequencer;
#N canvas 816 106 2106 1390 gui 0;
#X msg 25 133 18;
#X msg 61 133 0;
#X msg 192 256 18;
#X msg 228 256 0;
#X msg 344 256 18;
#X msg 380 256 0;
#X msg 507 255 18;
#X msg 543 255 0;
#X msg 682 255 0;
#X msg 795 255 18;
#X msg 831 255 0;
#X msg 942 253 18;
#X msg 978 253 0;
#X msg 1092 252 18;
#X msg 1128 252 0;
#X msg 646 255 18;
#X msg 40 645 18;
#X msg 76 645 0;
#X msg 194 645 18;
#X msg 230 645 0;
#X msg 343 644 18;
#X msg 379 644 0;
#X msg 497 644 18;
#X msg 533 644 0;
#X msg 681 641 0;
#X msg 789 643 18;
#X msg 825 643 0;
#X msg 936 643 18;
#X msg 972 643 0;
#X msg 1080 646 18;
#X msg 1113 646 0;
#X msg 645 636 18;
#X floatatom 38 803 5 0 0 0 - - -;
#X obj 38 877 del 10;
#X obj 38 977 del 10;
#X obj 39 1078 del 10;
#X obj 38 823 sel 1 2 3 4 5 6 7 8 9 10 11 12 13 14 15;
#X obj 39 1181 del 10;
#X obj 39 1277 del 10;
#X obj 141 872 del 10;
#X obj 143 977 del 10;
#X obj 142 1076 del 10;
#X obj 142 1177 del 10;
#X obj 142 1277 del 10;
#X obj 243 871 del 10;
#X msg 288 896 21;
#X obj 243 976 del 10;
#X obj 243 1076 del 10;
#X obj 242 1175 del 10;
#X obj 242 1276 del 10;
#X obj 480 802 t b;
#X msg 525 827 0;
#X obj 1404 51 loadbang;
#X msg 1404 72 16;
#X msg 1404 118 1;
#X obj 25 188 \$1;
#X obj 25 209 pack f f;
#X obj 25 167 t b;
#X msg 25 230 \; \$1-b0 color \$2;
#X msg 192 353 \; \$1-b1 color \$2;
#X msg 344 353 \; \$1-b2 color \$2;
#X msg 508 352 \; \$1-b3 color \$2;
#X msg 646 352 \; \$1-b4 color \$2;
#X msg 795 353 \; \$1-b5 color \$2;
#X msg 942 350 \; \$1-b6 color \$2;
#X msg 1092 349 \; \$1-b7 color \$2;
#X msg 39 742 \; \$1-b8 color \$2;
#X msg 193 742 \; \$1-b9 color \$2;
#X msg 342 741 \; \$1-b10 color \$2;
#X msg 496 741 \; \$1-b11 color \$2;
#X msg 644 738 \; \$1-b12 color \$2;
#X msg 788 741 \; \$1-b13 color \$2;
#X msg 935 740 \; \$1-b14 color \$2;
#X msg 1079 743 \; \$1-b15 color \$2;
#X obj 192 310 \$1;
#X obj 192 331 pack f f;
#X obj 192 289 t b;
#X obj 344 309 \$1;
#X obj 344 330 pack f f;
#X obj 344 288 t b;
#X obj 507 307 \$1;
#X obj 507 328 pack f f;
#X obj 507 286 t b;
#X obj 646 307 \$1;
#X obj 646 328 pack f f;
#X obj 646 286 t b;
#X obj 795 306 \$1;
#X obj 795 327 pack f f;
#X obj 795 285 t b;
#X obj 942 303 \$1;
#X obj 942 324 pack f f;
#X obj 942 282 t b;
#X obj 1092 301 \$1;
#X obj 1092 322 pack f f;
#X obj 1092 280 t b;
#X obj 40 696 \$1;
#X obj 40 717 pack f f;
#X obj 40 675 t b;
#X obj 194 695 \$1;
#X obj 194 716 pack f f;
#X obj 194 674 t b;
#X obj 343 693 \$1;
#X obj 343 714 pack f f;
#X obj 343 672 t b;
#X obj 497 692 \$1;
#X obj 497 713 pack f f;
#X obj 497 671 t b;
#X obj 645 689 \$1;
#X obj 645 710 pack f f;
#X obj 645 668 t b;
#X obj 789 690 \$1;
#X obj 789 711 pack f f;
#X obj 789 669 t b;
#X obj 936 689 \$1;
#X obj 936 710 pack f f;
#X obj 936 668 t b;
#X obj 1080 691 \$1;
#X obj 1080 712 pack f f;
#X obj 1080 670 t b;
#X obj 480 827 \$1;
#X obj 480 848 pack f f;
#X msg 480 894 \; \$1-b1 color \$2;
#X msg 582 894 \; \$1-b2 color \$2;
#X msg 687 894 \; \$1-b3 color \$2;
#X msg 793 894 \; \$1-b4 color \$2;
#X msg 479 935 \; \$1-b5 color \$2;
#X msg 581 936 \; \$1-b6 color \$2;
#X msg 687 937 \; \$1-b7 color \$2;
#X msg 792 937 \; \$1-b8 color \$2;
#X msg 480 979 \; \$1-b9 color \$2;
#X msg 581 978 \; \$1-b10 color \$2;
#X msg 687 978 \; \$1-b11 color \$2;
#X msg 792 978 \; \$1-b12 color \$2;
#X msg 482 1021 \; \$1-b13 color \$2;
#X msg 590 1022 \; \$1-b14 color \$2;
#X msg 701 1021 \; \$1-b15 color \$2;
#X obj 243 895 \$1;
#X obj 243 916 pack f f;
#X msg 288 1001 21;
#X obj 243 1000 \$1;
#X obj 243 1021 pack f f;
#X msg 288 1099 21;
#X obj 243 1098 \$1;
#X obj 243 1119 pack f f;
#X msg 287 1198 21;
#X obj 242 1197 \$1;
#X obj 242 1218 pack f f;
#X msg 287 1299 21;
#X obj 242 1298 \$1;
#X obj 242 1319 pack f f;
#X msg 243 939 \; \$1-b11 color \$2;
#X msg 243 1042 \; \$1-b12 color \$2;
#X msg 243 1140 \; \$1-b13 color \$2;
#X msg 242 1240 \; \$1-b14 color \$2;
#X msg 242 1343 \; \$1-b15 color \$2;
#X msg 186 896 21;
#X obj 141 895 \$1;
#X obj 141 916 pack f f;
#X msg 141 939 \; \$1-b6 color \$2;
#X msg 188 1000 21;
#X obj 143 999 \$1;
#X obj 143 1020 pack f f;
#X msg 143 1042 \; \$1-b7 color \$2;
#X msg 187 1099 21;
#X obj 142 1098 \$1;
#X obj 142 1119 pack f f;
#X msg 142 1141 \; \$1-b8 color \$2;
#X msg 187 1199 21;
#X obj 142 1198 \$1;
#X obj 142 1219 pack f f;
#X msg 187 1301 21;
#X obj 142 1300 \$1;
#X obj 142 1321 pack f f;
#X msg 142 1241 \; \$1-b9 color \$2;
#X msg 141 1343 \; \$1-b10 color \$2;
#X msg 83 898 21;
#X obj 38 897 \$1;
#X obj 38 918 pack f f;
#X msg 38 939 \; \$1-b1 color \$2;
#X msg 83 1000 21;
#X obj 38 999 \$1;
#X obj 38 1020 pack f f;
#X msg 84 1099 21;
#X obj 39 1098 \$1;
#X obj 39 1119 pack f f;
#X msg 39 1042 \; \$1-b2 color \$2;
#X msg 39 1141 \; \$1-b3 color \$2;
#X msg 84 1202 21;
#X obj 39 1201 \$1;
#X obj 39 1222 pack f f;
#X msg 84 1300 21;
#X obj 39 1299 \$1;
#X obj 39 1320 pack f f;
#X msg 39 1242 \; \$1-b4 color \$2;
#X msg 39 1342 \; \$1-b5 color \$2;
#X obj 1404 93 s \$1-setq;
#X obj 1404 140 s \$1-setonoffbeat;
#X obj 39 781 r \$1-q;
#X obj 480 781 r \$1-q;
#X obj 1565 306 loadbang;
#X obj 1348 326 \$1;
#X obj 1348 348 sel 36 38 40 46;
#X msg 1348 371 \; 36-label label Out_1;
#X msg 1369 408 \; 38-label label Out_2;
#X msg 1391 445 \; 40-label label Gate_1;
#X msg 1413 482 \; 46-label label Gate_2;
#X obj 1404 166 s \$1-setclkdiv;
#X obj 24 80 r \$1-beatno;
#X obj 24 103 sel 0;
#X obj 192 78 r \$1-beatno;
#X obj 344 78 r \$1-beatno;
#X obj 507 78 r \$1-beatno;
#X obj 646 78 r \$1-beatno;
#X obj 795 79 r \$1-beatno;
#X obj 942 77 r \$1-beatno;
#X obj 1092 77 r \$1-beatno;
#X obj 40 465 r \$1-beatno;
#X obj 194 466 r \$1-beatno;
#X obj 343 465 r \$1-beatno;
#X obj 497 466 r \$1-beatno;
#X obj 645 463 r \$1-beatno;
#X obj 789 466 r \$1-beatno;
#X obj 936 466 r \$1-beatno;
#X obj 1080 466 r \$1-beatno;
#X obj 192 101 sel 1;
#X obj 344 101 sel 2;
#X obj 507 101 sel 3;
#X obj 646 101 sel 4;
#X obj 795 102 sel 5;
#X obj 942 100 sel 6;
#X obj 1092 100 sel 7;
#X obj 40 488 sel 8;
#X obj 194 489 sel 9;
#X obj 343 488 sel 10;
#X obj 497 489 sel 11;
#X obj 645 486 sel 12;
#X obj 789 489 sel 13;
#X obj 936 489 sel 14;
#X obj 1080 491 sel 15;
#X obj 1113 621 spigot;
#X floatatom 1146 534 2 0 0 0 - - -;
#X floatatom 1190 534 2 0 0 0 - - -;
#X obj 1146 554 t b;
#X obj 1190 554 t b;
#X msg 1146 575 0;
#X msg 1190 576 1;
#X obj 1146 512 moses 16;
#X obj 1146 490 r \$1-q;
#X floatatom 1146 599 5 0 0 0 - - -;
#X obj 972 620 spigot;
#X floatatom 1005 533 2 0 0 0 - - -;
#X floatatom 1050 533 2 0 0 0 - - -;
#X obj 1005 553 t b;
#X obj 1050 553 t b;
#X msg 1005 574 0;
#X msg 1050 575 1;
#X obj 1005 489 r \$1-q;
#X floatatom 1005 598 5 0 0 0 - - -;
#X obj 1005 511 moses 15;
#X obj 826 621 spigot;
#X floatatom 859 534 2 0 0 0 - - -;
#X floatatom 904 534 2 0 0 0 - - -;
#X obj 859 554 t b;
#X obj 904 554 t b;
#X msg 859 575 0;
#X msg 904 576 1;
#X obj 859 490 r \$1-q;
#X floatatom 859 599 5 0 0 0 - - -;
#X obj 681 616 spigot;
#X floatatom 714 529 2 0 0 0 - - -;
#X floatatom 759 529 2 0 0 0 - - -;
#X obj 714 549 t b;
#X obj 759 549 t b;
#X msg 714 570 0;
#X msg 759 571 1;
#X obj 714 485 r \$1-q;
#X floatatom 714 594 5 0 0 0 - - -;
#X obj 859 512 moses 14;
#X obj 714 507 moses 13;
#X obj 533 619 spigot;
#X floatatom 566 532 2 0 0 0 - - -;
#X floatatom 611 534 2 0 0 0 - - -;
#X obj 566 552 t b;
#X obj 611 554 t b;
#X msg 566 573 0;
#X msg 611 576 1;
#X obj 566 488 r \$1-q;
#X floatatom 566 597 5 0 0 0 - - -;
#X obj 380 618 spigot;
#X floatatom 413 531 2 0 0 0 - - -;
#X floatatom 458 531 2 0 0 0 - - -;
#X obj 413 551 t b;
#X obj 458 551 t b;
#X msg 413 572 0;
#X msg 458 573 1;
#X obj 413 487 r \$1-q;
#X floatatom 413 596 5 0 0 0 - - -;
#X obj 230 621 spigot;
#X floatatom 263 534 2 0 0 0 - - -;
#X floatatom 314 532 2 0 0 0 - - -;
#X obj 263 554 t b;
#X obj 314 552 t b;
#X msg 263 575 0;
#X msg 314 574 1;
#X obj 263 490 r \$1-q;
#X floatatom 263 599 5 0 0 0 - - -;
#X obj 75 615 spigot;
#X floatatom 108 528 2 0 0 0 - - -;
#X floatatom 153 528 2 0 0 0 - - -;
#X obj 108 548 t b;
#X obj 153 548 t b;
#X msg 108 569 0;
#X msg 153 570 1;
#X obj 108 484 r \$1-q;
#X floatatom 108 593 5 0 0 0 - - -;
#X obj 566 510 moses 12;
#X obj 413 509 moses 11;
#X obj 263 512 moses 10;
#X obj 108 506 moses 9;
#X obj 1119 231 spigot;
#X floatatom 1152 144 2 0 0 0 - - -;
#X floatatom 1197 146 2 0 0 0 - - -;
#X obj 1152 164 t b;
#X obj 1197 166 t b;
#X msg 1152 185 0;
#X msg 1197 188 1;
#X obj 1152 100 r \$1-q;
#X floatatom 1152 209 5 0 0 0 - - -;
#X obj 978 230 spigot;
#X floatatom 1011 143 2 0 0 0 - - -;
#X floatatom 1056 143 2 0 0 0 - - -;
#X obj 1011 163 t b;
#X obj 1056 163 t b;
#X msg 1011 184 0;
#X msg 1056 185 1;
#X obj 1011 99 r \$1-q;
#X floatatom 1011 208 5 0 0 0 - - -;
#X obj 832 231 spigot;
#X floatatom 865 144 2 0 0 0 - - -;
#X floatatom 910 144 2 0 0 0 - - -;
#X obj 865 164 t b;
#X obj 910 164 t b;
#X msg 865 185 0;
#X msg 910 186 1;
#X obj 865 100 r \$1-q;
#X floatatom 865 209 5 0 0 0 - - -;
#X obj 687 226 spigot;
#X floatatom 720 139 2 0 0 0 - - -;
#X floatatom 765 139 2 0 0 0 - - -;
#X obj 720 159 t b;
#X obj 765 159 t b;
#X msg 720 180 0;
#X msg 765 181 1;
#X obj 720 95 r \$1-q;
#X floatatom 720 204 5 0 0 0 - - -;
#X obj 539 229 spigot;
#X floatatom 572 142 2 0 0 0 - - -;
#X floatatom 617 144 2 0 0 0 - - -;
#X obj 572 162 t b;
#X obj 617 164 t b;
#X msg 572 183 0;
#X msg 617 186 1;
#X obj 572 98 r \$1-q;
#X floatatom 572 207 5 0 0 0 - - -;
#X obj 386 228 spigot;
#X floatatom 419 141 2 0 0 0 - - -;
#X floatatom 464 141 2 0 0 0 - - -;
#X obj 419 161 t b;
#X obj 464 161 t b;
#X msg 419 182 0;
#X msg 464 183 1;
#X obj 419 97 r \$1-q;
#X floatatom 419 206 5 0 0 0 - - -;
#X obj 230 231 spigot;
#X floatatom 269 144 2 0 0 0 - - -;
#X floatatom 320 142 2 0 0 0 - - -;
#X obj 269 164 t b;
#X obj 320 162 t b;
#X msg 269 185 0;
#X msg 320 184 1;
#X obj 269 100 r \$1-q;
#X floatatom 269 209 5 0 0 0 - - -;
#X obj 1152 122 moses 8;
#X obj 1011 121 moses 7;
#X obj 865 122 moses 6;
#X obj 720 117 moses 5;
#X obj 572 120 moses 4;
#X obj 419 119 moses 3;
#X obj 269 122 moses 2;
#X obj 1238 670 r \$1-clkdiv;
#X obj 1265 783 t b;
#X obj 1238 759 sel 1;
#X obj 1265 826 s \$1-setclkmult;
#X msg 1265 804 1;
#X obj 1238 736 spigot;
#X floatatom 1271 716 5 0 0 0 - - -;
#X obj 1271 694 - 1;
#X obj 1412 782 t b;
#X obj 1385 758 sel 1;
#X msg 1412 803 1;
#X obj 1385 735 spigot;
#X floatatom 1418 715 5 0 0 0 - - -;
#X obj 1418 693 - 1;
#X obj 1385 669 r \$1-clkmult;
#X obj 1412 825 s \$1-setclkdiv;
#X obj 1405 192 s \$1-setclkmult;
#X msg 1404 216 0.5;
#X obj 1403 238 s \$1-setsfvol;
#X obj 976 34 r startstop;
#X obj 976 56 sel 0;
#X obj 98 104 r startstop;
#X obj 98 126 sel 0;
#X obj 832 33 r startstop;
#X obj 832 55 sel 0;
#X obj 1122 29 r startstop;
#X obj 1122 51 sel 0;
#X obj 545 34 r startstop;
#X obj 545 56 sel 0;
#X obj 691 29 r startstop;
#X obj 691 51 sel 0;
#X obj 236 34 r startstop;
#X obj 236 56 sel 0;
#X obj 382 29 r startstop;
#X obj 382 51 sel 0;
#X obj 974 420 r startstop;
#X obj 974 442 sel 0;
#X obj 830 419 r startstop;
#X obj 830 441 sel 0;
#X obj 1120 415 r startstop;
#X obj 1120 437 sel 0;
#X obj 543 420 r startstop;
#X obj 543 442 sel 0;
#X obj 689 415 r startstop;
#X obj 689 437 sel 0;
#X obj 234 420 r startstop;
#X obj 234 442 sel 0;
#X obj 380 415 r startstop;
#X obj 380 437 sel 0;
#X obj 80 417 r startstop;
#X obj 80 439 sel 0;
#X obj 1546 782 t b;
#X obj 1519 758 sel 1;
#X msg 1546 803 1;
#X obj 1519 735 spigot;
#X floatatom 1552 715 5 0 0 0 - - -;
#X obj 1552 693 - 1;
#X obj 1693 781 t b;
#X obj 1666 757 sel 1;
#X msg 1693 802 1;
#X obj 1666 734 spigot;
#X floatatom 1699 714 5 0 0 0 - - -;
#X obj 1699 692 - 1;
#X obj 1519 669 r \$1-clkdiv-b1;
#X obj 1666 668 r \$1-clkmult-b1;
#X obj 1546 825 s \$1-setclkmult-b1;
#X obj 1693 824 s \$1-setclkdiv-b1;
#X obj 1835 779 t b;
#X obj 1808 755 sel 1;
#X msg 1835 800 1;
#X obj 1808 732 spigot;
#X floatatom 1841 712 5 0 0 0 - - -;
#X obj 1841 690 - 1;
#X obj 1982 778 t b;
#X obj 1955 754 sel 1;
#X msg 1982 799 1;
#X obj 1955 731 spigot;
#X floatatom 1988 711 5 0 0 0 - - -;
#X obj 1988 689 - 1;
#X obj 1808 666 r \$1-clkdiv-b2;
#X obj 1955 665 r \$1-clkmult-b2;
#X obj 1835 822 s \$1-setclkmult-b2;
#X obj 1982 821 s \$1-setclkdiv-b2;
#X obj 1284 991 t b;
#X obj 1257 967 sel 1;
#X msg 1284 1012 1;
#X obj 1257 944 spigot;
#X floatatom 1290 924 5 0 0 0 - - -;
#X obj 1290 902 - 1;
#X obj 1431 990 t b;
#X obj 1404 966 sel 1;
#X msg 1431 1011 1;
#X obj 1404 943 spigot;
#X floatatom 1437 923 5 0 0 0 - - -;
#X obj 1437 901 - 1;
#X obj 1573 988 t b;
#X obj 1546 964 sel 1;
#X msg 1573 1009 1;
#X obj 1546 941 spigot;
#X floatatom 1579 921 5 0 0 0 - - -;
#X obj 1579 899 - 1;
#X obj 1720 987 t b;
#X obj 1693 963 sel 1;
#X msg 1720 1008 1;
#X obj 1693 940 spigot;
#X floatatom 1726 920 5 0 0 0 - - -;
#X obj 1726 898 - 1;
#X obj 1257 878 r \$1-clkdiv-b3;
#X obj 1284 1034 s \$1-setclkmult-b3;
#X obj 1404 877 r \$1-clkmult-b3;
#X obj 1431 1033 s \$1-setclkdiv-b3;
#X obj 1546 875 r \$1-clkdiv-b4;
#X obj 1573 1031 s \$1-setclkmult-b4;
#X obj 1693 874 r \$1-clkmult-b4;
#X obj 1720 1030 s \$1-setclkdiv-b4;
#X msg 1531 78 16;
#X msg 1531 124 1;
#X msg 1663 79 16;
#X msg 1663 125 1;
#X msg 1791 79 16;
#X msg 1791 125 1;
#X msg 1923 80 16;
#X msg 1923 126 1;
#X obj 1531 99 s \$1-setq-b1;
#X obj 1531 146 s \$1-setonoffbeat-b1;
#X obj 1531 172 s \$1-setclkdiv-b1;
#X obj 1532 198 s \$1-setclkmult-b1;
#X obj 1663 147 s \$1-setonoffbeat-b2;
#X obj 1663 100 s \$1-setq-b2;
#X obj 1663 173 s \$1-setclkdiv-b2;
#X obj 1664 199 s \$1-setclkmult-b2;
#X obj 1791 100 s \$1-setq-b3;
#X obj 1791 147 s \$1-setonoffbeat-b3;
#X obj 1791 173 s \$1-setclkdiv-b3;
#X obj 1792 199 s \$1-setclkmult-b3;
#X obj 1923 101 s \$1-setq-b4;
#X obj 1923 148 s \$1-setonoffbeat-b4;
#X obj 1923 174 s \$1-setclkdiv-b4;
#X obj 1924 200 s \$1-setclkmult-b4;
#X obj 1565 420 s \$1-label;
#X obj 1565 332 \$1;
#X msg 1565 398 label \$1;
#X symbolatom 1565 378 10 0 0 0 - - -;
#X msg 1565 353 set Circle-\$1;
#X obj 1661 353 del 10;
#X connect 0 0 56 1;
#X connect 1 0 56 1;
#X connect 2 0 75 1;
#X connect 3 0 75 1;
#X connect 4 0 78 1;
#X connect 5 0 78 1;
#X connect 6 0 81 1;
#X connect 7 0 81 1;
#X connect 8 0 84 1;
#X connect 9 0 87 1;
#X connect 10 0 87 1;
#X connect 11 0 90 1;
#X connect 12 0 90 1;
#X connect 13 0 93 1;
#X connect 14 0 93 1;
#X connect 15 0 84 1;
#X connect 16 0 96 1;
#X connect 17 0 96 1;
#X connect 18 0 99 1;
#X connect 19 0 99 1;
#X connect 20 0 102 1;
#X connect 21 0 102 1;
#X connect 22 0 105 1;
#X connect 23 0 105 1;
#X connect 24 0 108 1;
#X connect 25 0 111 1;
#X connect 26 0 111 1;
#X connect 27 0 114 1;
#X connect 28 0 114 1;
#X connect 29 0 117 1;
#X connect 30 0 117 1;
#X connect 31 0 108 1;
#X connect 32 0 36 0;
#X connect 33 0 176 0;
#X connect 33 0 175 0;
#X connect 34 0 180 0;
#X connect 34 0 179 0;
#X connect 35 0 183 0;
#X connect 35 0 182 0;
#X connect 36 0 33 0;
#X connect 36 0 34 0;
#X connect 36 0 35 0;
#X connect 36 0 37 0;
#X connect 36 0 38 0;
#X connect 36 0 39 0;
#X connect 36 0 40 0;
#X connect 36 0 41 0;
#X connect 36 0 42 0;
#X connect 36 0 43 0;
#X connect 36 0 44 0;
#X connect 36 0 46 0;
#X connect 36 0 48 0;
#X connect 36 0 47 0;
#X connect 36 0 49 0;
#X connect 36 1 34 0;
#X connect 36 1 35 0;
#X connect 36 1 37 0;
#X connect 36 1 38 0;
#X connect 36 1 39 0;
#X connect 36 1 40 0;
#X connect 36 1 41 0;
#X connect 36 1 42 0;
#X connect 36 1 43 0;
#X connect 36 1 44 0;
#X connect 36 1 46 0;
#X connect 36 1 47 0;
#X connect 36 1 48 0;
#X connect 36 1 49 0;
#X connect 36 2 35 0;
#X connect 36 2 37 0;
#X connect 36 2 38 0;
#X connect 36 2 39 0;
#X connect 36 2 40 0;
#X connect 36 2 41 0;
#X connect 36 2 42 0;
#X connect 36 2 43 0;
#X connect 36 2 44 0;
#X connect 36 2 46 0;
#X connect 36 2 47 0;
#X connect 36 2 48 0;
#X connect 36 2 49 0;
#X connect 36 3 37 0;
#X connect 36 3 38 0;
#X connect 36 3 39 0;
#X connect 36 3 40 0;
#X connect 36 3 41 0;
#X connect 36 3 42 0;
#X connect 36 3 43 0;
#X connect 36 3 44 0;
#X connect 36 3 46 0;
#X connect 36 3 47 0;
#X connect 36 3 48 0;
#X connect 36 3 49 0;
#X connect 36 4 38 0;
#X connect 36 4 39 0;
#X connect 36 4 40 0;
#X connect 36 4 41 0;
#X connect 36 4 42 0;
#X connect 36 4 43 0;
#X connect 36 4 44 0;
#X connect 36 4 46 0;
#X connect 36 4 47 0;
#X connect 36 4 48 0;
#X connect 36 4 49 0;
#X connect 36 5 39 0;
#X connect 36 5 40 0;
#X connect 36 5 41 0;
#X connect 36 5 42 0;
#X connect 36 5 43 0;
#X connect 36 5 44 0;
#X connect 36 5 46 0;
#X connect 36 5 47 0;
#X connect 36 5 48 0;
#X connect 36 5 49 0;
#X connect 36 6 40 0;
#X connect 36 6 41 0;
#X connect 36 6 42 0;
#X connect 36 6 43 0;
#X connect 36 6 44 0;
#X connect 36 6 46 0;
#X connect 36 6 47 0;
#X connect 36 6 48 0;
#X connect 36 6 49 0;
#X connect 36 7 41 0;
#X connect 36 7 42 0;
#X connect 36 7 43 0;
#X connect 36 7 44 0;
#X connect 36 7 46 0;
#X connect 36 7 47 0;
#X connect 36 7 48 0;
#X connect 36 7 49 0;
#X connect 36 8 42 0;
#X connect 36 8 43 0;
#X connect 36 8 44 0;
#X connect 36 8 46 0;
#X connect 36 8 47 0;
#X connect 36 8 48 0;
#X connect 36 8 49 0;
#X connect 36 9 43 0;
#X connect 36 9 44 0;
#X connect 36 9 46 0;
#X connect 36 9 47 0;
#X connect 36 9 48 0;
#X connect 36 9 49 0;
#X connect 36 10 44 0;
#X connect 36 10 46 0;
#X connect 36 10 47 0;
#X connect 36 10 48 0;
#X connect 36 10 49 0;
#X connect 36 11 46 0;
#X connect 36 11 47 0;
#X connect 36 11 48 0;
#X connect 36 11 49 0;
#X connect 36 12 47 0;
#X connect 36 12 48 0;
#X connect 36 12 49 0;
#X connect 36 13 48 0;
#X connect 36 13 49 0;
#X connect 36 14 49 0;
#X connect 37 0 188 0;
#X connect 37 0 187 0;
#X connect 38 0 191 0;
#X connect 38 0 190 0;
#X connect 39 0 156 0;
#X connect 39 0 155 0;
#X connect 40 0 160 0;
#X connect 40 0 159 0;
#X connect 41 0 164 0;
#X connect 41 0 163 0;
#X connect 42 0 168 0;
#X connect 42 0 167 0;
#X connect 43 0 171 0;
#X connect 43 0 170 0;
#X connect 44 0 136 0;
#X connect 44 0 45 0;
#X connect 45 0 137 1;
#X connect 46 0 139 0;
#X connect 46 0 138 0;
#X connect 47 0 142 0;
#X connect 47 0 141 0;
#X connect 48 0 145 0;
#X connect 48 0 144 0;
#X connect 49 0 148 0;
#X connect 49 0 147 0;
#X connect 50 0 51 0;
#X connect 50 0 119 0;
#X connect 51 0 120 1;
#X connect 52 0 53 0;
#X connect 52 0 54 0;
#X connect 52 0 406 0;
#X connect 52 0 504 0;
#X connect 52 0 506 0;
#X connect 52 0 508 0;
#X connect 52 0 510 0;
#X connect 52 0 505 0;
#X connect 52 0 507 0;
#X connect 52 0 509 0;
#X connect 52 0 511 0;
#X connect 53 0 195 0;
#X connect 54 0 196 0;
#X connect 54 0 206 0;
#X connect 54 0 405 0;
#X connect 55 0 56 0;
#X connect 56 0 58 0;
#X connect 57 0 55 0;
#X connect 74 0 75 0;
#X connect 75 0 59 0;
#X connect 76 0 74 0;
#X connect 77 0 78 0;
#X connect 78 0 60 0;
#X connect 79 0 77 0;
#X connect 80 0 81 0;
#X connect 81 0 61 0;
#X connect 82 0 80 0;
#X connect 83 0 84 0;
#X connect 84 0 62 0;
#X connect 85 0 83 0;
#X connect 86 0 87 0;
#X connect 87 0 63 0;
#X connect 88 0 86 0;
#X connect 89 0 90 0;
#X connect 90 0 64 0;
#X connect 91 0 89 0;
#X connect 92 0 93 0;
#X connect 93 0 65 0;
#X connect 94 0 92 0;
#X connect 95 0 96 0;
#X connect 96 0 66 0;
#X connect 97 0 95 0;
#X connect 98 0 99 0;
#X connect 99 0 67 0;
#X connect 100 0 98 0;
#X connect 101 0 102 0;
#X connect 102 0 68 0;
#X connect 103 0 101 0;
#X connect 104 0 105 0;
#X connect 105 0 69 0;
#X connect 106 0 104 0;
#X connect 107 0 108 0;
#X connect 108 0 70 0;
#X connect 109 0 107 0;
#X connect 110 0 111 0;
#X connect 111 0 71 0;
#X connect 112 0 110 0;
#X connect 113 0 114 0;
#X connect 114 0 72 0;
#X connect 115 0 113 0;
#X connect 116 0 117 0;
#X connect 117 0 73 0;
#X connect 118 0 116 0;
#X connect 119 0 120 0;
#X connect 120 0 121 0;
#X connect 120 0 122 0;
#X connect 120 0 123 0;
#X connect 120 0 124 0;
#X connect 120 0 125 0;
#X connect 120 0 126 0;
#X connect 120 0 127 0;
#X connect 120 0 128 0;
#X connect 120 0 129 0;
#X connect 120 0 130 0;
#X connect 120 0 131 0;
#X connect 120 0 132 0;
#X connect 120 0 133 0;
#X connect 120 0 134 0;
#X connect 120 0 135 0;
#X connect 136 0 137 0;
#X connect 137 0 150 0;
#X connect 138 0 140 1;
#X connect 139 0 140 0;
#X connect 140 0 151 0;
#X connect 141 0 143 1;
#X connect 142 0 143 0;
#X connect 143 0 152 0;
#X connect 144 0 146 1;
#X connect 145 0 146 0;
#X connect 146 0 153 0;
#X connect 147 0 149 1;
#X connect 148 0 149 0;
#X connect 149 0 154 0;
#X connect 155 0 157 1;
#X connect 156 0 157 0;
#X connect 157 0 158 0;
#X connect 159 0 161 1;
#X connect 160 0 161 0;
#X connect 161 0 162 0;
#X connect 163 0 165 1;
#X connect 164 0 165 0;
#X connect 165 0 166 0;
#X connect 167 0 169 1;
#X connect 168 0 169 0;
#X connect 169 0 173 0;
#X connect 170 0 172 1;
#X connect 171 0 172 0;
#X connect 172 0 174 0;
#X connect 175 0 177 1;
#X connect 176 0 177 0;
#X connect 177 0 178 0;
#X connect 179 0 181 1;
#X connect 180 0 181 0;
#X connect 181 0 185 0;
#X connect 182 0 184 1;
#X connect 183 0 184 0;
#X connect 184 0 186 0;
#X connect 187 0 189 1;
#X connect 188 0 189 0;
#X connect 189 0 193 0;
#X connect 190 0 192 1;
#X connect 191 0 192 0;
#X connect 192 0 194 0;
#X connect 197 0 32 0;
#X connect 198 0 50 0;
#X connect 199 0 529 0;
#X connect 199 0 533 0;
#X connect 200 0 201 0;
#X connect 201 0 202 0;
#X connect 201 1 203 0;
#X connect 201 2 204 0;
#X connect 201 3 205 0;
#X connect 207 0 208 0;
#X connect 208 0 0 0;
#X connect 208 0 57 0;
#X connect 208 1 1 0;
#X connect 208 1 57 0;
#X connect 209 0 224 0;
#X connect 210 0 225 0;
#X connect 211 0 226 0;
#X connect 212 0 227 0;
#X connect 213 0 228 0;
#X connect 214 0 229 0;
#X connect 215 0 230 0;
#X connect 216 0 231 0;
#X connect 217 0 232 0;
#X connect 218 0 233 0;
#X connect 219 0 234 0;
#X connect 220 0 235 0;
#X connect 221 0 236 0;
#X connect 222 0 237 0;
#X connect 223 0 238 0;
#X connect 224 0 2 0;
#X connect 224 0 76 0;
#X connect 224 1 373 0;
#X connect 225 0 4 0;
#X connect 225 0 79 0;
#X connect 225 1 364 0;
#X connect 226 0 6 0;
#X connect 226 0 82 0;
#X connect 226 1 355 0;
#X connect 227 0 15 0;
#X connect 227 0 85 0;
#X connect 227 1 346 0;
#X connect 228 0 9 0;
#X connect 228 0 88 0;
#X connect 228 1 337 0;
#X connect 229 0 11 0;
#X connect 229 0 91 0;
#X connect 229 1 328 0;
#X connect 230 0 13 0;
#X connect 230 0 94 0;
#X connect 230 1 319 0;
#X connect 231 0 16 0;
#X connect 231 0 97 0;
#X connect 231 1 306 0;
#X connect 232 0 18 0;
#X connect 232 0 100 0;
#X connect 232 1 297 0;
#X connect 233 0 20 0;
#X connect 233 0 103 0;
#X connect 233 1 288 0;
#X connect 234 0 22 0;
#X connect 234 0 106 0;
#X connect 234 1 279 0;
#X connect 235 0 31 0;
#X connect 235 0 109 0;
#X connect 235 1 268 0;
#X connect 236 0 25 0;
#X connect 236 0 112 0;
#X connect 236 1 259 0;
#X connect 237 0 27 0;
#X connect 237 0 115 0;
#X connect 237 1 249 0;
#X connect 238 0 29 0;
#X connect 238 0 118 0;
#X connect 238 1 239 0;
#X connect 239 0 30 0;
#X connect 239 0 118 0;
#X connect 240 0 242 0;
#X connect 241 0 243 0;
#X connect 242 0 244 0;
#X connect 243 0 245 0;
#X connect 244 0 248 0;
#X connect 245 0 248 0;
#X connect 246 0 240 0;
#X connect 246 1 241 0;
#X connect 247 0 246 0;
#X connect 248 0 239 1;
#X connect 249 0 28 0;
#X connect 249 0 115 0;
#X connect 250 0 252 0;
#X connect 251 0 253 0;
#X connect 252 0 254 0;
#X connect 253 0 255 0;
#X connect 254 0 257 0;
#X connect 255 0 257 0;
#X connect 256 0 258 0;
#X connect 257 0 249 1;
#X connect 258 0 250 0;
#X connect 258 1 251 0;
#X connect 259 0 26 0;
#X connect 259 0 112 0;
#X connect 260 0 262 0;
#X connect 261 0 263 0;
#X connect 262 0 264 0;
#X connect 263 0 265 0;
#X connect 264 0 267 0;
#X connect 265 0 267 0;
#X connect 266 0 277 0;
#X connect 267 0 259 1;
#X connect 268 0 24 0;
#X connect 268 0 109 0;
#X connect 269 0 271 0;
#X connect 270 0 272 0;
#X connect 271 0 273 0;
#X connect 272 0 274 0;
#X connect 273 0 276 0;
#X connect 274 0 276 0;
#X connect 275 0 278 0;
#X connect 276 0 268 1;
#X connect 277 0 260 0;
#X connect 277 1 261 0;
#X connect 278 0 269 0;
#X connect 278 1 270 0;
#X connect 279 0 23 0;
#X connect 279 0 106 0;
#X connect 280 0 282 0;
#X connect 281 0 283 0;
#X connect 282 0 284 0;
#X connect 283 0 285 0;
#X connect 284 0 287 0;
#X connect 285 0 287 0;
#X connect 286 0 315 0;
#X connect 287 0 279 1;
#X connect 288 0 21 0;
#X connect 288 0 103 0;
#X connect 289 0 291 0;
#X connect 290 0 292 0;
#X connect 291 0 293 0;
#X connect 292 0 294 0;
#X connect 293 0 296 0;
#X connect 294 0 296 0;
#X connect 295 0 316 0;
#X connect 296 0 288 1;
#X connect 297 0 100 0;
#X connect 297 0 19 0;
#X connect 298 0 300 0;
#X connect 299 0 301 0;
#X connect 300 0 302 0;
#X connect 301 0 303 0;
#X connect 302 0 305 0;
#X connect 303 0 305 0;
#X connect 304 0 317 0;
#X connect 305 0 297 1;
#X connect 306 0 17 0;
#X connect 306 0 97 0;
#X connect 307 0 309 0;
#X connect 308 0 310 0;
#X connect 309 0 311 0;
#X connect 310 0 312 0;
#X connect 311 0 314 0;
#X connect 312 0 314 0;
#X connect 313 0 318 0;
#X connect 314 0 306 1;
#X connect 315 0 280 0;
#X connect 315 1 281 0;
#X connect 316 0 289 0;
#X connect 316 1 290 0;
#X connect 317 0 298 0;
#X connect 317 1 299 0;
#X connect 318 0 307 0;
#X connect 318 1 308 0;
#X connect 319 0 14 0;
#X connect 319 0 94 0;
#X connect 320 0 322 0;
#X connect 321 0 323 0;
#X connect 322 0 324 0;
#X connect 323 0 325 0;
#X connect 324 0 327 0;
#X connect 325 0 327 0;
#X connect 326 0 382 0;
#X connect 327 0 319 1;
#X connect 328 0 12 0;
#X connect 328 0 91 0;
#X connect 329 0 331 0;
#X connect 330 0 332 0;
#X connect 331 0 333 0;
#X connect 332 0 334 0;
#X connect 333 0 336 0;
#X connect 334 0 336 0;
#X connect 335 0 383 0;
#X connect 336 0 328 1;
#X connect 337 0 10 0;
#X connect 337 0 88 0;
#X connect 338 0 340 0;
#X connect 339 0 341 0;
#X connect 340 0 342 0;
#X connect 341 0 343 0;
#X connect 342 0 345 0;
#X connect 343 0 345 0;
#X connect 344 0 384 0;
#X connect 345 0 337 1;
#X connect 346 0 8 0;
#X connect 346 0 85 0;
#X connect 347 0 349 0;
#X connect 348 0 350 0;
#X connect 349 0 351 0;
#X connect 350 0 352 0;
#X connect 351 0 354 0;
#X connect 352 0 354 0;
#X connect 353 0 385 0;
#X connect 354 0 346 1;
#X connect 355 0 7 0;
#X connect 355 0 82 0;
#X connect 356 0 358 0;
#X connect 357 0 359 0;
#X connect 358 0 360 0;
#X connect 359 0 361 0;
#X connect 360 0 363 0;
#X connect 361 0 363 0;
#X connect 362 0 386 0;
#X connect 363 0 355 1;
#X connect 364 0 5 0;
#X connect 364 0 79 0;
#X connect 365 0 367 0;
#X connect 366 0 368 0;
#X connect 367 0 369 0;
#X connect 368 0 370 0;
#X connect 369 0 372 0;
#X connect 370 0 372 0;
#X connect 371 0 387 0;
#X connect 372 0 364 1;
#X connect 373 0 3 0;
#X connect 373 0 76 0;
#X connect 374 0 376 0;
#X connect 375 0 377 0;
#X connect 376 0 378 0;
#X connect 377 0 379 0;
#X connect 378 0 381 0;
#X connect 379 0 381 0;
#X connect 380 0 388 0;
#X connect 381 0 373 1;
#X connect 382 0 320 0;
#X connect 382 1 321 0;
#X connect 383 0 329 0;
#X connect 383 1 330 0;
#X connect 384 0 338 0;
#X connect 384 1 339 0;
#X connect 385 0 347 0;
#X connect 385 1 348 0;
#X connect 386 0 356 0;
#X connect 386 1 357 0;
#X connect 387 0 365 0;
#X connect 387 1 366 0;
#X connect 388 0 374 0;
#X connect 388 1 375 0;
#X connect 389 0 394 0;
#X connect 389 0 396 0;
#X connect 390 0 393 0;
#X connect 391 1 390 0;
#X connect 393 0 392 0;
#X connect 394 0 391 0;
#X connect 395 0 394 1;
#X connect 396 0 395 0;
#X connect 397 0 399 0;
#X connect 398 1 397 0;
#X connect 399 0 404 0;
#X connect 400 0 398 0;
#X connect 401 0 400 1;
#X connect 402 0 401 0;
#X connect 403 0 400 0;
#X connect 403 0 402 0;
#X connect 406 0 407 0;
#X connect 408 0 409 0;
#X connect 409 0 328 0;
#X connect 410 0 411 0;
#X connect 411 0 1 0;
#X connect 411 0 57 0;
#X connect 412 0 413 0;
#X connect 413 0 337 0;
#X connect 414 0 415 0;
#X connect 415 0 319 0;
#X connect 416 0 417 0;
#X connect 417 0 355 0;
#X connect 418 0 419 0;
#X connect 419 0 346 0;
#X connect 420 0 421 0;
#X connect 421 0 373 0;
#X connect 422 0 423 0;
#X connect 423 0 364 0;
#X connect 424 0 425 0;
#X connect 425 0 249 0;
#X connect 426 0 427 0;
#X connect 427 0 259 0;
#X connect 428 0 429 0;
#X connect 429 0 239 0;
#X connect 430 0 431 0;
#X connect 431 0 279 0;
#X connect 432 0 433 0;
#X connect 433 0 268 0;
#X connect 434 0 435 0;
#X connect 435 0 297 0;
#X connect 436 0 437 0;
#X connect 437 0 288 0;
#X connect 438 0 439 0;
#X connect 439 0 306 0;
#X connect 440 0 442 0;
#X connect 441 1 440 0;
#X connect 442 0 454 0;
#X connect 443 0 441 0;
#X connect 444 0 443 1;
#X connect 445 0 444 0;
#X connect 446 0 448 0;
#X connect 447 1 446 0;
#X connect 448 0 455 0;
#X connect 449 0 447 0;
#X connect 450 0 449 1;
#X connect 451 0 450 0;
#X connect 452 0 443 0;
#X connect 452 0 445 0;
#X connect 453 0 449 0;
#X connect 453 0 451 0;
#X connect 456 0 458 0;
#X connect 457 1 456 0;
#X connect 458 0 470 0;
#X connect 459 0 457 0;
#X connect 460 0 459 1;
#X connect 461 0 460 0;
#X connect 462 0 464 0;
#X connect 463 1 462 0;
#X connect 464 0 471 0;
#X connect 465 0 463 0;
#X connect 466 0 465 1;
#X connect 467 0 466 0;
#X connect 468 0 459 0;
#X connect 468 0 461 0;
#X connect 469 0 465 0;
#X connect 469 0 467 0;
#X connect 472 0 474 0;
#X connect 473 1 472 0;
#X connect 474 0 497 0;
#X connect 475 0 473 0;
#X connect 476 0 475 1;
#X connect 477 0 476 0;
#X connect 478 0 480 0;
#X connect 479 1 478 0;
#X connect 480 0 499 0;
#X connect 481 0 479 0;
#X connect 482 0 481 1;
#X connect 483 0 482 0;
#X connect 484 0 486 0;
#X connect 485 1 484 0;
#X connect 486 0 501 0;
#X connect 487 0 485 0;
#X connect 488 0 487 1;
#X connect 489 0 488 0;
#X connect 490 0 492 0;
#X connect 491 1 490 0;
#X connect 492 0 503 0;
#X connect 493 0 491 0;
#X connect 494 0 493 1;
#X connect 495 0 494 0;
#X connect 496 0 475 0;
#X connect 496 0 477 0;
#X connect 498 0 481 0;
#X connect 498 0 483 0;
#X connect 500 0 487 0;
#X connect 500 0 489 0;
#X connect 502 0 493 0;
#X connect 502 0 495 0;
#X connect 504 0 512 0;
#X connect 505 0 513 0;
#X connect 505 0 514 0;
#X connect 505 0 515 0;
#X connect 506 0 517 0;
#X connect 507 0 516 0;
#X connect 507 0 518 0;
#X connect 507 0 519 0;
#X connect 508 0 520 0;
#X connect 509 0 521 0;
#X connect 509 0 522 0;
#X connect 509 0 523 0;
#X connect 510 0 524 0;
#X connect 511 0 525 0;
#X connect 511 0 526 0;
#X connect 511 0 527 0;
#X connect 529 0 532 0;
#X connect 530 0 528 0;
#X connect 531 0 530 0;
#X connect 532 0 531 0;
#X connect 533 0 531 0;
#X restore 355 161 pd gui;
#X obj 101 101 cnv 15 240 428 empty \$1-label Circle-1 5 10 0 12 -146617
-66577 0;
#X floatatom 238 180 3 1 16 0 Steps: #1-setq #1-q;
#X floatatom 238 199 3 0 16 0 Beats: #1-setp #1-p;
#X obj 210 316 tgl 20 0 \$1-b8out \$1-b8 empty 17 7 0 10 -262144 -1
-262144 0 1;
#X obj 281 286 tgl 20 0 \$1-b6out \$1-b6 empty 17 7 0 10 -262144 -1
-262144 0 1;
#X obj 139 286 tgl 20 0 \$1-b10out \$1-b10 empty 17 7 0 10 -262144
-1 -262144 0 1;
#X obj 139 144 tgl 20 0 \$1-b14out \$1-b14 empty 17 7 0 10 -262144
-1 -262144 0 1;
#X obj 311 215 tgl 20 0 \$1-b4out \$1-b4 empty 17 7 0 10 -262144 -1
-262144 0 1;
#X obj 210 114 tgl 20 0 \$1-b0out \$1-b0 empty 17 7 0 10 -262144 -1
-262144 0 1;
#X obj 109 215 tgl 20 0 \$1-b12out \$1-b12 empty 17 7 0 10 -262144
-1 -262144 0 1;
#X obj 281 144 tgl 20 0 \$1-b2out \$1-b2 empty 17 7 0 10 -262144 -1
-262144 0 1;
#X obj 246 124 tgl 20 0 \$1-b1out \$1-b1 empty 17 7 0 10 -262144 -1
-262144 0 1;
#X obj 301 179 tgl 20 0 \$1-b3out \$1-b3 empty 17 7 0 10 -262144 -1
-262144 0 1;
#X obj 301 251 tgl 20 0 \$1-b5out \$1-b5 empty 17 7 0 10 -262144 -1
-262144 0 1;
#X obj 246 306 tgl 20 0 \$1-b7out \$1-b7 empty 17 7 0 10 -262144 -1
-262144 0 1;
#X obj 174 306 tgl 20 0 \$1-b9out \$1-b9 empty 17 7 0 10 -262144 -1
-262144 0 1;
#X obj 119 251 tgl 20 0 \$1-b11out \$1-b11 empty 17 7 0 10 -262144
-1 -262144 0 1;
#X obj 119 179 tgl 20 0 \$1-b13out \$1-b13 empty 17 7 0 10 -262144
-1 -262144 0 1;
#X obj 174 124 tgl 20 0 \$1-b15out \$1-b15 empty 17 7 0 10 -262144
-1 -262144 0 1;
#X obj 321 107 tgl 12 0 \$1-onoffbeat \$1-setonoffbeat On/Off_Beat:
-76 6 0 10 -262144 -1 -1 1 1;
#X floatatom 238 218 3 0 0 0 Rotate: #1-setstartpos #1-startpos;
#X floatatom 238 237 3 1 64 0 Divide: #1-setclkdiv #1-clkdiv;
#X obj 206 510 hsl 128 15 0 1 0 0 \$1-sfvol \$1-setsfvol Sound_File_Gain:
-100 8 0 10 -262144 -1 -1 6350 1;
#X floatatom 238 256 3 1 8 0 Multiply: #1-setclkmult #1-clkmult;
#X obj 109 347 cnv 15 225 155 empty empty Banks 18 9 0 13 -233213 -66577
0;
#X obj 191 374 bng 12 250 50 0 \$1-open-b1 \$1-setopen-b1 Open_SF:
-75 7 0 10 -262144 -1 -1;
#X floatatom 191 390 3 1 16 0 Steps:______ #1-setq-b1 #1-q-b1;
#X floatatom 191 409 3 0 16 0 Beats:______ #1-setp-b1 #1-p-b1;
#X floatatom 191 428 3 0 0 0 Rotate:_____ #1-setstartpos-b1 #1-startpos-b1
;
#X floatatom 191 447 3 1 64 0 Divide:_____ #1-setclkdiv-b1 #1-clkdiv-b1
;
#X floatatom 191 466 3 1 8 0 Multiply:___ #1-setclkmult-b1 #1-clkmult-b1
;
#X obj 191 486 tgl 12 0 \$1-onoffbeat-b1 \$1-setonoffbeat-b1 On/Off_Beat:
-76 8 0 10 -262144 -1 -1 1 1;
#X obj 230 374 bng 12 250 50 0 \$1-open-b2 \$1-setopen-b1 empty -50
7 0 10 -262144 -1 -1;
#X floatatom 230 390 3 1 16 0 - #1-setq-b2 #1-q-b2;
#X floatatom 230 409 3 0 16 0 - #1-setp-b2 #1-p-b2;
#X floatatom 230 428 3 0 0 0 - #1-setstartpos-b2 #1-startpos-b2;
#X floatatom 230 447 3 1 64 0 - #1-setclkdiv-b2 #1-clkdiv-b2;
#X floatatom 230 466 3 1 8 0 - #1-setclkmult-b2 #1-clkmult-b2;
#X obj 230 486 tgl 12 0 \$1-onoffbeat-b2 \$1-setonoffbeat-b2 empty
-76 8 0 10 -262144 -1 -1 1 1;
#X obj 268 374 bng 12 250 50 0 \$1-open-b3 \$1-setopen-b1 empty -50
7 0 10 -262144 -1 -1;
#X floatatom 268 390 3 1 16 0 - #1-setq-b3 #1-q-b3;
#X floatatom 268 409 3 0 16 0 - #1-setp-b3 #1-p-b3;
#X floatatom 268 428 3 0 0 0 - #1-setstartpos-b3 #1-startpos-b3;
#X floatatom 268 447 3 1 64 0 - #1-setclkdiv-b3 #1-clkdiv-b3;
#X floatatom 268 466 3 1 8 0 - #1-setclkmult-b3 #1-clkmult-b3;
#X obj 268 486 tgl 12 0 \$1-onoffbeat-b3 \$1-setonoffbeat-b3 empty
-76 8 0 10 -262144 -1 -1 1 1;
#X obj 308 374 bng 12 250 50 0 \$1-open-b4 \$1-setopen-b1 empty -50
7 0 10 -262144 -1 -1;
#X floatatom 308 390 3 1 16 0 - #1-setq-b4 #1-q-b4;
#X floatatom 308 409 3 0 16 0 - #1-setp-b4 #1-p-b4;
#X floatatom 308 428 3 0 0 0 - #1-setstartpos-b4 #1-startpos-b4;
#X floatatom 308 447 3 1 64 0 - #1-setclkdiv-b4 #1-clkdiv-b4;
#X floatatom 308 466 3 1 8 0 - #1-setclkmult-b4 #1-clkmult-b4;
#X obj 308 486 tgl 12 0 \$1-onoffbeat-b4 \$1-setonoffbeat-b4 empty
-76 8 0 10 -262144 -1 -1 1 1;
#X obj 112 350 tgl 12 0 \$1-banksonoff \$1-setbanksonoff empty 17 7
0 10 -262144 -1 -1 0 1;
#N canvas 915 374 1773 1192 banks 0;
#X obj 110 33 r bankno;
#X obj 110 561 s \$1-setq;
#X obj 143 101 r \$1-banksonoff;
#X floatatom 143 121 5 0 0 0 - - -;
#X obj 110 142 spigot;
#X obj 1137 487 s \$1-banksoundfile;
#X obj 169 32 r \$1-b1onoff;
#X obj 250 32 r \$1-b2onoff;
#X obj 331 32 r \$1-b3onoff;
#X obj 413 32 r \$1-b4onoff;
#X msg 169 55 1;
#X msg 250 53 2;
#X msg 331 54 3;
#X msg 413 54 4;
#X obj 246 288 f;
#X obj 261 265 r \$1-p-b1;
#X obj 246 561 s \$1-setp;
#X obj 387 570 s \$1-setstartpos;
#X obj 566 573 s \$1-setclkdiv;
#X obj 733 573 s \$1-setclkmult;
#X obj 919 570 s \$1-setonoffbeat;
#X obj 260 366 f;
#X obj 246 207 sel 1 2 3 4;
#X obj 277 445 f;
#X obj 293 524 f;
#X obj 275 343 r \$1-p-b2;
#X obj 292 422 r \$1-p-b3;
#X obj 308 501 r \$1-p-b4;
#X obj 246 241 del 10;
#X obj 260 314 del 10;
#X obj 277 393 del 10;
#X obj 293 472 del 10;
#X obj 110 293 f;
#X obj 124 371 f;
#X obj 110 212 sel 1 2 3 4;
#X obj 141 450 f;
#X obj 157 529 f;
#X obj 110 246 del 10;
#X obj 124 319 del 10;
#X obj 141 398 del 10;
#X obj 157 477 del 10;
#X obj 125 270 r \$1-q-b1;
#X obj 139 348 r \$1-q-b2;
#X obj 156 427 r \$1-q-b3;
#X obj 172 506 r \$1-q-b4;
#X obj 566 292 f;
#X obj 580 370 f;
#X obj 566 211 sel 1 2 3 4;
#X obj 597 449 f;
#X obj 613 528 f;
#X obj 566 245 del 10;
#X obj 580 318 del 10;
#X obj 597 397 del 10;
#X obj 613 476 del 10;
#X obj 387 298 f;
#X obj 401 376 f;
#X obj 387 217 sel 1 2 3 4;
#X obj 418 455 f;
#X obj 434 534 f;
#X obj 387 251 del 10;
#X obj 401 324 del 10;
#X obj 418 403 del 10;
#X obj 434 482 del 10;
#X obj 919 287 f;
#X obj 933 365 f;
#X obj 919 206 sel 1 2 3 4;
#X obj 950 444 f;
#X obj 966 523 f;
#X obj 919 240 del 10;
#X obj 933 313 del 10;
#X obj 950 392 del 10;
#X obj 966 471 del 10;
#X obj 733 292 f;
#X obj 747 370 f;
#X obj 733 211 sel 1 2 3 4;
#X obj 764 449 f;
#X obj 780 528 f;
#X obj 733 245 del 10;
#X obj 747 318 del 10;
#X obj 764 397 del 10;
#X obj 780 476 del 10;
#X obj 402 275 r \$1-startpos-b1;
#X obj 416 353 r \$1-startpos-b2;
#X obj 433 432 r \$1-startpos-b3;
#X obj 449 511 r \$1-startpos-b4;
#X obj 581 269 r \$1-clkdiv-b1;
#X obj 595 347 r \$1-clkdiv-b2;
#X obj 612 426 r \$1-clkdiv-b3;
#X obj 628 505 r \$1-clkdiv-b4;
#X obj 748 269 r \$1-clkmult-b1;
#X obj 762 347 r \$1-clkmult-b2;
#X obj 779 426 r \$1-clkmult-b3;
#X obj 795 505 r \$1-clkmult-b4;
#X obj 934 264 r \$1-onoffbeat-b1;
#X obj 948 342 r \$1-onoffbeat-b2;
#X obj 965 421 r \$1-onoffbeat-b3;
#X obj 981 500 r \$1-onoffbeat-b4;
#X obj 1170 288 openpanel;
#X obj 1170 269 bng 15 250 50 0 empty empty empty 17 7 0 10 -262144
-1 -1;
#X obj 1137 438 symbol;
#X msg 1170 334 1;
#X floatatom 1170 357 5 0 0 0 - - -;
#X obj 1170 311 t b;
#X obj 1137 397 spigot;
#X obj 1170 249 r \$1-open-b1;
#X obj 1308 288 openpanel;
#X obj 1308 269 bng 15 250 50 0 empty empty empty 17 7 0 10 -262144
-1 -1;
#X obj 1275 438 symbol;
#X msg 1308 334 1;
#X floatatom 1308 357 5 0 0 0 - - -;
#X obj 1308 311 t b;
#X obj 1275 397 spigot;
#X obj 1460 286 openpanel;
#X obj 1460 267 bng 15 250 50 0 empty empty empty 17 7 0 10 -262144
-1 -1;
#X obj 1427 436 symbol;
#X msg 1460 332 1;
#X floatatom 1460 355 5 0 0 0 - - -;
#X obj 1460 309 t b;
#X obj 1427 395 spigot;
#X obj 1598 286 openpanel;
#X obj 1598 267 bng 15 250 50 0 empty empty empty 17 7 0 10 -262144
-1 -1;
#X obj 1565 436 symbol;
#X msg 1598 332 1;
#X floatatom 1598 355 5 0 0 0 - - -;
#X obj 1598 309 t b;
#X obj 1565 395 spigot;
#X obj 1308 249 r \$1-open-b2;
#X obj 1460 247 r \$1-open-b3;
#X obj 1598 247 r \$1-open-b4;
#X obj 1138 207 sel 1 2 3 4;
#X obj 1185 397 f;
#X obj 1324 397 f;
#X obj 1476 393 f;
#X obj 1614 395 f;
#X obj 1185 524 s \$1-sfloaded;
#X floatatom 277 97 5 0 0 0 - - -;
#X connect 0 0 4 0;
#X connect 2 0 3 0;
#X connect 3 0 4 1;
#X connect 4 0 22 0;
#X connect 4 0 34 0;
#X connect 4 0 56 0;
#X connect 4 0 47 0;
#X connect 4 0 74 0;
#X connect 4 0 65 0;
#X connect 4 0 129 0;
#X connect 6 0 10 0;
#X connect 7 0 11 0;
#X connect 8 0 12 0;
#X connect 9 0 13 0;
#X connect 10 0 135 0;
#X connect 11 0 135 0;
#X connect 12 0 135 0;
#X connect 13 0 135 0;
#X connect 14 0 16 0;
#X connect 15 0 14 1;
#X connect 21 0 16 0;
#X connect 22 0 28 0;
#X connect 22 0 14 0;
#X connect 22 1 29 0;
#X connect 22 1 21 0;
#X connect 22 2 30 0;
#X connect 22 2 23 0;
#X connect 22 3 31 0;
#X connect 22 3 24 0;
#X connect 23 0 16 0;
#X connect 24 0 16 0;
#X connect 25 0 21 1;
#X connect 26 0 23 1;
#X connect 27 0 24 1;
#X connect 28 0 14 0;
#X connect 29 0 21 0;
#X connect 30 0 23 0;
#X connect 31 0 24 0;
#X connect 32 0 1 0;
#X connect 33 0 1 0;
#X connect 34 0 37 0;
#X connect 34 0 32 0;
#X connect 34 1 38 0;
#X connect 34 1 33 0;
#X connect 34 2 39 0;
#X connect 34 2 35 0;
#X connect 34 3 40 0;
#X connect 34 3 36 0;
#X connect 35 0 1 0;
#X connect 36 0 1 0;
#X connect 37 0 32 0;
#X connect 38 0 33 0;
#X connect 39 0 35 0;
#X connect 40 0 36 0;
#X connect 41 0 32 1;
#X connect 42 0 33 1;
#X connect 43 0 35 1;
#X connect 44 0 36 1;
#X connect 45 0 18 0;
#X connect 46 0 18 0;
#X connect 47 0 50 0;
#X connect 47 0 45 0;
#X connect 47 1 51 0;
#X connect 47 1 46 0;
#X connect 47 2 52 0;
#X connect 47 2 48 0;
#X connect 47 3 53 0;
#X connect 47 3 49 0;
#X connect 48 0 18 0;
#X connect 49 0 18 0;
#X connect 50 0 45 0;
#X connect 51 0 46 0;
#X connect 52 0 48 0;
#X connect 53 0 49 0;
#X connect 54 0 17 0;
#X connect 55 0 17 0;
#X connect 56 0 59 0;
#X connect 56 0 54 0;
#X connect 56 1 60 0;
#X connect 56 1 55 0;
#X connect 56 2 61 0;
#X connect 56 2 57 0;
#X connect 56 3 62 0;
#X connect 56 3 58 0;
#X connect 57 0 17 0;
#X connect 58 0 17 0;
#X connect 59 0 54 0;
#X connect 60 0 55 0;
#X connect 61 0 57 0;
#X connect 62 0 58 0;
#X connect 63 0 20 0;
#X connect 64 0 20 0;
#X connect 65 0 68 0;
#X connect 65 0 63 0;
#X connect 65 1 69 0;
#X connect 65 1 64 0;
#X connect 65 2 70 0;
#X connect 65 2 66 0;
#X connect 65 3 71 0;
#X connect 65 3 67 0;
#X connect 66 0 20 0;
#X connect 67 0 20 0;
#X connect 68 0 63 0;
#X connect 69 0 64 0;
#X connect 70 0 66 0;
#X connect 71 0 67 0;
#X connect 72 0 19 0;
#X connect 73 0 19 0;
#X connect 74 0 77 0;
#X connect 74 0 72 0;
#X connect 74 1 78 0;
#X connect 74 1 73 0;
#X connect 74 2 79 0;
#X connect 74 2 75 0;
#X connect 74 3 80 0;
#X connect 74 3 76 0;
#X connect 75 0 19 0;
#X connect 76 0 19 0;
#X connect 77 0 72 0;
#X connect 78 0 73 0;
#X connect 79 0 75 0;
#X connect 80 0 76 0;
#X connect 81 0 54 1;
#X connect 82 0 55 1;
#X connect 83 0 57 1;
#X connect 84 0 58 1;
#X connect 85 0 45 1;
#X connect 86 0 46 1;
#X connect 87 0 48 1;
#X connect 88 0 49 1;
#X connect 89 0 72 1;
#X connect 90 0 73 1;
#X connect 91 0 75 1;
#X connect 92 0 76 1;
#X connect 93 0 63 1;
#X connect 94 0 64 1;
#X connect 95 0 66 1;
#X connect 96 0 67 1;
#X connect 97 0 99 1;
#X connect 97 0 102 0;
#X connect 98 0 97 0;
#X connect 99 0 5 0;
#X connect 100 0 101 0;
#X connect 101 0 103 1;
#X connect 101 0 130 1;
#X connect 102 0 100 0;
#X connect 103 0 99 0;
#X connect 104 0 98 0;
#X connect 105 0 107 1;
#X connect 105 0 110 0;
#X connect 106 0 105 0;
#X connect 107 0 5 0;
#X connect 108 0 109 0;
#X connect 109 0 111 1;
#X connect 109 0 131 1;
#X connect 110 0 108 0;
#X connect 111 0 107 0;
#X connect 112 0 114 1;
#X connect 112 0 117 0;
#X connect 113 0 112 0;
#X connect 114 0 5 0;
#X connect 115 0 116 0;
#X connect 116 0 118 1;
#X connect 116 0 132 1;
#X connect 117 0 115 0;
#X connect 118 0 114 0;
#X connect 119 0 121 1;
#X connect 119 0 124 0;
#X connect 120 0 119 0;
#X connect 121 0 5 0;
#X connect 122 0 123 0;
#X connect 123 0 125 1;
#X connect 123 0 133 1;
#X connect 124 0 122 0;
#X connect 125 0 121 0;
#X connect 126 0 106 0;
#X connect 127 0 113 0;
#X connect 128 0 120 0;
#X connect 129 0 103 0;
#X connect 129 0 130 0;
#X connect 129 1 111 0;
#X connect 129 1 131 0;
#X connect 129 2 118 0;
#X connect 129 2 132 0;
#X connect 129 3 125 0;
#X connect 129 3 133 0;
#X connect 130 0 134 0;
#X connect 131 0 134 0;
#X connect 132 0 134 0;
#X connect 133 0 134 0;
#X connect 135 0 34 0;
#X connect 135 0 22 0;
#X connect 135 0 56 0;
#X connect 135 0 47 0;
#X connect 135 0 74 0;
#X connect 135 0 65 0;
#X connect 135 0 129 0;
#X restore 358 197 pd banks;
#X obj 321 327 bng 12 250 50 0 \$1-open \$1-setopen Open_SF: -50 7
0 10 -262144 -1 -1;
#X obj 191 353 bng 12 250 50 0 \$1-b1onoff \$1-setb1onoff empty -75
7 0 10 -262144 -1 -1;
#X obj 230 353 bng 12 250 50 0 \$1-b2onoff \$1-setb2onoff empty -50
7 0 10 -262144 -1 -1;
#X obj 268 353 bng 12 250 50 0 \$1-b3onoff \$1-setb3onoff empty -50
7 0 10 -262144 -1 -1;
#X obj 308 353 bng 12 250 50 0 \$1-b4onoff \$1-setb4onoff empty -50
7 0 10 -262144 -1 -1;
#X coords 0 -1 1 1 242 430 1 100 100;
