#N canvas 285 147 1147 903 10;
#X obj 362 218 tgl 15 0 empty empty empty 17 7 0 10 -262144 -1 -1 0
1;
#X msg 321 260 0;
#X obj 362 262 metro 400;
#X obj 321 239 sel 0;
#X obj 435 260 expr 60000 / $f1;
#X floatatom 436 217 5 0 0 0 - - -;
#X obj 362 196 r startstop;
#X obj 436 196 r bpm;
#X obj 436 236 * 4;
#X obj 631 253 s ob;
#X msg 595 252 60;
#X obj 595 277 s setbpm;
#X obj 595 219 loadbang;
#X obj 101 101 cnv 15 490 24 empty empty empty 20 12 0 14 -146617 -66577
0;
#X obj 175 106 tgl 15 0 startstop setstartstop Start/Stop: -68 7 0
10 -262144 -1 -1 0 1;
#X floatatom 552 105 5 1 1000 0 BPM: setbpm bpm;
#X obj 633 403 catch~ todacL;
#X obj 722 403 catch~ todacR;
#X obj 636 456 dac~;
#X obj 435 286 s tempo;
#X obj 362 299 f;
#X obj 362 320 + 1;
#X obj 362 340 - 1;
#X obj 362 366 s seq;
#X obj 782 164 s setstartstop;
#X obj 782 78 key;
#X floatatom 782 101 5 0 0 0 - - -;
#X obj 782 122 sel 32;
#X obj 782 144 tgl 15 0 empty empty empty 17 7 0 10 -262144 -1 -1 0
1;
#X connect 0 0 2 0;
#X connect 0 0 3 0;
#X connect 1 0 20 1;
#X connect 2 0 20 0;
#X connect 3 0 1 0;
#X connect 4 0 2 1;
#X connect 4 0 19 0;
#X connect 5 0 8 0;
#X connect 6 0 0 0;
#X connect 7 0 5 0;
#X connect 8 0 4 0;
#X connect 10 0 11 0;
#X connect 12 0 10 0;
#X connect 12 0 9 0;
#X connect 16 0 18 0;
#X connect 17 0 18 1;
#X connect 20 0 21 0;
#X connect 21 0 20 1;
#X connect 21 0 22 0;
#X connect 22 0 23 0;
#X connect 25 0 26 0;
#X connect 26 0 27 0;
#X connect 27 0 28 0;
#X connect 28 0 24 0;
#X coords 0 -1 1 1 492 26 1 100 100;
