#N canvas 1432 343 1147 903 10;
#X obj 624 584 tgl 15 0 empty empty empty 17 7 0 10 -262144 -1 -1 1
1;
#X msg 583 626 0;
#X obj 624 628 metro 400;
#X obj 583 605 sel 0;
#X obj 697 626 expr 60000 / $f1;
#X floatatom 698 583 5 0 0 0 - - -;
#X obj 624 562 r startstop;
#X obj 698 562 r bpm;
#X obj 698 602 * 4;
#X obj 895 769 catch~ todacL;
#X obj 984 769 catch~ todacR;
#X obj 898 822 dac~;
#X obj 697 652 s tempo;
#X obj 624 665 f;
#X obj 624 686 + 1;
#X obj 624 706 - 1;
#X obj 624 732 s seq;
#X obj 916 187 s setstartstop;
#X obj 916 82 key;
#X floatatom 916 105 5 0 0 0 - - -;
#X obj 916 126 sel 32;
#X obj 916 148 tgl 15 0 empty empty empty 17 7 0 10 -262144 -1 -1 1
1;
#N canvas 786 312 1628 1229 sequencer 0;
#X floatatom 128 420 5 0 0 0 - - -;
#X floatatom 161 378 5 0 0 0 - - -;
#X obj 128 618 sel 0 1 2 3 4 5 6 7 8 9 10 11 12 13 14 15;
#X obj 128 93 / 1;
#X floatatom 143 71 5 0 0 0 - - -;
#X floatatom 161 126 5 0 0 0 - - -;
#X obj 128 398 mod 16;
#X obj 161 246 sel 1;
#X msg 161 268 1;
#X msg 188 289 0;
#X obj 128 335 spigot;
#X floatatom 161 314 5 0 0 0 - - -;
#X floatatom 161 223 5 0 0 0 - - -;
#X obj 161 198 expr ($f1 + 1) / ($f2 + 1);
#X obj 314 176 i;
#X obj 175 161 t b;
#X obj 128 509 f;
#X obj 128 531 + 1;
#N canvas 730 673 1274 629 clkmult 0;
#X obj 93 20 r tempo;
#X floatatom 93 42 5 0 0 0 - - -;
#X obj 78 167 del;
#X floatatom 93 145 5 0 0 0 - - -;
#X obj 226 21 r tempo;
#X floatatom 226 43 5 0 0 0 - - -;
#X obj 211 169 del;
#X floatatom 226 147 5 0 0 0 - - -;
#X obj 226 124 / 3;
#X obj 93 122 / 2;
#X obj 378 22 r tempo;
#X floatatom 378 44 5 0 0 0 - - -;
#X obj 363 169 del;
#X floatatom 378 147 5 0 0 0 - - -;
#X obj 536 19 r tempo;
#X floatatom 536 41 5 0 0 0 - - -;
#X obj 521 167 del;
#X floatatom 536 145 5 0 0 0 - - -;
#X obj 378 124 / 4;
#X obj 536 122 / 5;
#X obj 692 16 r tempo;
#X floatatom 692 38 5 0 0 0 - - -;
#X obj 677 163 del;
#X floatatom 692 141 5 0 0 0 - - -;
#X obj 863 15 r tempo;
#X floatatom 863 37 5 0 0 0 - - -;
#X obj 848 163 del;
#X floatatom 863 141 5 0 0 0 - - -;
#X obj 1041 15 r tempo;
#X floatatom 1041 37 5 0 0 0 - - -;
#X obj 1026 162 del;
#X floatatom 1041 140 5 0 0 0 - - -;
#X obj 692 118 / 6;
#X obj 863 118 / 7;
#X obj 1041 117 / 8;
#X floatatom 108 101 5 0 0 0 - - -;
#X obj 109 79 r \$1-clkmult;
#X floatatom 241 103 5 0 0 0 - - -;
#X obj 242 81 r \$1-clkmult;
#X floatatom 393 102 5 0 0 0 - - -;
#X obj 394 80 r \$1-clkmult;
#X floatatom 551 100 5 0 0 0 - - -;
#X obj 552 78 r \$1-clkmult;
#X floatatom 707 95 5 0 0 0 - - -;
#X obj 708 73 r \$1-clkmult;
#X floatatom 881 96 5 0 0 0 - - -;
#X obj 882 74 r \$1-clkmult;
#X floatatom 1057 96 5 0 0 0 - - -;
#X obj 1057 72 r \$1-clkmult;
#X obj 521 468 outlet;
#X obj 20 22 inlet;
#X obj 20 45 t b;
#X obj 1027 332 spigot;
#X floatatom 1060 245 2 0 0 0 - - -;
#X floatatom 1099 247 2 0 0 0 - - -;
#X obj 1060 265 t b;
#X obj 1099 267 t b;
#X msg 1060 286 0;
#X msg 1099 289 1;
#X floatatom 1060 310 5 0 0 0 - - -;
#X obj 1060 201 r \$1-clkmult;
#X obj 1060 223 moses 8;
#X obj 848 329 spigot;
#X floatatom 881 242 2 0 0 0 - - -;
#X floatatom 920 244 2 0 0 0 - - -;
#X obj 881 262 t b;
#X obj 920 264 t b;
#X msg 881 283 0;
#X msg 920 286 1;
#X floatatom 881 307 5 0 0 0 - - -;
#X obj 881 198 r \$1-clkmult;
#X obj 677 328 spigot;
#X floatatom 710 241 2 0 0 0 - - -;
#X floatatom 749 243 2 0 0 0 - - -;
#X obj 710 261 t b;
#X obj 749 263 t b;
#X msg 710 282 0;
#X msg 749 285 1;
#X floatatom 710 306 5 0 0 0 - - -;
#X obj 710 197 r \$1-clkmult;
#X obj 521 327 spigot;
#X floatatom 554 240 2 0 0 0 - - -;
#X floatatom 593 242 2 0 0 0 - - -;
#X obj 554 260 t b;
#X obj 593 262 t b;
#X msg 554 281 0;
#X msg 593 284 1;
#X floatatom 554 305 5 0 0 0 - - -;
#X obj 554 196 r \$1-clkmult;
#X obj 363 324 spigot;
#X floatatom 396 237 2 0 0 0 - - -;
#X floatatom 435 239 2 0 0 0 - - -;
#X obj 396 257 t b;
#X obj 435 259 t b;
#X msg 396 278 0;
#X msg 435 281 1;
#X floatatom 396 302 5 0 0 0 - - -;
#X obj 396 193 r \$1-clkmult;
#X obj 211 323 spigot;
#X floatatom 244 236 2 0 0 0 - - -;
#X floatatom 283 238 2 0 0 0 - - -;
#X obj 244 256 t b;
#X obj 283 258 t b;
#X msg 244 277 0;
#X msg 283 280 1;
#X floatatom 244 301 5 0 0 0 - - -;
#X obj 244 192 r \$1-clkmult;
#X obj 78 322 spigot;
#X floatatom 111 235 2 0 0 0 - - -;
#X floatatom 150 237 2 0 0 0 - - -;
#X obj 111 255 t b;
#X obj 150 257 t b;
#X msg 111 276 0;
#X msg 150 279 1;
#X floatatom 111 300 5 0 0 0 - - -;
#X obj 111 191 r \$1-clkmult;
#X obj 881 220 moses 7;
#X obj 710 219 moses 6;
#X obj 554 218 moses 5;
#X obj 396 215 moses 4;
#X obj 244 214 moses 3;
#X obj 111 213 moses 2;
#X obj 148 101 t b;
#X obj 279 102 t b;
#X obj 429 101 t b;
#X obj 588 99 t b;
#X obj 742 94 t b;
#X obj 919 94 t b;
#X obj 1097 96 t b;
#X connect 0 0 1 0;
#X connect 1 0 9 0;
#X connect 2 0 6 0;
#X connect 2 0 107 0;
#X connect 3 0 2 1;
#X connect 4 0 5 0;
#X connect 5 0 8 0;
#X connect 6 0 12 0;
#X connect 6 0 98 0;
#X connect 7 0 6 1;
#X connect 8 0 7 0;
#X connect 9 0 3 0;
#X connect 10 0 11 0;
#X connect 11 0 18 0;
#X connect 12 0 16 0;
#X connect 12 0 89 0;
#X connect 13 0 12 1;
#X connect 14 0 15 0;
#X connect 15 0 19 0;
#X connect 16 0 22 0;
#X connect 16 0 80 0;
#X connect 17 0 16 1;
#X connect 18 0 13 0;
#X connect 19 0 17 0;
#X connect 20 0 21 0;
#X connect 21 0 32 0;
#X connect 22 0 26 0;
#X connect 22 0 71 0;
#X connect 23 0 22 1;
#X connect 24 0 25 0;
#X connect 25 0 33 0;
#X connect 26 0 30 0;
#X connect 26 0 62 0;
#X connect 27 0 26 1;
#X connect 28 0 29 0;
#X connect 29 0 34 0;
#X connect 30 0 52 0;
#X connect 31 0 30 1;
#X connect 32 0 23 0;
#X connect 33 0 27 0;
#X connect 34 0 31 0;
#X connect 35 0 9 1;
#X connect 35 0 122 0;
#X connect 36 0 35 0;
#X connect 37 0 8 1;
#X connect 37 0 123 0;
#X connect 38 0 37 0;
#X connect 39 0 18 1;
#X connect 39 0 124 0;
#X connect 40 0 39 0;
#X connect 41 0 19 1;
#X connect 41 0 125 0;
#X connect 42 0 41 0;
#X connect 43 0 32 1;
#X connect 43 0 126 0;
#X connect 44 0 43 0;
#X connect 45 0 33 1;
#X connect 45 0 127 0;
#X connect 46 0 45 0;
#X connect 47 0 34 1;
#X connect 47 0 128 0;
#X connect 48 0 47 0;
#X connect 50 0 51 0;
#X connect 51 0 2 0;
#X connect 52 0 49 0;
#X connect 53 0 55 0;
#X connect 54 0 56 0;
#X connect 55 0 57 0;
#X connect 56 0 58 0;
#X connect 57 0 59 0;
#X connect 58 0 59 0;
#X connect 59 0 52 1;
#X connect 60 0 61 0;
#X connect 61 0 53 0;
#X connect 61 1 54 0;
#X connect 62 0 49 0;
#X connect 63 0 65 0;
#X connect 64 0 66 0;
#X connect 65 0 67 0;
#X connect 66 0 68 0;
#X connect 67 0 69 0;
#X connect 68 0 69 0;
#X connect 69 0 62 1;
#X connect 70 0 116 0;
#X connect 71 0 49 0;
#X connect 72 0 74 0;
#X connect 73 0 75 0;
#X connect 74 0 76 0;
#X connect 75 0 77 0;
#X connect 76 0 78 0;
#X connect 77 0 78 0;
#X connect 78 0 71 1;
#X connect 79 0 117 0;
#X connect 80 0 49 0;
#X connect 81 0 83 0;
#X connect 82 0 84 0;
#X connect 83 0 85 0;
#X connect 84 0 86 0;
#X connect 85 0 87 0;
#X connect 86 0 87 0;
#X connect 87 0 80 1;
#X connect 88 0 118 0;
#X connect 89 0 49 0;
#X connect 90 0 92 0;
#X connect 91 0 93 0;
#X connect 92 0 94 0;
#X connect 93 0 95 0;
#X connect 94 0 96 0;
#X connect 95 0 96 0;
#X connect 96 0 89 1;
#X connect 97 0 119 0;
#X connect 98 0 49 0;
#X connect 99 0 101 0;
#X connect 100 0 102 0;
#X connect 101 0 103 0;
#X connect 102 0 104 0;
#X connect 103 0 105 0;
#X connect 104 0 105 0;
#X connect 105 0 98 1;
#X connect 106 0 120 0;
#X connect 107 0 49 0;
#X connect 108 0 110 0;
#X connect 109 0 111 0;
#X connect 110 0 112 0;
#X connect 111 0 113 0;
#X connect 112 0 114 0;
#X connect 113 0 114 0;
#X connect 114 0 107 1;
#X connect 115 0 121 0;
#X connect 116 0 63 0;
#X connect 116 1 64 0;
#X connect 117 0 72 0;
#X connect 117 1 73 0;
#X connect 118 0 81 0;
#X connect 118 1 82 0;
#X connect 119 0 90 0;
#X connect 119 1 91 0;
#X connect 120 0 99 0;
#X connect 120 1 100 0;
#X connect 121 0 108 0;
#X connect 121 1 109 0;
#X connect 122 0 1 0;
#X connect 123 0 5 0;
#X connect 124 0 11 0;
#X connect 125 0 15 0;
#X connect 126 0 21 0;
#X connect 127 0 25 0;
#X connect 128 0 29 0;
#X restore 158 481 pd clkmult;
#X floatatom 128 552 5 0 0 0 - - -;
#X obj 128 28 r seq;
#X obj 128 574 mod 16;
#X floatatom 128 597 5 0 0 0 - - -;
#X obj 128 482 * 1;
#X floatatom 143 461 5 0 0 0 - - -;
#X floatatom 164 552 5 0 0 0 - - -;
#X obj 143 51 r clkdiv;
#X obj 161 357 r q;
#X obj 143 441 r clkmult;
#X obj 164 531 r q;
#X obj 51 619 s beatno;
#X obj 128 641 s s0;
#X obj 173 641 s s3;
#X obj 219 641 s s6;
#X obj 264 641 s s9;
#X obj 310 642 s s12;
#X obj 355 643 s s15;
#X obj 143 663 s s1;
#X obj 188 663 s s4;
#X obj 234 663 s s7;
#X obj 279 663 s s10;
#X obj 325 664 s s13;
#X obj 158 684 s s2;
#X obj 203 685 s s5;
#X obj 249 685 s s8;
#X obj 295 685 s s11;
#X obj 340 686 s s14;
#X obj 586 82 r bank-beat1;
#X obj 571 106 f;
#X obj 571 59 r s0;
#X obj 571 130 s bankno;
#X obj 674 103 f;
#X obj 674 127 s bankno;
#X obj 792 102 f;
#X obj 792 126 s bankno;
#X obj 895 99 f;
#X obj 895 123 s bankno;
#X obj 1000 98 f;
#X obj 1000 122 s bankno;
#X obj 1103 95 f;
#X obj 1103 119 s bankno;
#X obj 1221 94 f;
#X obj 1221 118 s bankno;
#X obj 1324 91 f;
#X obj 1324 115 s bankno;
#X obj 577 225 f;
#X obj 577 249 s bankno;
#X obj 680 222 f;
#X obj 680 246 s bankno;
#X obj 798 221 f;
#X obj 798 245 s bankno;
#X obj 901 218 f;
#X obj 901 242 s bankno;
#X obj 1006 217 f;
#X obj 1006 241 s bankno;
#X obj 1109 214 f;
#X obj 1109 238 s bankno;
#X obj 1227 213 f;
#X obj 1227 237 s bankno;
#X obj 1330 210 f;
#X obj 1330 234 s bankno;
#X obj 674 56 r s1;
#X obj 792 55 r s2;
#X obj 895 52 r s3;
#X obj 1000 51 r s4;
#X obj 1103 48 r s5;
#X obj 1221 47 r s6;
#X obj 1324 44 r s7;
#X obj 577 178 r s8;
#X obj 680 175 r s9;
#X obj 798 174 r s10;
#X obj 901 171 r s11;
#X obj 1006 170 r s12;
#X obj 1109 167 r s13;
#X obj 1227 166 r s14;
#X obj 1330 163 r s15;
#X obj 689 79 r bank-beat2;
#X obj 807 78 r bank-beat3;
#X obj 910 75 r bank-beat4;
#X obj 1015 74 r bank-beat5;
#X obj 1118 71 r bank-beat6;
#X obj 1236 70 r bank-beat7;
#X obj 1339 67 r bank-beat8;
#X obj 592 201 r bank-beat9;
#X obj 695 198 r bank-beat10;
#X obj 813 197 r bank-beat11;
#X obj 916 194 r bank-beat12;
#X obj 1021 193 r bank-beat13;
#X obj 1124 190 r bank-beat14;
#X obj 1242 189 r bank-beat15;
#X obj 1345 186 r bank-beat16;
#X connect 0 0 18 0;
#X connect 0 0 23 0;
#X connect 1 0 6 1;
#X connect 2 0 31 0;
#X connect 2 1 37 0;
#X connect 2 2 42 0;
#X connect 2 3 32 0;
#X connect 2 4 38 0;
#X connect 2 5 43 0;
#X connect 2 6 33 0;
#X connect 2 7 39 0;
#X connect 2 8 44 0;
#X connect 2 9 34 0;
#X connect 2 10 40 0;
#X connect 2 11 45 0;
#X connect 2 12 35 0;
#X connect 2 13 41 0;
#X connect 2 14 46 0;
#X connect 2 15 36 0;
#X connect 3 0 5 0;
#X connect 3 0 10 0;
#X connect 4 0 3 1;
#X connect 5 0 13 0;
#X connect 5 0 14 0;
#X connect 5 0 14 1;
#X connect 5 0 15 0;
#X connect 6 0 0 0;
#X connect 7 0 8 0;
#X connect 7 1 9 0;
#X connect 8 0 11 0;
#X connect 9 0 11 0;
#X connect 10 0 6 0;
#X connect 11 0 10 1;
#X connect 12 0 7 0;
#X connect 13 0 12 0;
#X connect 14 0 13 1;
#X connect 15 0 13 0;
#X connect 16 0 17 0;
#X connect 17 0 16 1;
#X connect 17 0 19 0;
#X connect 18 0 16 0;
#X connect 19 0 21 0;
#X connect 20 0 3 0;
#X connect 21 0 22 0;
#X connect 22 0 2 0;
#X connect 22 0 30 0;
#X connect 23 0 16 1;
#X connect 23 0 19 0;
#X connect 24 0 23 1;
#X connect 25 0 21 1;
#X connect 26 0 4 0;
#X connect 27 0 1 0;
#X connect 28 0 24 0;
#X connect 29 0 25 0;
#X connect 47 0 48 1;
#X connect 48 0 50 0;
#X connect 49 0 48 0;
#X connect 51 0 52 0;
#X connect 53 0 54 0;
#X connect 55 0 56 0;
#X connect 57 0 58 0;
#X connect 59 0 60 0;
#X connect 61 0 62 0;
#X connect 63 0 64 0;
#X connect 65 0 66 0;
#X connect 67 0 68 0;
#X connect 69 0 70 0;
#X connect 71 0 72 0;
#X connect 73 0 74 0;
#X connect 75 0 76 0;
#X connect 77 0 78 0;
#X connect 79 0 80 0;
#X connect 81 0 51 0;
#X connect 82 0 53 0;
#X connect 83 0 55 0;
#X connect 84 0 57 0;
#X connect 85 0 59 0;
#X connect 86 0 61 0;
#X connect 87 0 63 0;
#X connect 88 0 65 0;
#X connect 89 0 67 0;
#X connect 90 0 69 0;
#X connect 91 0 71 0;
#X connect 92 0 73 0;
#X connect 93 0 75 0;
#X connect 94 0 77 0;
#X connect 95 0 79 0;
#X connect 96 0 51 1;
#X connect 97 0 53 1;
#X connect 98 0 55 1;
#X connect 99 0 57 1;
#X connect 100 0 59 1;
#X connect 101 0 61 1;
#X connect 102 0 63 1;
#X connect 103 0 65 1;
#X connect 104 0 67 1;
#X connect 105 0 69 1;
#X connect 106 0 71 1;
#X connect 107 0 73 1;
#X connect 108 0 75 1;
#X connect 109 0 77 1;
#X connect 110 0 79 1;
#X restore 888 260 pd sequencer;
#N canvas 106 22 1351 883 gui 0;
#X obj 38 20 loadbang;
#X msg 38 41 16;
#X msg 38 148 1;
#X obj 165 133 t b;
#X obj 138 109 sel 1;
#X msg 165 154 1;
#X obj 138 86 spigot;
#X floatatom 171 66 5 0 0 0 - - -;
#X obj 171 44 - 1;
#X obj 312 132 t b;
#X obj 285 108 sel 1;
#X msg 312 153 1;
#X obj 285 85 spigot;
#X floatatom 318 65 5 0 0 0 - - -;
#X obj 318 43 - 1;
#X obj 38 62 s setq;
#X obj 38 112 s setclkdiv;
#X obj 39 174 s setclkmult;
#X msg 38 198 0.7;
#X obj 138 20 r clkdiv;
#X obj 285 19 r clkmult;
#X obj 165 176 s setclkmult;
#X obj 312 175 s setclkdiv;
#X obj 37 220 s setoutputgain;
#X obj 461 52 s ob;
#X msg 425 51 60;
#X obj 425 76 s setbpm;
#X obj 425 18 loadbang;
#X obj 654 134 r beatno;
#X obj 654 157 sel 0 1 2 3 4 5 6 7 8 9 10 11 12 13 14 15;
#X msg 654 179 pos 209 296;
#X msg 669 202 pos 245 306;
#X msg 684 226 pos 280 325;
#X msg 699 249 pos 300 360;
#X msg 714 271 pos 310 396;
#X msg 729 294 pos 300 432;
#X msg 745 318 pos 280 467;
#X msg 760 341 pos 245 488;
#X msg 775 180 pos 209 497;
#X msg 790 203 pos 173 488;
#X msg 805 227 pos 138 467;
#X msg 821 250 pos 118 432;
#X msg 836 272 pos 108 396;
#X msg 851 295 pos 118 360;
#X msg 866 319 pos 138 325;
#X msg 881 342 pos 173 306;
#X obj 654 400 s cnvbeat;
#X msg 38 88 16;
#X connect 0 0 1 0;
#X connect 0 0 2 0;
#X connect 0 0 18 0;
#X connect 0 0 47 0;
#X connect 1 0 15 0;
#X connect 2 0 17 0;
#X connect 3 0 5 0;
#X connect 4 1 3 0;
#X connect 5 0 21 0;
#X connect 6 0 4 0;
#X connect 7 0 6 1;
#X connect 8 0 7 0;
#X connect 9 0 11 0;
#X connect 10 1 9 0;
#X connect 11 0 22 0;
#X connect 12 0 10 0;
#X connect 13 0 12 1;
#X connect 14 0 13 0;
#X connect 18 0 23 0;
#X connect 19 0 6 0;
#X connect 19 0 8 0;
#X connect 20 0 12 0;
#X connect 20 0 14 0;
#X connect 25 0 26 0;
#X connect 27 0 25 0;
#X connect 27 0 24 0;
#X connect 28 0 29 0;
#X connect 29 0 30 0;
#X connect 29 1 31 0;
#X connect 29 2 32 0;
#X connect 29 3 33 0;
#X connect 29 4 34 0;
#X connect 29 5 35 0;
#X connect 29 6 36 0;
#X connect 29 7 37 0;
#X connect 29 8 38 0;
#X connect 29 9 39 0;
#X connect 29 10 40 0;
#X connect 29 11 41 0;
#X connect 29 12 42 0;
#X connect 29 13 43 0;
#X connect 29 14 44 0;
#X connect 29 15 45 0;
#X connect 30 0 46 0;
#X connect 31 0 46 0;
#X connect 32 0 46 0;
#X connect 33 0 46 0;
#X connect 34 0 46 0;
#X connect 35 0 46 0;
#X connect 36 0 46 0;
#X connect 37 0 46 0;
#X connect 38 0 46 0;
#X connect 39 0 46 0;
#X connect 40 0 46 0;
#X connect 41 0 46 0;
#X connect 42 0 46 0;
#X connect 43 0 46 0;
#X connect 44 0 46 0;
#X connect 45 0 46 0;
#X connect 47 0 16 0;
#X restore 886 291 pd gui;
#X obj 101 101 cnv 15 240 428 empty empty Euclidean_Sequencer 5 10
0 14 -146617 -66577 0;
#X obj 106 291 cnv 15 230 230 empty empty Banks 4 9 0 13 -233213 -66577
0;
#X obj 111 134 cnv 15 15 15 empty empty Master_Clock 0 0 0 12 -146617
-66577 0;
#X obj 180 146 tgl 15 0 startstop setstartstop Start/Stop: -68 7 0
10 -262144 -1 -1 1 1;
#X floatatom 295 146 5 1 1000 0 BPM: setbpm bpm;
#X obj 111 176 cnv 15 15 15 empty empty Audio 0 0 0 12 -146617 -66577
0;
#X obj 198 189 hsl 128 15 0 1 0 0 outputgain setoutputgain Output_Gain:
-85 8 0 10 -262144 -1 -1 8890 1;
#X obj 300 360 cnv 15 24 21 empty cnvbeat empty 20 12 0 14 -4160 -66577
0;
#X floatatom 236 378 3 1 16 0 Steps: setq q;
#X floatatom 237 398 3 1 64 0 Divide: setclkdiv clkdiv;
#X floatatom 237 417 3 1 8 0 Multiply: setclkmult clkmult;
#X floatatom 211 298 3 0 4 0 - setbank-beat1 bank-beat1;
#X floatatom 247 308 3 0 4 0 - setbank-beat2 bank-beat2;
#X floatatom 282 328 3 0 4 0 - setbank-beat3 bank-beat3;
#X floatatom 302 363 3 0 4 0 - setbank-beat4 bank-beat4;
#X floatatom 312 399 3 0 4 0 - setbank-beat5 bank-beat5;
#X floatatom 302 435 3 0 4 0 - setbank-beat6 bank-beat6;
#X floatatom 282 470 3 0 4 0 - setbank-beat7 bank-beat7;
#X floatatom 247 490 3 0 4 0 - setbank-beat8 bank-beat8;
#X floatatom 211 500 3 0 4 0 - setbank-beat9 bank-beat9;
#X floatatom 175 490 3 0 4 0 - setbank-beat10 bank-beat10;
#X floatatom 140 470 3 0 4 0 - setbank-beat11 bank-beat11;
#X floatatom 120 435 3 0 4 0 - setbank-beat12 bank-beat12;
#X floatatom 110 399 3 0 4 0 - setbank-beat13 bank-beat13;
#X floatatom 120 363 3 0 4 0 - setbank-beat14 bank-beat14;
#X floatatom 140 328 3 0 4 0 - setbank-beat15 bank-beat15;
#X floatatom 175 308 3 0 4 0 - setbank-beat16 bank-beat16;
#X obj 463 247 s cnvbeat;
#X msg 463 220 pos \$1 \$2;
#X obj 463 186 pack f f;
#X floatatom 463 136 5 0 0 0 - - -;
#X floatatom 508 135 5 0 0 0 - - -;
#X obj 479 99 t b;
#X connect 0 0 2 0;
#X connect 0 0 3 0;
#X connect 1 0 13 1;
#X connect 2 0 13 0;
#X connect 3 0 1 0;
#X connect 4 0 2 1;
#X connect 4 0 12 0;
#X connect 5 0 8 0;
#X connect 6 0 0 0;
#X connect 7 0 5 0;
#X connect 8 0 4 0;
#X connect 9 0 11 0;
#X connect 10 0 11 1;
#X connect 13 0 14 0;
#X connect 14 0 13 1;
#X connect 14 0 15 0;
#X connect 15 0 16 0;
#X connect 18 0 19 0;
#X connect 19 0 20 0;
#X connect 20 0 21 0;
#X connect 52 0 51 0;
#X connect 53 0 52 0;
#X connect 54 0 53 0;
#X connect 55 0 53 1;
#X connect 55 0 56 0;
#X connect 56 0 54 0;
#X coords 0 -1 1 1 242 430 1 100 100;
